<svg xmlns="http://www.w3.org/2000/svg" xmlns:xlink="http://www.w3.org/1999/xlink" version="1.1" width="1000" height="1000" viewBox="0 0 1000 1000" xml:space="preserve">
<desc>Created with Fabric.js 3.5.0</desc>
<defs>
</defs>
<rect x="0" y="0" width="100%" height="100%" fill="rgba(99,71,204,0)"/>
<g transform="matrix(1.083 0 0 1.083 560.9678 523.5845)" id="31726">
<g style="" vector-effect="non-scaling-stroke">
		<g transform="matrix(1 0 0 1 0 0)" id="Layer_1">
<circle style="stroke: none; stroke-width: 1; stroke-dasharray: none; stroke-linecap: butt; stroke-dashoffset: 0; stroke-linejoin: miter; stroke-miterlimit: 4; is-custom-font: none; font-file-url: none; fill: rgb(38,58,122); fill-rule: nonzero; opacity: 1;" cx="0" cy="0" r="256"/>
</g>
		<g transform="matrix(1 0 0 1 42.4975 112.699)" id="Layer_1">
<path style="stroke: none; stroke-width: 1; stroke-dasharray: none; stroke-linecap: butt; stroke-dashoffset: 0; stroke-linejoin: miter; stroke-miterlimit: 4; is-custom-font: none; font-file-url: none; fill: rgb(18,17,73); fill-rule: nonzero; opacity: 1;" transform=" translate(-298.4975, -368.699)" d="M 90.984 335.131 l 175.973 176.621 c 117.538 -4.951 214.564 -89.143 239.054 -200.542 l -87.174 -85.564 L 90.984 335.131 z" stroke-linecap="round"/>
</g>
		<g transform="matrix(1 0 0 1 0.0005 -15.514)" id="Layer_1">
<path style="stroke: none; stroke-width: 1; stroke-dasharray: none; stroke-linecap: butt; stroke-dashoffset: 0; stroke-linejoin: miter; stroke-miterlimit: 4; is-custom-font: none; font-file-url: none; fill: rgb(113,226,239); fill-rule: nonzero; opacity: 1;" transform=" translate(-256.0005, -240.486)" d="M 359.112 354.263 c 43.201 0 78.222 -35.021 78.222 -78.222 c 0 -40.908 -31.41 -74.462 -71.423 -77.91 c -3.448 -40.015 -37.002 -71.423 -77.91 -71.423 c -32.409 0 -60.213 19.709 -72.083 47.795 c -5.36 -1.439 -10.99 -2.22 -16.806 -2.22 c -34.514 0 -62.707 27.05 -64.546 61.104 c -33.13 0.295 -59.899 27.231 -59.899 60.432 c 0 33.382 27.062 60.445 60.445 60.445 H 359.112 L 359.112 354.263 z" stroke-linecap="round"/>
</g>
		<g transform="matrix(1 0 0 1 104.744 -15.5155)" id="Layer_1">
<path style="stroke: none; stroke-width: 1; stroke-dasharray: none; stroke-linecap: butt; stroke-dashoffset: 0; stroke-linejoin: miter; stroke-miterlimit: 4; is-custom-font: none; font-file-url: none; fill: rgb(56,198,217); fill-rule: nonzero; opacity: 1;" transform=" translate(-360.744, -240.4845)" d="M 365.909 198.13 c -3.448 -40.015 -37.002 -71.423 -77.91 -71.423 c -1.289 0 -2.569 0.043 -3.843 0.103 v 227.452 h 74.954 c 43.201 0 78.222 -35.021 78.222 -78.222 C 437.334 235.132 405.925 201.578 365.909 198.13 z" stroke-linecap="round"/>
</g>
		<g transform="matrix(1 0 0 1 28.4445 -8.8365)" id="Layer_1">
<polygon style="stroke: none; stroke-width: 1; stroke-dasharray: none; stroke-linecap: butt; stroke-dashoffset: 0; stroke-linejoin: miter; stroke-miterlimit: 4; is-custom-font: none; font-file-url: none; fill: rgb(255,255,255); fill-rule: nonzero; opacity: 1;" points="56.8885,-5.3855 -0.0005,-65.7255 -56.8885,-5.3855 -28.4445,-5.3855 -28.4445,65.7255 28.4445,65.7255 28.4445,-5.3855 "/>
</g>
		<g transform="matrix(1 0 0 1 56.7455 -8.8365)" id="Layer_1">
<polygon style="stroke: none; stroke-width: 1; stroke-dasharray: none; stroke-linecap: butt; stroke-dashoffset: 0; stroke-linejoin: miter; stroke-miterlimit: 4; is-custom-font: none; font-file-url: none; fill: rgb(237,237,237); fill-rule: nonzero; opacity: 1;" points="-28.3015,-65.7255 -28.5875,-65.4205 -28.5875,65.7255 0.1435,65.7255 0.1435,-5.3855 28.5875,-5.3855 "/>
</g>
</g>
</g>
</svg>