<svg xmlns="http://www.w3.org/2000/svg" xmlns:xlink="http://www.w3.org/1999/xlink" version="1.1" width="1000" height="1000" viewBox="0 0 1000 1000" xml:space="preserve">
<desc>Created with Fabric.js 3.5.0</desc>
<defs>
</defs>
<rect x="0" y="0" width="100%" height="100%" fill="rgba(99,71,204,0)"/>
<g transform="matrix(1.5196 0 0 1.5196 476.556 668.2622)" id="438254">
<g style="" vector-effect="non-scaling-stroke">
		<g transform="matrix(1 0 0 1 -0.6 0.4)" id="Layer_1">
<path style="stroke: none; stroke-width: 1; stroke-dasharray: none; stroke-linecap: butt; stroke-dashoffset: 0; stroke-linejoin: miter; stroke-miterlimit: 4; is-custom-font: none; font-file-url: none; fill: rgb(0,90,143); fill-rule: nonzero; opacity: 1;" transform=" translate(-82.75, -94.9)" d="M 123 36.8 c -9.4 -5.9 -18.3 -8.2 -27.2 -14.1 C 90.2 19 82.6 10.1 76.2 2.5 c -1.2 12.3 -5 17.3 -9.3 20.8 c -9.1 7.1 -14.8 9.3 -22.6 13.5 c -6.6 3.4 -42.4 24.8 -42.4 70.7 s 38.6 79.8 81.6 79.8 c 42.9 0 80.1 -31.2 80.1 -78.3 C 163.6 61.8 128.7 40.4 123 36.8 z" stroke-linecap="round"/>
</g>
		<g transform="matrix(1 0 0 1 22.5848 59.0246)" id="Layer_1">
<path style="stroke: none; stroke-width: 1; stroke-dasharray: none; stroke-linecap: butt; stroke-dashoffset: 0; stroke-linejoin: miter; stroke-miterlimit: 4; is-custom-font: none; font-file-url: none; fill: rgb(255,255,255); fill-rule: nonzero; opacity: 1;" transform=" translate(-105.9348, -153.5247)" d="M 108.5 147.4 c 2.8 0 5.9 0.2 8 1.6 c 2.1 1.4 3.4 4.6 4.1 6.4 c 0.7 1.8 0 2.8 -1.4 3.6 c -1.2 0.7 -1.4 0.4 -2.7 -2 c -1.2 -2.3 -2.3 -4.6 -8.5 -4.6 c -6.2 0 -8.2 2.1 -11.2 4.6 c -3 2.5 -4.1 3.4 -5.2 2 c -1.1 -1.4 -0.7 -2.9 1.2 -4.6 c 2 -1.8 5.2 -4.6 8.2 -5.9 C 104.1 147.2 105.7 147.4 108.5 147.4 L 108.5 147.4 z" stroke-linecap="round"/>
</g>
		<g transform="matrix(1 0 0 1 16.2474 77.9742)" id="Layer_1">
<path style="stroke: none; stroke-width: 1; stroke-dasharray: none; stroke-linecap: butt; stroke-dashoffset: 0; stroke-linejoin: miter; stroke-miterlimit: 4; is-custom-font: none; font-file-url: none; fill: rgb(255,255,255); fill-rule: nonzero; opacity: 1;" transform=" translate(-99.5975, -172.4742)" d="M 79 167.7 c 3.6 2.9 8.9 5.2 20.3 5.2 s 19.4 -3.2 23 -5.9 c 1.6 -1.2 2.3 -0.2 2.5 0.5 c 0.2 0.7 0.5 1.8 -0.7 3 c -0.9 0.9 -9.1 6.6 -18.7 7.5 c -9.6 0.9 -22.6 1.4 -30.4 -5.7 c -1.2 -1.2 -0.9 -3 0 -3.7 c 0.9 -0.7 1.6 -1.2 2.7 -1.2 S 78.5 167.3 79 167.7 L 79 167.7 z" stroke-linecap="round"/>
</g>
		<g transform="matrix(1 0 0 1 -9.5143 -16.1491)" id="Layer_1">
<path style="stroke: none; stroke-width: 1; stroke-dasharray: none; stroke-linecap: butt; stroke-dashoffset: 0; stroke-linejoin: miter; stroke-miterlimit: 4; is-custom-font: none; font-file-url: none; fill: rgb(14,120,190); fill-rule: nonzero; opacity: 1;" transform=" translate(-73.8357, -78.3509)" d="M 35.4 154.2 c 13.5 -0.2 16 -2.5 28 -7.8 c 64.5 -28.8 76.4 -55.2 78.7 -61.3 c 2.3 -6.1 5.7 -15.8 2.1 -26.7 c -0.7 -2.1 -1.2 -3.8 -1.6 -5.1 c -8.6 -9.6 -17.1 -14.8 -19.6 -16.4 c -9.3 -5.9 -18.3 -8.2 -27.2 -14.1 c -5.5 -3.6 -13.2 -12.6 -19.6 -20.3 c -1.2 12.3 -4.8 17.5 -9.3 20.8 c -9.1 7.1 -14.8 9.3 -22.6 13.5 c -6.6 3.6 -42.4 24.8 -42.4 70.7 c 0 14.7 3.9 28.1 10.7 39.6 l 1.8 -0.1 C 18.1 150.4 24 154.3 35.4 154.2 z" stroke-linecap="round"/>
</g>
		<g transform="matrix(1 0 0 1 -0.6 0.3)" id="Layer_1">
<path style="stroke: none; stroke-width: 1; stroke-dasharray: none; stroke-linecap: butt; stroke-dashoffset: 0; stroke-linejoin: miter; stroke-miterlimit: 4; is-custom-font: none; font-file-url: none; fill: rgb(4,74,117); fill-rule: nonzero; opacity: 1;" transform=" translate(-82.75, -94.8)" d="M 123 36.8 c -9.3 -5.9 -18.3 -8.2 -27.2 -14.1 c -5.5 -3.6 -13.2 -12.6 -19.6 -20.3 c -1.2 12.3 -4.8 17.5 -9.3 20.8 c -9.1 7.1 -14.8 9.3 -22.6 13.5 c -6.6 3.6 -42.4 24.8 -42.4 70.7 c 0 14.7 3.9 28.1 10.7 39.6 c 14.4 24.5 41.6 40.2 70.9 40.2 c 42.9 0 80.1 -31.2 80.1 -78.3 c 0 -25.9 -10.5 -44 -21 -55.7 C 134 43.7 125.5 38.4 123 36.8 z M 144.6 57.7 c 11.7 14.6 17.6 31.9 17.6 51.3 c 0 11.3 -2.1 21.9 -6.4 31.6 c -4 9.2 -9.8 17.4 -17.2 24.3 c -14.6 13.6 -34.2 21.1 -55.2 21.1 c -10.4 0 -20.6 -2 -30.3 -5.9 c -9.6 -3.9 -18.2 -9.4 -25.6 -16.4 c -15.6 -14.8 -24.3 -34.7 -24.3 -56.1 c 0 -19.1 6.2 -36 18.4 -50.4 c 9.3 -11 19.4 -17 23.3 -19.1 c 1.9 -1 3.7 -1.9 5.4 -2.8 c 5.4 -2.8 10.4 -5.4 17.4 -10.8 c 3.7 -2.8 7.7 -7.3 9.4 -18.7 c 5.9 7 12.7 14.9 17.9 18.2 c 4.6 3.1 9.4 5.2 14 7.3 c 4.3 2 8.8 4 13.3 6.8 c 0 0 0.2 0.1 0.2 0.1 C 135.4 46.2 142.3 54.8 144.6 57.7 z" stroke-linecap="round"/>
</g>
		<g transform="matrix(1 0 0 1 -36.6547 -54.7088)" id="Layer_1">
<path style="stroke: none; stroke-width: 1; stroke-dasharray: none; stroke-linecap: butt; stroke-dashoffset: 0; stroke-linejoin: miter; stroke-miterlimit: 4; is-custom-font: none; font-file-url: none; fill: rgb(138,203,240); fill-rule: nonzero; opacity: 1;" transform=" translate(-46.6953, -39.7912)" d="M 77 6 c 2.5 7.3 2.1 11 2.1 12.6 c 0 1.6 -0.9 5.9 -3.7 8 c -1.2 0.9 -1.6 1.6 -1.6 1.8 c 0 0.7 1.6 1.2 1.6 2.8 c 0 2 -0.9 5.9 -10.3 15.3 c -9.4 9.4 -23 17.8 -33.5 23 c -10.5 5.2 -15.5 4.8 -16.9 2.3 c -1.4 -2.5 0.5 -8 7.1 -15.3 c 6.6 -7.3 27.4 -17.8 27.4 -17.8 l 26 -18.2 l 1.4 -6.9" stroke-linecap="round"/>
</g>
		<g transform="matrix(1 0 0 1 -35.0629 -58.1914)" id="Layer_1">
<path style="stroke: none; stroke-width: 1; stroke-dasharray: none; stroke-linecap: butt; stroke-dashoffset: 0; stroke-linejoin: miter; stroke-miterlimit: 4; is-custom-font: none; font-file-url: none; fill: rgb(255,255,255); fill-rule: nonzero; opacity: 1;" transform=" translate(-48.2871, -36.3086)" d="M 77 5.8 c -1.6 11.8 -5.2 15.3 -10 19.1 c -8 6.1 -15.8 9.8 -17.6 10.7 c -4.6 2.3 -21.4 11.6 -30.1 24.9 c -2.7 4.1 0 5.7 0.5 6.1 c 0.5 0.4 6.6 1.1 19.6 -6.8 c 13 -7.8 18.7 -12.5 26 -20.1 c 3.9 -4.1 4.5 -6.4 4.5 -7.5 c 0 -1.2 -0.9 -1.8 -2.3 -2.1 c -0.7 -0.2 -0.9 -0.5 0 -1.1 c 0.9 -0.5 4.6 -2.3 5.5 -3 c 0.9 -0.7 5.2 -3.6 5.3 -8.2 C 78.6 13.1 78.3 9.9 77 5.8 L 77 5.8 z" stroke-linecap="round"/>
</g>
		<g transform="matrix(1 0 0 1 14.2448 37.8493)" id="Layer_1">
<path style="stroke: none; stroke-width: 1; stroke-dasharray: none; stroke-linecap: butt; stroke-dashoffset: 0; stroke-linejoin: miter; stroke-miterlimit: 4; is-custom-font: none; font-file-url: none; fill: rgb(255,255,255); fill-rule: nonzero; opacity: 1;" transform=" translate(-97.5948, -132.3493)" d="M 37 135.3 c 0.2 -13.9 13.2 -26.9 29.6 -27.1 c 20.8 -0.2 35.3 20.7 45.8 20.5 c 8.9 -0.2 26 -17.6 34.4 -17.6 c 8.9 0 11.4 9.3 11.4 14.8 c 0 5.5 -1.8 15.5 -6.1 21.7 c -4.3 6.2 -6.9 8.5 -11.9 8.2 c -6.4 -0.5 -19.2 -20.5 -27.4 -20.8 c -10.3 -0.4 -32.8 21.5 -50.4 21.5 c -10.7 0 -13.9 -1.6 -17.5 -3.9 C 39.5 148.8 36.8 143.1 37 135.3 L 37 135.3 z" stroke-linecap="round"/>
</g>
		<g transform="matrix(1 0 0 1 4.75 25.9)" id="Layer_1">
<path style="stroke: none; stroke-width: 1; stroke-dasharray: none; stroke-linecap: butt; stroke-dashoffset: 0; stroke-linejoin: miter; stroke-miterlimit: 4; is-custom-font: none; font-file-url: none; fill: none; fill-rule: nonzero; opacity: 1;" transform=" translate(-88.1, -120.4)" d="M 144.2 58.4 c 3.6 10.9 0.2 20.7 -2.1 26.7 s -14.2 32.4 -78.7 61.3 c -11.9 5.3 -14.4 7.7 -28 7.8 c -11.4 0.2 -17.3 -3.7 -21 -7.1 l -1.8 0.1 c 14.4 24.5 41.6 40.2 70.9 40.2 c 42.9 0 80.1 -31.2 80.1 -78.3 c 0 -25.9 -10.5 -44 -21 -55.7 C 143 54.6 143.5 56.3 144.2 58.4 z" stroke-linecap="round"/>
</g>
</g>
</g>
<g transform="matrix(0.5866 0 0 0.5866 476.557 179.9284)" id="680189">
<g style="" vector-effect="non-scaling-stroke">
		<g transform="matrix(1 0 0 1 33.7185 32.8895)" id="Capa_1">
<path style="stroke: none; stroke-width: 1; stroke-dasharray: none; stroke-linecap: butt; stroke-dashoffset: 0; stroke-linejoin: miter; stroke-miterlimit: 4; is-custom-font: none; font-file-url: none; fill: rgb(234,234,234); fill-rule: nonzero; opacity: 1;" transform=" translate(-283.7185, -282.8895)" d="M 412.226 87.133 L 88.29 412.367 c 41.458 40.974 98.435 66.279 161.33 66.279 c 126.765 0 229.527 -102.764 229.527 -229.527 C 479.146 185.895 453.58 128.644 412.226 87.133 z" stroke-linecap="round"/>
</g>
		<g transform="matrix(1 0 0 1 -33.841 -34.0205)" id="Capa_1">
<path style="stroke: none; stroke-width: 1; stroke-dasharray: none; stroke-linecap: butt; stroke-dashoffset: 0; stroke-linejoin: miter; stroke-miterlimit: 4; is-custom-font: none; font-file-url: none; fill: rgb(211,211,211); fill-rule: nonzero; opacity: 1;" transform=" translate(-216.159, -215.9795)" d="M 249.619 19.592 c -126.765 0 -229.527 102.762 -229.527 229.527 c 0 63.87 26.096 121.639 68.197 163.248 L 412.226 87.133 C 370.665 45.414 313.159 19.592 249.619 19.592 z" stroke-linecap="round"/>
</g>
		<g transform="matrix(1 0 0 1 -0.938 -1.438)" id="Capa_1">
<circle style="stroke: rgb(211,211,211); stroke-width: 5; stroke-dasharray: none; stroke-linecap: butt; stroke-dashoffset: 0; stroke-linejoin: miter; stroke-miterlimit: 10; is-custom-font: none; font-file-url: none; fill: none; fill-rule: nonzero; opacity: 1;" cx="0" cy="0" r="243.438"/>
</g>
		<g transform="matrix(1 0 0 1 37.8555 -68.419)" id="Capa_1">
<path style="stroke: none; stroke-width: 1; stroke-dasharray: none; stroke-linecap: butt; stroke-dashoffset: 0; stroke-linejoin: miter; stroke-miterlimit: 4; is-custom-font: none; font-file-url: none; fill: rgb(255,177,64); fill-rule: evenodd; opacity: 1;" transform=" translate(-287.8555, -181.581)" d="M 348.874 116 c 4.239 1.21 8.708 1.913 12.672 3.723 c 14.088 6.436 21.943 21.008 20.141 36.521 c -1.737 14.963 -13.243 27.283 -28.335 30.35 c -0.674 0.137 -1.334 0.346 -2.331 0.609 c 2.804 10.829 2.963 21.621 -0.04 32.41 c -2.997 10.769 -8.735 19.796 -16.705 27.311 c -8.699 -8.696 -17.303 -17.297 -25.928 -25.919 c 1.615 -2.19 3.631 -4.388 5.037 -6.924 c 5.147 -9.282 3.013 -20.741 -4.856 -27.185 c -8.582 -7.026 -19.792 -7.058 -28.24 -0.055 c -1.137 0.943 -2.231 1.946 -3.276 2.989 c -18.366 18.332 -36.725 36.671 -55.067 55.025 c -0.735 0.736 -1.308 1.633 -1.84 2.307 c -8.935 -8.955 -17.526 -17.565 -26.337 -26.395 c 0.337 -0.361 0.889 -0.99 1.479 -1.58 c 18.843 -18.84 37.728 -37.638 56.519 -56.528 c 10.011 -10.064 21.979 -16.101 36.047 -17.706 c 7.119 -0.813 14.256 -0.329 21.244 1.507 c 0.577 0.152 1.172 0.238 1.669 0.336 c 1.227 -3.524 2.078 -7.105 3.664 -10.325 c 5.68 -11.528 14.989 -18.212 27.771 -19.974 c 0.681 -0.094 1.342 -0.328 2.011 -0.497 C 345.74 116 347.307 116 348.874 116 z" stroke-linecap="round"/>
</g>
		<g transform="matrix(1 0 0 1 66.6283 39.7075)" id="Capa_1">
<path style="stroke: none; stroke-width: 1; stroke-dasharray: none; stroke-linecap: butt; stroke-dashoffset: 0; stroke-linejoin: miter; stroke-miterlimit: 4; is-custom-font: none; font-file-url: none; fill: rgb(255,57,57); fill-rule: evenodd; opacity: 1;" transform=" translate(-316.6283, -289.7075)" d="M 344.172 382.471 c -2.454 -0.528 -4.972 -0.862 -7.353 -1.623 c -12.643 -4.029 -20.78 -12.498 -24.495 -25.229 c -0.097 -0.332 -0.188 -0.668 -0.305 -0.994 c -0.059 -0.162 -0.166 -0.306 -0.363 -0.665 c -23.325 5.934 -43.698 0.629 -60.69 -16.436 c 8.771 -8.755 17.437 -17.404 26.234 -26.188 c 3.134 3.065 6.771 5.892 11.458 7.184 c 8.865 2.445 18.896 -1.267 24.01 -9.079 c 5.059 -7.726 4.636 -18.306 -1.055 -25.381 c -1.09 -1.353 -2.257 -2.652 -3.483 -3.883 c -18.449 -18.486 -36.909 -36.958 -55.379 -55.424 c -0.614 -0.613 -1.335 -1.12 -1.708 -1.427 c 8.823 -8.874 17.436 -17.539 26.226 -26.382 c 0.183 0.169 0.741 0.664 1.269 1.192 c 18.769 18.78 37.503 37.597 56.315 56.335 c 11.629 11.584 17.988 25.478 18.363 41.893 c 0.112 4.91 -0.741 9.843 -1.178 15.062 c 1.271 0.319 2.763 0.669 4.239 1.071 c 16.301 4.435 27.207 20.058 25.909 37.103 c -1.267 16.637 -14.416 30.34 -31.036 32.366 c -0.768 0.094 -1.518 0.333 -2.276 0.505 C 347.307 382.471 345.74 382.471 344.172 382.471 z" stroke-linecap="round"/>
</g>
		<g transform="matrix(1 0 0 1 -69.9168 -40.0265)" id="Capa_1">
<path style="stroke: none; stroke-width: 1; stroke-dasharray: none; stroke-linecap: butt; stroke-dashoffset: 0; stroke-linejoin: miter; stroke-miterlimit: 4; is-custom-font: none; font-file-url: none; fill: rgb(94,211,110); fill-rule: evenodd; opacity: 1;" transform=" translate(-180.0832, -209.9735)" d="M 154.508 116 c 3.188 0.792 6.505 1.258 9.544 2.437 c 11.768 4.565 19.263 13.034 22.333 25.335 c 0.105 0.422 0.211 0.844 0.344 1.258 c 0.077 0.239 0.208 0.459 0.431 0.936 c 22.001 -4.252 40.979 1.554 56.619 17.369 c -8.743 8.736 -17.34 17.326 -26.118 26.096 c -1.054 -0.896 -2.452 -2.15 -3.919 -3.32 c -8.34 -6.653 -21.224 -5.761 -28.828 1.975 c -7.66 7.793 -8.511 20.317 -1.907 28.634 c 1.134 1.428 2.365 2.792 3.654 4.082 c 18.405 18.415 36.824 36.815 55.258 55.203 c 0.673 0.671 1.531 1.156 2.06 1.547 c -9.036 9.019 -17.692 17.657 -26.448 26.395 c -0.175 -0.166 -0.752 -0.68 -1.298 -1.226 c -18.851 -18.832 -37.663 -37.701 -56.559 -56.485 c -12.035 -11.964 -18.217 -26.378 -18.071 -43.309 c 0.047 -5.419 1.162 -10.83 1.805 -16.394 c -2.348 -0.961 -5.071 -1.858 -7.596 -3.146 c -13.661 -6.966 -21.294 -21.386 -19.315 -36.268 c 2.014 -15.147 13.281 -27.128 28.466 -30.267 c 1.437 -0.297 2.879 -0.568 4.319 -0.851 C 151.024 116 152.766 116 154.508 116 z" stroke-linecap="round"/>
</g>
		<g transform="matrix(1 0 0 1 -41.5639 68.264)" id="Capa_1">
<path style="stroke: none; stroke-width: 1; stroke-dasharray: none; stroke-linecap: butt; stroke-dashoffset: 0; stroke-linejoin: miter; stroke-miterlimit: 4; is-custom-font: none; font-file-url: none; fill: rgb(63,135,239); fill-rule: evenodd; opacity: 1;" transform=" translate(-208.4361, -318.264)" d="M 149.282 382.471 c -4.327 -1.205 -8.954 -1.794 -12.925 -3.729 c -13.747 -6.699 -20.86 -18.059 -20.33 -33.311 c 0.512 -14.673 8.156 -25.137 21.439 -31.404 c 1.784 -0.842 4.397 -0.987 5.289 -2.339 c 0.782 -1.186 -0.337 -3.606 -0.578 -5.488 c -2.614 -20.479 3.566 -37.858 18.087 -52.143 c 8.78 8.81 17.417 17.472 26.139 26.223 c -3.992 3.799 -7.011 8.624 -7.75 14.726 c -0.986 8.146 3.489 17.184 10.641 21.187 c 8.196 4.587 17.692 4.035 24.492 -1.467 c 1.417 -1.147 2.784 -2.372 4.074 -3.661 c 18.29 -18.275 36.565 -36.567 54.833 -54.866 c 0.735 -0.738 1.352 -1.594 1.758 -2.08 c 8.889 8.876 17.536 17.515 26.321 26.285 c 0.216 -0.298 0.052 0.007 -0.184 0.242 c -19.562 19.588 -38.94 39.367 -58.761 58.69 c -14.856 14.482 -32.892 19.497 -53.316 15.707 c -1.361 -0.253 -2.36 -0.588 -2.961 1.289 c -4.797 14.971 -15.053 23.53 -30.615 25.749 c -0.329 0.047 -0.634 0.256 -0.951 0.39 C 152.417 382.471 150.85 382.471 149.282 382.471 z" stroke-linecap="round"/>
</g>
</g>
</g>
<g transform="matrix(0.496 0 0 0.496 293.8728 425.3318)" id="397779">
<g style="" vector-effect="non-scaling-stroke">
		<g transform="matrix(1 0 0 1 0 0)" id="Layer_1">
<path style="stroke: none; stroke-width: 1; stroke-dasharray: none; stroke-linecap: butt; stroke-dashoffset: 0; stroke-linejoin: miter; stroke-miterlimit: 4; is-custom-font: none; font-file-url: none; fill: rgb(33,117,155); fill-rule: nonzero; opacity: 1;" transform=" translate(-256, -256)" d="M 512 256 c 0 141.4 -114.6 256 -256 256 C 114.6 512 0 397.4 0 256 S 114.6 0 256 0 C 397.4 0 512 114.6 512 256 z" stroke-linecap="round"/>
</g>
		<g transform="matrix(1 0 0 1 -0.9 -0.8)" id="Layer_1">
<path style="stroke: none; stroke-width: 1; stroke-dasharray: none; stroke-linecap: butt; stroke-dashoffset: 0; stroke-linejoin: miter; stroke-miterlimit: 4; is-custom-font: none; font-file-url: none; fill: rgb(255,255,255); fill-rule: nonzero; opacity: 1;" transform=" translate(-255.1, -255.2)" d="M 255.1 93.1 C 165.6 93.1 93 165.7 93 255.2 c 0 89.5 72.6 162.1 162.1 162.1 c 89.5 0 162.1 -72.6 162.1 -162.1 C 417.2 165.7 344.6 93.1 255.1 93.1 z M 148.9 149 c 28.4 -28.4 66.1 -44 106.2 -44 c 37.7 0 73.3 13.8 100.9 39 c -3.3 -0.1 -6.9 0.5 -10.6 1.7 c -9.1 3 -28.6 22 -3.9 55.9 c 24.7 33.9 12.2 65.5 10.1 72.5 c -2.7 8.8 -21.5 71.5 -21.5 71.5 l -54.2 -161.2 c 0 0 15.3 -1.1 17.5 -1.5 c 2.2 -0.3 5.8 -2.5 5.2 -7.1 c -0.6 -4.6 -4 -5.2 -7.2 -5.1 c -1.6 0.1 -20.5 1.5 -39.3 1.5 c -18.7 0 -37.2 -1.4 -38.5 -1.5 c -2.6 -0.1 -6.5 0.2 -7.4 4.3 c -0.7 3.5 1 7.3 4.8 7.8 c 3.7 0.4 1.2 0.1 16.4 1.5 c 0 0 10.3 28.2 23.3 63.9 l -33 98 l -54.4 -162 c 0 0 15.3 -1.1 17.5 -1.5 c 2.2 -0.3 5.8 -2.5 5.2 -7.1 c -0.6 -4.6 -4 -5.2 -7.2 -5.1 c -1.6 0.1 -20.5 1.5 -39.3 1.5 c -3.3 0 -6.5 0 -9.6 -0.1 C 135.4 163.9 141.8 156.2 148.9 149 z M 104.9 255.2 c 0 -21.7 4.6 -42.6 13.2 -61.7 c 13.5 37 64 175.2 72 197.2 c -15.1 -7.3 -29 -17.1 -41.2 -29.3 C 120.6 333 104.9 295.3 104.9 255.2 z M 212.8 399.4 c 3.4 -10.3 31.8 -92.5 45.2 -131.2 c 20.3 55.5 44.3 123 46.5 128.9 c -15.7 5.4 -32.3 8.3 -49.3 8.3 C 240.6 405.4 226.4 403.3 212.8 399.4 z M 361.3 361.4 c -9.4 9.4 -19.8 17.3 -30.9 23.8 c 8.1 -23.7 30.3 -86 49.6 -142.5 c 7.3 -21.9 9.3 -42.6 7.1 -59.4 c 11.9 21.8 18.2 46.3 18.2 71.9 C 405.3 295.3 389.6 333 361.3 361.4 z" stroke-linecap="round"/>
</g>
</g>
</g>
<g transform="matrix(0.2608 0 0 0.2608 650.3539 451.8111)" id="37937">
<g style="" vector-effect="non-scaling-stroke">
		<g transform="matrix(1 0 0 1 0 0)">
<circle style="stroke: none; stroke-width: 1; stroke-dasharray: none; stroke-linecap: butt; stroke-dashoffset: 0; stroke-linejoin: miter; stroke-miterlimit: 4; is-custom-font: none; font-file-url: none; fill: rgb(238,103,47); fill-rule: nonzero; opacity: 1;" cx="0" cy="0" r="512"/>
</g>
		<g transform="matrix(1 0 0 1 0 0)">
<path style="stroke: none; stroke-width: 1; stroke-dasharray: none; stroke-linecap: butt; stroke-dashoffset: 0; stroke-linejoin: miter; stroke-miterlimit: 4; is-custom-font: none; font-file-url: none; fill: rgb(255,255,255); fill-rule: nonzero; opacity: 1;" transform=" translate(-512, -512)" d="M 512.21 256 L 290.32 384.08 V 640 l 63.37 36.55 l -0.41 -255.84 l 158.51 -91.61 l 158.52 91.63 v 255.74 L 733.68 640 V 383.87 z m 31.48 420.58 L 512 694.9 l -31.79 -18.22 V 420.73 l -63.37 36.55 l 0.1 255.84 L 512 768 l 95 -54.88 V 457.28 l -63.37 -36.55 z" stroke-linecap="round"/>
</g>
</g>
</g>
</svg>