<svg xmlns="http://www.w3.org/2000/svg" xmlns:xlink="http://www.w3.org/1999/xlink" version="1.1" width="1000" height="1000" viewBox="0 0 1000 1000" xml:space="preserve">
<desc>Created with Fabric.js 3.5.0</desc>
<defs>
</defs>
<rect x="0" y="0" width="100%" height="100%" fill="rgba(99,71,204,0)"/>
<g transform="matrix(1.6308 0 0 1.6308 499.9996 499.9996)" id="782873">
<g style="" vector-effect="non-scaling-stroke">
		<g transform="matrix(1 0 0 1 -65.547 -102.7638)" id="Vector">
<path style="stroke: none; stroke-width: 1; stroke-dasharray: none; stroke-linecap: butt; stroke-dashoffset: 0; stroke-linejoin: miter; stroke-miterlimit: 4; is-custom-font: none; font-file-url: none; fill: rgb(201,190,222); fill-rule: nonzero; opacity: 1;" transform=" translate(-222.953, -185.7362)" d="M 241.244 181.87 C 242.686 184.178 241.994 187.294 239.686 188.737 L 218.337 202.065 C 216.029 203.508 212.913 202.815 211.471 200.507 L 204.662 189.602 C 203.22 187.294 203.912 184.178 206.22 182.736 L 227.569 169.407 C 229.877 167.965 232.993 168.657 234.435 170.965 L 241.244 181.87 Z" stroke-linecap="round"/>
</g>
		<g transform="matrix(1 0 0 1 -71.144 -109.5189)" id="Vector_2">
<path style="stroke: none; stroke-width: 1; stroke-dasharray: none; stroke-linecap: butt; stroke-dashoffset: 0; stroke-linejoin: miter; stroke-miterlimit: 4; is-custom-font: none; font-file-url: none; fill: rgb(58,63,72); fill-rule: nonzero; opacity: 1;" transform=" translate(-217.356, -178.9812)" d="M 230.454 168.657 C 229.473 168.599 228.435 168.83 227.511 169.407 L 206.162 182.736 C 205.297 183.313 204.605 184.063 204.258 184.986 L 211.471 186.486 L 225.146 189.314 L 228.608 175.754 L 230.454 168.657 Z" stroke-linecap="round"/>
</g>
		<g transform="matrix(1 0 0 1 -72.99 -113.092)" id="Vector_3">
<path style="stroke: none; stroke-width: 1; stroke-dasharray: none; stroke-linecap: butt; stroke-dashoffset: 0; stroke-linejoin: miter; stroke-miterlimit: 4; is-custom-font: none; font-file-url: none; fill: rgb(36,125,255); fill-rule: nonzero; opacity: 1;" transform=" translate(-215.51, -175.408)" d="M 222.722 161.502 L 201.489 174.831 L 208.24 185.621 L 208.355 185.852 L 211.471 186.486 L 225.146 189.314 L 228.665 175.754 L 229.531 172.35 L 227.627 169.349 L 222.722 161.502 Z" stroke-linecap="round"/>
</g>
		<g transform="matrix(1 0 0 1 -74.115 -115.9486)" id="Vector_4">
<path style="stroke: rgb(255,255,255); stroke-width: 0.8095; stroke-dasharray: none; stroke-linecap: butt; stroke-dashoffset: 0; stroke-linejoin: miter; stroke-miterlimit: 10; is-custom-font: none; font-file-url: none; fill: none; fill-rule: nonzero; opacity: 1;" transform=" translate(-214.385, -172.5515)" d="M 208.182 176.504 L 220.588 168.599" stroke-linecap="round"/>
</g>
		<g transform="matrix(1 0 0 1 -72.1535 -112.7455)" id="Vector_5">
<path style="stroke: rgb(255,255,255); stroke-width: 0.8095; stroke-dasharray: none; stroke-linecap: butt; stroke-dashoffset: 0; stroke-linejoin: miter; stroke-miterlimit: 10; is-custom-font: none; font-file-url: none; fill: none; fill-rule: nonzero; opacity: 1;" transform=" translate(-216.3465, -175.7545)" d="M 210.144 179.678 L 222.549 171.831" stroke-linecap="round"/>
</g>
		<g transform="matrix(1 0 0 1 -70.192 -109.3125)" id="Vector_6">
<path style="stroke: rgb(255,255,255); stroke-width: 0.8095; stroke-dasharray: none; stroke-linecap: butt; stroke-dashoffset: 0; stroke-linejoin: miter; stroke-miterlimit: 10; is-custom-font: none; font-file-url: none; fill: none; fill-rule: nonzero; opacity: 1;" transform=" translate(-218.308, -179.1875)" d="M 212.105 183.14 L 224.511 175.235" stroke-linecap="round"/>
</g>
		<g transform="matrix(1 0 0 1 102.3742 -106.0815)" id="Vector_7">
<path style="stroke: rgb(168,193,239); stroke-width: 1.5; stroke-dasharray: 10.82 10.82; stroke-linecap: round; stroke-dashoffset: 0; stroke-linejoin: round; stroke-miterlimit: 10; is-custom-font: none; font-file-url: none; fill: none; fill-rule: nonzero; opacity: 1;" transform=" translate(-390.8742, -182.4185)" d="M 347.066 252.899 C 347.066 252.899 319.716 227.742 341.757 216.086 C 363.799 204.431 469.217 217.817 444.983 168.599 C 420.749 119.381 360.741 111.938 360.741 111.938" stroke-linecap="round"/>
</g>
		<g transform="matrix(1 0 0 1 48.382 -178.4085)" id="Vector_8">
<path style="stroke: none; stroke-width: 1; stroke-dasharray: none; stroke-linecap: butt; stroke-dashoffset: 0; stroke-linejoin: miter; stroke-miterlimit: 4; is-custom-font: none; font-file-url: none; fill: rgb(228,242,234); fill-rule: nonzero; opacity: 0.7;" transform=" translate(-336.882, -110.0915)" d="M 350.759 112.688 L 323.005 102.821 L 348.797 117.362" stroke-linecap="round"/>
</g>
		<g transform="matrix(1 0 0 1 55.277 -179.7355)" id="Vector_9">
<path style="stroke: none; stroke-width: 1; stroke-dasharray: none; stroke-linecap: butt; stroke-dashoffset: 0; stroke-linejoin: miter; stroke-miterlimit: 4; is-custom-font: none; font-file-url: none; fill: rgb(228,242,234); fill-rule: nonzero; opacity: 1;" transform=" translate(-343.777, -108.7645)" d="M 352.605 106.11 L 350.124 111.938 L 334.949 105.591 L 352.605 106.11 Z" stroke-linecap="round"/>
</g>
		<g transform="matrix(1 0 0 1 55.277 -179.7355)" id="Vector_10">
<path style="stroke: none; stroke-width: 1; stroke-dasharray: none; stroke-linecap: butt; stroke-dashoffset: 0; stroke-linejoin: miter; stroke-miterlimit: 4; is-custom-font: none; font-file-url: none; fill: rgb(44,121,155); fill-rule: nonzero; opacity: 1;" transform=" translate(-343.777, -108.7645)" d="M 352.605 106.11 L 350.124 111.938 L 334.949 105.591 L 352.605 106.11 Z" stroke-linecap="round"/>
</g>
		<g transform="matrix(1 0 0 1 53.373 -180.457)" id="Vector_11">
<path style="stroke: none; stroke-width: 1; stroke-dasharray: none; stroke-linecap: butt; stroke-dashoffset: 0; stroke-linejoin: miter; stroke-miterlimit: 4; is-custom-font: none; font-file-url: none; fill: rgb(120,194,234); fill-rule: nonzero; opacity: 1;" transform=" translate(-341.873, -108.043)" d="M 323.005 102.821 L 347.585 99.821 L 352.605 106.11 L 334.949 105.591 L 356.875 109.803 L 360.741 116.265 L 323.005 102.821 Z" stroke-linecap="round"/>
</g>
		<g transform="matrix(1 0 0 1 48.382 -178.4085)" id="Vector_12">
<path style="stroke: none; stroke-width: 1; stroke-dasharray: none; stroke-linecap: butt; stroke-dashoffset: 0; stroke-linejoin: miter; stroke-miterlimit: 4; is-custom-font: none; font-file-url: none; fill: rgb(228,242,234); fill-rule: nonzero; opacity: 1;" transform=" translate(-336.882, -110.0915)" d="M 323.005 102.821 L 348.797 117.362 L 350.759 112.688 L 323.005 102.821 Z" stroke-linecap="round"/>
</g>
		<g transform="matrix(1 0 0 1 48.382 -178.4085)" id="Vector_13">
<path style="stroke: none; stroke-width: 1; stroke-dasharray: none; stroke-linecap: butt; stroke-dashoffset: 0; stroke-linejoin: miter; stroke-miterlimit: 4; is-custom-font: none; font-file-url: none; fill: rgb(89,167,201); fill-rule: nonzero; opacity: 1;" transform=" translate(-336.882, -110.0915)" d="M 323.005 102.821 L 348.797 117.362 L 350.759 112.688 L 323.005 102.821 Z" stroke-linecap="round"/>
</g>
		<g transform="matrix(1 0 0 1 148.1735 -51.2955)" id="Vector_14">
<path style="stroke: none; stroke-width: 1; stroke-dasharray: none; stroke-linecap: butt; stroke-dashoffset: 0; stroke-linejoin: miter; stroke-miterlimit: 4; is-custom-font: none; font-file-url: none; fill: rgb(124,207,224); fill-rule: nonzero; opacity: 1;" transform=" translate(-436.6735, -237.2045)" d="M 463.1 242.109 C 463.1 244.533 461.138 246.494 458.715 246.494 H 414.632 C 412.209 246.494 410.247 244.533 410.247 242.109 V 232.3 C 410.247 229.877 412.209 227.915 414.632 227.915 H 458.715 C 461.138 227.915 463.1 229.877 463.1 232.3 V 242.109 Z" stroke-linecap="round"/>
</g>
		<g transform="matrix(1 0 0 1 132.133 -51.2955)" id="Vector_15">
<path style="stroke: none; stroke-width: 1; stroke-dasharray: none; stroke-linecap: butt; stroke-dashoffset: 0; stroke-linejoin: miter; stroke-miterlimit: 4; is-custom-font: none; font-file-url: none; fill: rgb(255,255,255); fill-rule: nonzero; opacity: 1;" transform=" translate(-420.633, -237.2045)" d="M 420.633 241.474 C 422.991 241.474 424.903 239.563 424.903 237.205 C 424.903 234.847 422.991 232.935 420.633 232.935 C 418.275 232.935 416.363 234.847 416.363 237.205 C 416.363 239.563 418.275 241.474 420.633 241.474 Z" stroke-linecap="round"/>
</g>
		<g transform="matrix(1 0 0 1 153.453 -54.123)" id="Vector_16">
<path style="stroke: none; stroke-width: 1; stroke-dasharray: none; stroke-linecap: butt; stroke-dashoffset: 0; stroke-linejoin: miter; stroke-miterlimit: 4; is-custom-font: none; font-file-url: none; fill: rgb(255,255,255); fill-rule: nonzero; opacity: 1;" transform=" translate(-441.953, -234.377)" d="M 456.522 233.973 H 427.384 V 234.781 H 456.522 V 233.973 Z" stroke-linecap="round"/>
</g>
		<g transform="matrix(1 0 0 1 147.366 -51.411)" id="Vector_17">
<path style="stroke: none; stroke-width: 1; stroke-dasharray: none; stroke-linecap: butt; stroke-dashoffset: 0; stroke-linejoin: miter; stroke-miterlimit: 4; is-custom-font: none; font-file-url: none; fill: rgb(255,255,255); fill-rule: nonzero; opacity: 1;" transform=" translate(-435.866, -237.089)" d="M 444.348 236.685 H 427.384 V 237.493 H 444.348 V 236.685 Z" stroke-linecap="round"/>
</g>
		<g transform="matrix(1 0 0 1 149.472 -48.526)" id="Vector_18">
<path style="stroke: none; stroke-width: 1; stroke-dasharray: none; stroke-linecap: butt; stroke-dashoffset: 0; stroke-linejoin: miter; stroke-miterlimit: 4; is-custom-font: none; font-file-url: none; fill: rgb(255,255,255); fill-rule: nonzero; opacity: 1;" transform=" translate(-437.972, -239.974)" d="M 448.56 239.57 H 427.384 V 240.378 H 448.56 V 239.57 Z" stroke-linecap="round"/>
</g>
		<g transform="matrix(1 0 0 1 72.4465 -19.6479)" id="Vector_19">
<path style="stroke: none; stroke-width: 1; stroke-dasharray: none; stroke-linecap: butt; stroke-dashoffset: 0; stroke-linejoin: miter; stroke-miterlimit: 4; is-custom-font: none; font-file-url: none; fill: rgb(253,166,200); fill-rule: nonzero; opacity: 1;" transform=" translate(-360.9465, -268.8521)" d="M 329.929 252.957 C 329.929 252.957 369.165 286.596 371.358 283.999 C 373.55 281.403 378.051 221.799 378.051 221.799 L 392.187 219.722 C 392.187 219.722 402.977 293.289 386.187 313.426 C 369.396 333.564 336.276 280.422 336.276 280.422 C 336.276 280.422 323.928 264.612 326.698 260.919 C 329.41 257.342 329.929 252.957 329.929 252.957 Z" stroke-linecap="round"/>
</g>
		<g transform="matrix(1 0 0 1 91.2207 -89.2044)" id="Vector_20">
<path style="stroke: none; stroke-width: 1; stroke-dasharray: none; stroke-linecap: butt; stroke-dashoffset: 0; stroke-linejoin: miter; stroke-miterlimit: 4; is-custom-font: none; font-file-url: none; fill: rgb(111,71,221); fill-rule: nonzero; opacity: 1;" transform=" translate(-379.7206, -199.2955)" d="M 367.318 178.639 L 369.915 220.529 C 370.03 222.664 371.819 224.28 373.954 224.222 L 388.263 223.876 C 390.514 223.818 392.245 221.972 392.129 219.722 L 390.11 178.12 C 389.994 175.985 388.263 174.312 386.129 174.369 L 371.242 174.427 C 368.992 174.485 367.145 176.389 367.318 178.639 Z" stroke-linecap="round"/>
</g>
		<g transform="matrix(1 0 0 1 91.224 -89.204)" id="Vector_21">
<path style="stroke: none; stroke-width: 1; stroke-dasharray: none; stroke-linecap: butt; stroke-dashoffset: 0; stroke-linejoin: miter; stroke-miterlimit: 4; is-custom-font: none; font-file-url: none; fill: rgb(0,0,0); fill-rule: nonzero; opacity: 1;" transform=" translate(-379.724, -199.296)" d="M 373.896 224.684 C 371.588 224.684 369.627 222.895 369.511 220.529 L 366.915 178.639 C 366.857 177.427 367.261 176.273 368.069 175.35 C 368.876 174.427 370.03 173.965 371.242 173.965 L 386.129 173.908 C 388.494 173.908 390.399 175.754 390.514 178.12 L 392.533 219.722 C 392.591 220.933 392.187 222.087 391.379 222.953 C 390.572 223.818 389.475 224.338 388.264 224.338 L 373.954 224.684 H 373.896 Z M 386.186 174.831 L 371.242 174.889 C 370.261 174.889 369.338 175.293 368.703 175.985 C 368.011 176.677 367.722 177.658 367.78 178.581 L 370.377 220.472 C 370.492 222.376 372.05 223.818 373.954 223.761 L 388.264 223.414 C 389.245 223.414 390.11 223.01 390.745 222.318 C 391.379 221.626 391.726 220.702 391.668 219.722 L 389.648 178.12 C 389.591 176.273 388.033 174.831 386.186 174.831 Z" stroke-linecap="round"/>
</g>
		<g transform="matrix(1 0 0 1 96.8785 -109.6875)" id="Vector_22">
<path style="stroke: none; stroke-width: 1; stroke-dasharray: none; stroke-linecap: butt; stroke-dashoffset: 0; stroke-linejoin: miter; stroke-miterlimit: 4; is-custom-font: none; font-file-url: none; fill: rgb(0,0,0); fill-rule: nonzero; opacity: 1;" transform=" translate(-385.3785, -178.8125)" d="M 385.379 180.082 C 386.08 180.082 386.648 179.513 386.648 178.812 C 386.648 178.111 386.08 177.543 385.379 177.543 C 384.678 177.543 384.109 178.111 384.109 178.812 C 384.109 179.513 384.678 180.082 385.379 180.082 Z" stroke-linecap="round"/>
</g>
		<g transform="matrix(1 0 0 1 101.9294 -82.7652)" id="Vector_23">
<path style="stroke: none; stroke-width: 1; stroke-dasharray: none; stroke-linecap: butt; stroke-dashoffset: 0; stroke-linejoin: miter; stroke-miterlimit: 4; is-custom-font: none; font-file-url: none; fill: rgb(253,166,200); fill-rule: nonzero; opacity: 1;" transform=" translate(-390.4294, -205.7349)" d="M 385.955 191.449 C 384.975 193.468 387.225 195.199 387.225 195.199 C 387.225 195.199 384.859 195.43 384.917 197.334 C 384.974 199.238 386.59 200.277 386.59 200.277 C 386.59 200.277 384.974 200.104 384.628 201.777 C 384.34 203.508 385.609 204.777 385.609 204.777 C 385.609 204.777 384.109 204.95 384.455 207.201 C 384.801 209.451 389.591 212.913 391.783 212.509 L 392.36 220.876 C 392.36 220.876 394.726 212.394 394.726 212.047 C 394.726 211.701 395.88 210.893 395.245 208.643 C 395.245 208.643 397.38 206.854 395.591 203.912 C 395.591 203.912 397.611 203.219 395.476 199.238 C 395.476 199.238 397.322 198.95 395.822 194.737 C 394.437 190.641 386.821 189.66 385.955 191.449 Z" stroke-linecap="round"/>
</g>
		<g transform="matrix(1 0 0 1 7.222 58.411)" id="Vector_24">
<path style="stroke: none; stroke-width: 1; stroke-dasharray: none; stroke-linecap: butt; stroke-dashoffset: 0; stroke-linejoin: miter; stroke-miterlimit: 4; is-custom-font: none; font-file-url: none; fill: rgb(220,55,1); fill-rule: nonzero; opacity: 1;" transform=" translate(-295.722, -346.9109)" d="M 393.63 435.116 C 387.514 440.309 380.705 444.521 373.435 447.983 C 332.525 467.37 277.941 462.408 264.555 462.408 C 123.248 446.713 178.409 283.999 229.127 243.321 C 234.262 239.224 239.34 236.339 244.187 235.012 C 296.809 220.414 312.215 248.86 312.215 248.86 L 409.382 340.661 C 409.382 340.603 433.962 400.957 393.63 435.116 Z" stroke-linecap="round"/>
</g>
		<g transform="matrix(1 0 0 1 -14.4601 64.6489)" id="Vector_25">
<linearGradient id="SVGID_847" gradientUnits="userSpaceOnUse" gradientTransform="matrix(1 0 0 1 0 0)" x1="186.26" y1="386.288" x2="275.266" y2="355.117">
<stop offset="9.32746%" style="stop-color:rgb(255,132,21);stop-opacity: 1"/>
<stop offset="100%" style="stop-color:rgb(220,55,1);stop-opacity: 1"/>
</linearGradient>
<path style="stroke: none; stroke-width: 1; stroke-dasharray: none; stroke-linecap: butt; stroke-dashoffset: 0; stroke-linejoin: miter; stroke-miterlimit: 4; is-custom-font: none; font-file-url: none; fill: url(#SVGID_847); fill-rule: nonzero; opacity: 1;" transform=" translate(-274.0399, -353.1489)" d="M 373.435 447.983 C 332.525 467.37 277.941 462.408 264.555 462.408 C 123.248 446.713 178.409 283.999 229.127 243.321 C 235.243 245.398 242.283 249.668 247.591 258.381 C 259.304 277.71 288.731 374.704 288.731 374.704 C 288.731 374.704 296.982 388.206 304.137 403.208 C 310.83 417.344 333.16 451.041 373.435 447.983 Z" stroke-linecap="round"/>
</g>
		<g transform="matrix(1 0 0 1 14.425 -1.327)" id="Vector_26">
<path style="stroke: none; stroke-width: 1; stroke-dasharray: none; stroke-linecap: butt; stroke-dashoffset: 0; stroke-linejoin: miter; stroke-miterlimit: 4; is-custom-font: none; font-file-url: none; fill: rgb(64,83,242); fill-rule: nonzero; opacity: 1;" transform=" translate(-302.925, -287.173)" d="M 221.741 336.564 L 240.667 262.362 C 240.667 262.362 241.475 257.746 247.995 254.63 C 254.573 251.457 282.557 237.782 282.557 237.782 H 301.021 C 301.021 237.782 308.522 243.321 311.003 245.802 C 311.003 245.802 332.468 245.975 334.372 256.707 L 371.357 283.999 L 384.109 315.042 L 221.741 336.564 Z" stroke-linecap="round"/>
</g>
		<g transform="matrix(1 0 0 1 -58.5377 45.498)" id="Vector_27">
<path style="stroke: none; stroke-width: 1; stroke-dasharray: none; stroke-linecap: butt; stroke-dashoffset: 0; stroke-linejoin: miter; stroke-miterlimit: 4; is-custom-font: none; font-file-url: none; fill: rgb(59,0,191); fill-rule: nonzero; opacity: 1;" transform=" translate(-229.9623, -333.9981)" d="M 213.664 350.412 C 213.664 350.412 212.625 331.89 213.087 329.352 C 213.548 326.813 222.607 319.369 234.839 317.754 C 247.072 316.138 246.956 326.582 246.956 326.582 L 213.664 350.412 Z" stroke-linecap="round"/>
</g>
		<g transform="matrix(1 0 0 1 2.8855 -39.9285)" id="Vector_28">
<path style="stroke: none; stroke-width: 1; stroke-dasharray: none; stroke-linecap: butt; stroke-dashoffset: 0; stroke-linejoin: miter; stroke-miterlimit: 4; is-custom-font: none; font-file-url: none; fill: rgb(253,178,208); fill-rule: nonzero; opacity: 1;" transform=" translate(-291.3855, -248.5715)" d="M 299.867 239.34 C 300.444 244.244 302.233 256.361 302.233 261.381 C 302.233 266.285 297.848 278.922 295.771 280.364 C 295.713 280.422 295.655 280.422 295.597 280.48 C 295.597 280.48 284.634 276.268 283.192 249.149 C 282.211 231.031 281.115 223.01 280.538 219.664 C 280.249 217.991 280.076 217.471 280.076 217.471 L 290.231 216.663 L 302.695 232.819 C 302.637 232.877 299.29 234.435 299.867 239.34 Z" stroke-linecap="round"/>
</g>
		<g transform="matrix(1 0 0 1 -0.346 -38.5435)" id="Vector_29">
<path style="stroke: none; stroke-width: 1; stroke-dasharray: none; stroke-linecap: butt; stroke-dashoffset: 0; stroke-linejoin: miter; stroke-miterlimit: 4; is-custom-font: none; font-file-url: none; fill: rgb(224,121,168); fill-rule: nonzero; opacity: 1;" transform=" translate(-288.154, -249.9565)" d="M 295.77 280.364 C 295.713 280.422 295.655 280.422 295.597 280.48 C 295.597 280.48 284.634 276.268 283.192 249.149 C 282.211 231.031 281.115 223.01 280.538 219.664 L 281.692 219.433 L 289.885 224.453 C 289.885 224.453 289.077 244.648 289.885 257.457 C 290.404 265.766 293.578 274.998 295.77 280.364 Z" stroke-linecap="round"/>
</g>
		<g transform="matrix(1 0 0 1 -23.1948 46.4633)" id="Vector_30">
<path style="stroke: none; stroke-width: 1; stroke-dasharray: none; stroke-linecap: butt; stroke-dashoffset: 0; stroke-linejoin: miter; stroke-miterlimit: 4; is-custom-font: none; font-file-url: none; fill: rgb(253,166,200); fill-rule: nonzero; opacity: 1;" transform=" translate(-265.3052, -334.9633)" d="M 302.175 311.349 C 302.175 311.349 234.147 323.697 219.722 339.449 C 205.297 355.201 217.933 358.779 235.012 358.605 C 252.091 358.432 298.424 320.12 298.424 320.12 L 309.734 322.658 L 317.177 316.542 C 317.177 316.542 304.945 310.83 302.175 311.349 Z" stroke-linecap="round"/>
</g>
		<g transform="matrix(1 0 0 1 53.3145 40.0725)" id="Vector_31">
<path style="stroke: none; stroke-width: 1; stroke-dasharray: none; stroke-linecap: butt; stroke-dashoffset: 0; stroke-linejoin: miter; stroke-miterlimit: 4; is-custom-font: none; font-file-url: none; fill: rgb(5,5,5); fill-rule: nonzero; opacity: 1;" transform=" translate(-341.8145, -328.5725)" d="M 318.735 315.388 L 286.711 340.199 L 376.146 341.757 L 396.918 315.388 H 318.735 Z" stroke-linecap="round"/>
</g>
		<g transform="matrix(1 0 0 1 74.8461 -4.5674)" id="Vector_32">
<path style="stroke: none; stroke-width: 1; stroke-dasharray: none; stroke-linecap: butt; stroke-dashoffset: 0; stroke-linejoin: miter; stroke-miterlimit: 4; is-custom-font: none; font-file-url: none; fill: rgb(194,211,255); fill-rule: nonzero; opacity: 1;" transform=" translate(-363.3461, -283.9325)" d="M 407.881 261.439 L 396.918 315.388 H 318.735 C 318.735 315.388 327.505 266.978 328.544 259.131 C 329.582 251.283 333.852 252.553 333.852 252.553 C 333.852 252.553 339.276 252.726 347.123 252.899 C 366.337 253.418 400.092 254.342 403.785 254.342 C 408.862 254.342 407.881 261.439 407.881 261.439 Z" stroke-linecap="round"/>
</g>
		<g transform="matrix(1 0 0 1 72.298 -4.6502)" id="Vector_33">
<path style="stroke: none; stroke-width: 1; stroke-dasharray: none; stroke-linecap: butt; stroke-dashoffset: 0; stroke-linejoin: miter; stroke-miterlimit: 4; is-custom-font: none; font-file-url: none; fill: rgb(215,227,255); fill-rule: nonzero; opacity: 1;" transform=" translate(-360.798, -283.8497)" d="M 328.371 260.112 L 318.735 315.388 H 340.949 L 402.861 254.342 C 382.84 254.168 337.66 252.149 334.025 252.322 C 328.255 252.495 328.371 260.112 328.371 260.112 Z" stroke-linecap="round"/>
</g>
		<g transform="matrix(1 0 0 1 76.7139 -1.3504)" id="Vector_34">
<path style="stroke: none; stroke-width: 1; stroke-dasharray: none; stroke-linecap: butt; stroke-dashoffset: 0; stroke-linejoin: miter; stroke-miterlimit: 4; is-custom-font: none; font-file-url: none; fill: rgb(245,249,255); fill-rule: nonzero; opacity: 1;" transform=" translate(-365.2139, -287.1496)" d="M 370.481 287.812 C 370.902 284.461 368.886 281.447 365.977 281.081 C 363.068 280.716 360.368 283.136 359.947 286.487 C 359.525 289.839 361.542 292.853 364.451 293.218 C 367.359 293.584 370.059 291.164 370.481 287.812 Z" stroke-linecap="round"/>
</g>
		<g transform="matrix(1 0 0 1 108.817 98.6832)" id="Vector_35">
<path style="stroke: none; stroke-width: 1; stroke-dasharray: none; stroke-linecap: butt; stroke-dashoffset: 0; stroke-linejoin: miter; stroke-miterlimit: 4; is-custom-font: none; font-file-url: none; fill: rgb(16,15,81); fill-rule: nonzero; opacity: 1;" transform=" translate(-397.317, -387.1832)" d="M 444.521 319.6 C 444.521 324.043 444.29 384.224 424.326 410.074 C 414.748 429.403 399.053 462.004 397.438 470.717 C 397.322 471.236 397.322 471.64 397.322 471.986 C 397.322 471.986 392.014 471.236 391.264 473.486 C 391.264 473.486 378.454 458.946 367.607 459.177 C 367.607 459.177 387.513 436.27 390.629 413.247 C 393.745 390.167 395.707 356.644 400.38 346.027 C 400.38 346.027 362.875 352.951 356.99 356.355 L 349.604 340.084 C 349.604 340.084 349.662 340.026 349.835 339.853 C 353.413 336.449 397.842 294.962 441.809 301.598 C 446.771 309.734 444.521 315.157 444.521 319.6 Z" stroke-linecap="round"/>
</g>
		<g transform="matrix(1 0 0 1 94.0225 173.648)" id="Vector_36">
<path style="stroke: none; stroke-width: 1; stroke-dasharray: none; stroke-linecap: butt; stroke-dashoffset: 0; stroke-linejoin: miter; stroke-miterlimit: 4; is-custom-font: none; font-file-url: none; fill: rgb(253,178,208); fill-rule: nonzero; opacity: 1;" transform=" translate(-382.5225, -462.148)" d="M 397.438 470.717 C 397.322 471.236 397.322 471.64 397.322 471.986 C 397.322 471.986 392.014 471.236 391.264 473.486 C 391.264 473.486 378.455 458.946 367.607 459.177 C 367.607 459.177 370.377 456.003 374.012 450.81 C 376.089 452.368 378.166 453.868 380.243 455.195 C 385.782 458.83 391.149 462.523 396.168 465.985 C 396.63 467.658 397.034 469.274 397.438 470.717 Z" stroke-linecap="round"/>
</g>
		<g transform="matrix(1 0 0 1 101.2485 99.3753)" id="Vector_37">
<path style="stroke: none; stroke-width: 1; stroke-dasharray: none; stroke-linecap: butt; stroke-dashoffset: 0; stroke-linejoin: miter; stroke-miterlimit: 4; is-custom-font: none; font-file-url: none; fill: rgb(0,0,0); fill-rule: nonzero; opacity: 1;" transform=" translate(-389.7485, -387.8753)" d="M 393.687 447.175 C 393.399 452.887 394.726 460.042 396.168 465.927 C 391.148 462.465 385.782 458.773 380.243 455.138 C 378.224 453.81 376.146 452.31 374.012 450.752 C 376.608 447.06 379.608 442.386 382.378 437.135 C 386.186 429.923 389.533 421.556 390.629 413.19 C 393.745 390.11 395.707 356.586 400.38 345.969 C 400.38 345.969 362.875 352.893 356.99 356.297 L 349.604 340.026 C 349.604 340.026 349.662 339.968 349.835 339.795 C 367.145 332.179 424.73 307.022 428.423 310.08 C 432.75 313.657 426.288 326.178 424.845 332.641 C 423.403 339.103 400.15 431.134 395.13 440.77 C 394.264 442.501 393.803 444.694 393.687 447.175 Z" stroke-linecap="round"/>
</g>
		<g transform="matrix(1 0 0 1 36.5656 108.0674)" id="Vector_38">
<path style="stroke: none; stroke-width: 1; stroke-dasharray: none; stroke-linecap: butt; stroke-dashoffset: 0; stroke-linejoin: miter; stroke-miterlimit: 4; is-custom-font: none; font-file-url: none; fill: rgb(22,22,104); fill-rule: nonzero; opacity: 1;" transform=" translate(-325.0657, -396.5674)" d="M 416.248 448.214 C 408.286 456.638 404.477 465.928 402.862 470.659 C 396.226 465.928 388.321 460.504 380.243 455.195 C 359.01 441.232 334.199 413.132 325.89 400.957 C 317.581 388.783 319.485 359.529 319.485 359.529 C 319.485 359.529 322.486 357.451 293.809 372.338 C 265.132 387.167 245.976 378.858 236.628 366.51 C 235.589 365.126 234.897 363.856 234.435 362.587 C 230.973 352.662 244.937 346.892 244.937 346.892 C 283.481 326.236 296.751 326.697 324.736 322.774 C 352.721 318.793 359.241 355.663 366.511 374.3 C 372.165 388.956 403.323 431.077 416.248 448.214 Z" stroke-linecap="round"/>
</g>
		<g transform="matrix(1 0 0 1 32.7455 111.5183)" id="Vector_39">
<path style="stroke: none; stroke-width: 1; stroke-dasharray: none; stroke-linecap: butt; stroke-dashoffset: 0; stroke-linejoin: miter; stroke-miterlimit: 4; is-custom-font: none; font-file-url: none; fill: rgb(0,0,0); fill-rule: nonzero; opacity: 1;" transform=" translate(-321.2455, -400.0183)" d="M 408.113 459.177 C 405.401 463.793 403.785 467.947 402.862 470.659 C 400.727 469.159 398.477 467.601 396.169 465.927 C 391.149 462.465 385.783 458.773 380.244 455.138 C 378.224 453.81 376.147 452.31 374.012 450.752 C 354.336 435.923 333.391 411.92 325.832 400.957 C 317.524 388.783 319.428 359.529 319.428 359.529 C 319.428 359.529 322.428 357.451 293.751 372.338 C 265.074 387.167 245.918 378.858 236.571 366.51 C 235.532 365.126 234.84 363.856 234.378 362.587 C 252.034 354.74 298.136 334.314 305.926 332.006 C 315.62 329.121 331.372 324.505 336.392 344.18 C 341.411 363.856 341.815 387.917 351.451 406.843 C 353.817 411.459 367.088 423.287 382.378 437.135 C 386.014 440.424 389.822 443.771 393.688 447.175 C 398.419 451.214 403.266 455.311 408.113 459.177 Z" stroke-linecap="round"/>
</g>
		<g transform="matrix(1 0 0 1 163.0012 168.859)" id="Vector_40">
<path style="stroke: none; stroke-width: 1; stroke-dasharray: none; stroke-linecap: butt; stroke-dashoffset: 0; stroke-linejoin: miter; stroke-miterlimit: 4; is-custom-font: none; font-file-url: none; fill: rgb(254,254,254); fill-rule: nonzero; opacity: 1;" transform=" translate(-451.5012, -457.359)" d="M 441.117 498.355 C 439.386 498.355 437.713 496.855 436.212 495.528 C 435.924 495.297 435.693 495.066 435.405 494.835 C 434.77 494.316 434.308 493.97 433.904 493.739 C 432.173 492.816 422.538 484.795 417.46 480.526 L 422.538 457.561 L 480.353 416.363 C 480.411 416.363 480.584 416.363 480.584 416.363 C 482.546 416.363 483.757 416.825 484.507 417.748 C 486.527 420.229 485.315 426.98 483.238 437.02 C 480.18 451.964 472.044 463.1 467.717 469.101 C 467.428 469.505 467.14 469.909 466.851 470.255 C 463.043 475.621 443.54 496.624 442.098 498.124 C 441.809 498.297 441.463 498.355 441.117 498.355 Z" stroke-linecap="round"/>
</g>
		<g transform="matrix(1 0 0 1 162.9926 168.8595)" id="Vector_41">
<path style="stroke: none; stroke-width: 1; stroke-dasharray: none; stroke-linecap: butt; stroke-dashoffset: 0; stroke-linejoin: miter; stroke-miterlimit: 4; is-custom-font: none; font-file-url: none; fill: rgb(0,0,0); fill-rule: nonzero; opacity: 1;" transform=" translate(-451.4926, -457.3595)" d="M 480.641 416.883 C 482.949 416.883 483.757 417.575 484.161 418.037 C 486.008 420.345 484.796 426.98 482.776 436.847 C 479.718 451.676 471.698 462.754 467.37 468.697 C 467.082 469.101 466.793 469.505 466.505 469.851 C 462.754 475.044 443.887 495.412 441.867 497.605 C 441.636 497.72 441.348 497.72 441.117 497.72 C 439.617 497.72 438.001 496.278 436.616 495.008 C 436.328 494.778 436.097 494.547 435.809 494.316 C 435.174 493.739 434.655 493.393 434.193 493.162 C 432.635 492.354 423.922 485.142 418.152 480.237 L 423.115 457.85 L 480.641 416.883 C 480.584 416.883 480.584 416.883 480.641 416.883 Z M 480.641 415.729 C 480.526 415.729 480.353 415.729 480.18 415.729 L 422.018 457.157 L 416.768 480.699 C 416.768 480.699 431.25 492.989 433.558 494.258 C 434.02 494.489 434.481 494.835 435.001 495.297 C 436.732 496.797 438.809 498.99 441.059 498.99 C 441.521 498.99 442.04 498.874 442.502 498.643 C 442.502 498.643 463.331 476.198 467.37 470.601 C 471.409 465.004 480.526 453.234 483.873 437.135 C 487.162 421.325 487.739 415.786 480.641 415.729 Z" stroke-linecap="round"/>
</g>
		<g transform="matrix(1 0 0 1 160.5119 166.955)" id="Vector_42">
<path style="stroke: none; stroke-width: 1; stroke-dasharray: none; stroke-linecap: butt; stroke-dashoffset: 0; stroke-linejoin: miter; stroke-miterlimit: 4; is-custom-font: none; font-file-url: none; fill: rgb(2,0,1); fill-rule: nonzero; opacity: 1;" transform=" translate(-449.0119, -455.455)" d="M 435.001 495.239 C 434.482 494.777 434.02 494.431 433.558 494.2 C 431.25 492.989 416.768 480.641 416.768 480.641 L 422.018 457.099 L 480.18 415.671 C 480.353 415.671 480.468 415.671 480.641 415.671 C 486.931 448.444 443.079 488.315 435.001 495.239 Z" stroke-linecap="round"/>
</g>
		<g transform="matrix(1 0 0 1 103.381 202.3854)" id="Vector_43">
<path style="stroke: none; stroke-width: 1; stroke-dasharray: none; stroke-linecap: butt; stroke-dashoffset: 0; stroke-linejoin: miter; stroke-miterlimit: 4; is-custom-font: none; font-file-url: none; fill: rgb(2,0,1); fill-rule: nonzero; opacity: 1;" transform=" translate(-391.881, -490.8854)" d="M 428.307 519.992 C 403.727 537.706 369.165 497.72 359.875 483.988 C 354.163 475.506 354.509 471.121 355.605 468.986 C 356.298 467.659 357.279 467.255 357.279 467.255 L 369.165 457.33 L 397.38 471.928 C 400.438 487.45 420.518 505.221 420.518 505.221 C 422.71 506.664 424.384 508.279 425.653 509.895 C 428.769 513.876 429.404 517.858 428.307 519.992 Z" stroke-linecap="round"/>
</g>
		<g transform="matrix(1 0 0 1 103.381 208.0892)" id="Vector_44">
<path style="stroke: rgb(0,0,0); stroke-width: 2; stroke-dasharray: none; stroke-linecap: butt; stroke-dashoffset: 0; stroke-linejoin: miter; stroke-miterlimit: 10; is-custom-font: none; font-file-url: none; fill: rgb(254,254,254); fill-rule: nonzero; opacity: 1;" transform=" translate(-391.881, -496.5892)" d="M 428.307 519.992 C 403.727 537.706 369.165 497.72 359.875 483.988 C 354.163 475.506 354.509 471.12 355.605 468.986 C 359.413 468.351 364.549 468.639 367.78 473.428 C 373.55 481.968 378.628 492.296 391.091 497.028 C 400.554 500.605 416.94 505.106 425.653 509.895 C 428.769 513.876 429.404 517.858 428.307 519.992 Z" stroke-linecap="round"/>
</g>
		<g transform="matrix(1 0 0 1 -10.1255 -32.716)" id="Vector_45">
<path style="stroke: none; stroke-width: 1; stroke-dasharray: none; stroke-linecap: butt; stroke-dashoffset: 0; stroke-linejoin: miter; stroke-miterlimit: 4; is-custom-font: none; font-file-url: none; fill: rgb(59,0,191); fill-rule: nonzero; opacity: 1;" transform=" translate(-278.3745, -255.784)" d="M 270.671 242.802 C 270.671 242.802 268.075 243.494 268.075 248.11 C 268.075 252.726 268.075 272.402 268.075 272.402 C 268.075 272.402 272.46 262.073 277.538 259.881 C 278.807 259.881 281.346 259.996 281.577 264.035 C 281.807 268.074 284.404 273.267 288.674 273.844 L 282.384 237.724 L 270.671 242.802 Z" stroke-linecap="round"/>
</g>
		<g transform="matrix(1 0 0 1 18.0895 -35.5588)" id="Vector_46">
<path style="stroke: none; stroke-width: 1; stroke-dasharray: none; stroke-linecap: butt; stroke-dashoffset: 0; stroke-linejoin: miter; stroke-miterlimit: 4; is-custom-font: none; font-file-url: none; fill: rgb(59,0,191); fill-rule: nonzero; opacity: 1;" transform=" translate(-306.5895, -252.9411)" d="M 299.81 237.262 C 299.81 237.262 302.579 236.57 303.272 239.051 C 303.964 241.532 306.734 249.264 309.561 252.668 C 312.388 256.073 313.369 257.63 313.369 257.63 C 313.369 257.63 310.08 256.707 307.83 253.822 C 307.83 253.822 306.157 254.63 306.56 256.765 C 306.964 258.9 305.349 268.709 300.964 268.709 L 299.81 237.262 Z" stroke-linecap="round"/>
</g>
		<g transform="matrix(1 0 0 1 27.927 -89.493)" id="Vector_47">
<path style="stroke: rgb(89,17,170); stroke-width: 1.7093; stroke-dasharray: none; stroke-linecap: butt; stroke-dashoffset: 0; stroke-linejoin: miter; stroke-miterlimit: 10; is-custom-font: none; font-file-url: none; fill: none; fill-rule: nonzero; opacity: 1;" transform=" translate(-316.427, -199.007)" d="M 316.427 206.277 C 318.944 206.277 320.985 203.022 320.985 199.007 C 320.985 194.992 318.944 191.737 316.427 191.737 C 313.909 191.737 311.869 194.992 311.869 199.007 C 311.869 203.022 313.909 206.277 316.427 206.277 Z" stroke-linecap="round"/>
</g>
		<g transform="matrix(1 0 0 1 9.537 -81.8458)" id="Vector_48">
<path style="stroke: none; stroke-width: 1; stroke-dasharray: none; stroke-linecap: butt; stroke-dashoffset: 0; stroke-linejoin: miter; stroke-miterlimit: 4; is-custom-font: none; font-file-url: none; fill: rgb(253,178,208); fill-rule: nonzero; opacity: 1;" transform=" translate(-298.0369, -206.6542)" d="M 318.793 208.066 L 320.062 229.531 C 317.812 231.492 315.504 232.762 313.08 233.454 C 298.54 237.666 282.615 221.395 282.615 221.395 C 278.056 227.165 274.825 224.395 272.171 218.106 C 269.517 211.817 273.614 207.316 273.614 207.316 L 274.191 184.351 L 298.482 180.659 L 308.464 179.158 C 314.35 182.62 316.081 198.546 316.081 198.546 C 316.081 198.546 325.024 200.392 324.793 203.104 C 324.563 205.874 318.793 208.066 318.793 208.066 Z" stroke-linecap="round"/>
</g>
		<g transform="matrix(1 0 0 1 3.7363 -81.0953)" id="Vector_49">
<path style="stroke: none; stroke-width: 1; stroke-dasharray: none; stroke-linecap: butt; stroke-dashoffset: 0; stroke-linejoin: miter; stroke-miterlimit: 4; is-custom-font: none; font-file-url: none; fill: rgb(255,132,179); fill-rule: nonzero; opacity: 1;" transform=" translate(-292.2362, -207.4047)" d="M 313.138 233.454 C 298.598 237.666 282.673 221.395 282.673 221.395 C 278.115 227.165 274.883 224.395 272.229 218.106 C 269.575 211.817 273.672 207.316 273.672 207.316 L 274.249 184.351 L 298.54 180.659 C 296.059 182.678 293.001 185.967 293.347 189.314 C 293.924 194.911 294.674 218.164 299.694 223.299 C 303.214 226.934 308.58 231.204 313.138 233.454 Z" stroke-linecap="round"/>
</g>
		<g transform="matrix(1 0 0 1 26.9132 -97.6826)" id="Vector_50">
<path style="stroke: none; stroke-width: 1; stroke-dasharray: none; stroke-linecap: butt; stroke-dashoffset: 0; stroke-linejoin: miter; stroke-miterlimit: 4; is-custom-font: none; font-file-url: none; fill: rgb(26,19,126); fill-rule: nonzero; opacity: 1;" transform=" translate(-315.4132, -190.8173)" d="M 314.465 189.256 C 311.869 190.41 311.522 191.795 312.849 192.833 C 314.984 191.391 315.908 190.872 317.696 191.102 C 319.485 191.333 318.504 189.314 318.1 189.198 C 317.696 189.083 316.6 188.333 314.465 189.256 Z" stroke-linecap="round"/>
</g>
		<g transform="matrix(1 0 0 1 4.3391 -105.0014)" id="Vector_51">
<path style="stroke: none; stroke-width: 1; stroke-dasharray: none; stroke-linecap: butt; stroke-dashoffset: 0; stroke-linejoin: miter; stroke-miterlimit: 4; is-custom-font: none; font-file-url: none; fill: rgb(26,19,126); fill-rule: nonzero; opacity: 1;" transform=" translate(-292.8391, -183.4985)" d="M 272.979 214.644 C 272.979 214.644 259.419 207.951 260.285 194.218 C 261.093 180.486 272.171 176.562 272.171 176.562 C 272.171 176.562 270.498 162.137 282.615 160.117 C 294.674 158.098 296.867 161.502 296.867 161.502 C 296.867 161.502 303.791 157.636 305.81 154.809 C 307.83 151.982 320.466 150.135 323.466 157.752 C 326.467 165.368 328.948 178.581 307.657 180.774 C 286.365 182.967 282.153 187.294 282.153 187.294 C 282.153 187.294 294.789 185.909 294.847 191.333 C 294.963 196.757 287.808 199.642 287.808 199.642 C 287.808 199.642 286.596 202.642 288.385 204.2 C 290.116 205.758 292.135 209.393 289.827 210.893 C 287.519 212.394 284.057 213.548 281.403 211.009 C 278.749 208.412 272.979 214.644 272.979 214.644 Z" stroke-linecap="round"/>
</g>
		<g transform="matrix(1 0 0 1 15.7213 -96.0872)" id="Vector_52">
<path style="stroke: none; stroke-width: 1; stroke-dasharray: none; stroke-linecap: butt; stroke-dashoffset: 0; stroke-linejoin: miter; stroke-miterlimit: 4; is-custom-font: none; font-file-url: none; fill: rgb(26,19,126); fill-rule: nonzero; opacity: 1;" transform=" translate(-304.2213, -192.4128)" d="M 302.348 190.352 C 299.348 192.891 299.406 195.026 301.54 196.007 C 303.791 193.18 304.829 192.083 307.253 191.737 C 309.676 191.391 307.714 188.91 307.137 188.91 C 306.56 188.91 304.829 188.275 302.348 190.352 Z" stroke-linecap="round"/>
</g>
		<g transform="matrix(1 0 0 1 19.503 -73.4041)" id="Vector_53">
<path style="stroke: rgb(26,19,126); stroke-width: 2; stroke-dasharray: none; stroke-linecap: round; stroke-dashoffset: 0; stroke-linejoin: round; stroke-miterlimit: 10; is-custom-font: none; font-file-url: none; fill: none; fill-rule: nonzero; opacity: 1;" transform=" translate(-308.003, -215.0958)" d="M 304.195 214.644 C 304.195 214.644 308.176 212.74 311.811 216.087" stroke-linecap="round"/>
</g>
		<g transform="matrix(1 0 0 1 5.337 -85.656)" id="Vector_54">
<path style="stroke: rgb(89,17,170); stroke-width: 2; stroke-dasharray: none; stroke-linecap: butt; stroke-dashoffset: 0; stroke-linejoin: miter; stroke-miterlimit: 10; is-custom-font: none; font-file-url: none; fill: none; fill-rule: nonzero; opacity: 1;" transform=" translate(-293.837, -202.844)" d="M 286.711 205.758 L 300.963 199.93" stroke-linecap="round"/>
</g>
		<g transform="matrix(1 0 0 1 26.2535 -90.8485)" id="Vector_55">
<path style="stroke: rgb(89,17,170); stroke-width: 2; stroke-dasharray: none; stroke-linecap: butt; stroke-dashoffset: 0; stroke-linejoin: miter; stroke-miterlimit: 10; is-custom-font: none; font-file-url: none; fill: none; fill-rule: nonzero; opacity: 1;" transform=" translate(-314.7535, -197.6515)" d="M 313.484 197.796 L 316.023 197.507" stroke-linecap="round"/>
</g>
		<g transform="matrix(1 0 0 1 18.7525 -89.493)" id="Vector_56">
<path style="stroke: rgb(89,17,170); stroke-width: 2; stroke-dasharray: none; stroke-linecap: butt; stroke-dashoffset: 0; stroke-linejoin: miter; stroke-miterlimit: 10; is-custom-font: none; font-file-url: none; fill: none; fill-rule: nonzero; opacity: 1;" transform=" translate(-307.2525, -199.007)" d="M 307.253 206.277 C 310.726 206.277 313.542 203.022 313.542 199.007 C 313.542 194.992 310.726 191.737 307.253 191.737 C 303.779 191.737 300.963 194.992 300.963 199.007 C 300.963 203.022 303.779 206.277 307.253 206.277 Z" stroke-linecap="round"/>
</g>
		<g transform="matrix(1 0 0 1 18.5803 -88.394)" id="Vector_57">
<path style="stroke: none; stroke-width: 1; stroke-dasharray: none; stroke-linecap: butt; stroke-dashoffset: 0; stroke-linejoin: miter; stroke-miterlimit: 4; is-custom-font: none; font-file-url: none; fill: rgb(26,19,126); fill-rule: nonzero; opacity: 1;" transform=" translate(-307.0803, -200.106)" d="M 307.492 202.845 C 307.996 202.769 308.221 201.481 307.993 199.969 C 307.766 198.456 307.173 197.291 306.669 197.367 C 306.165 197.443 305.94 198.731 306.167 200.243 C 306.395 201.756 306.988 202.921 307.492 202.845 Z" stroke-linecap="round"/>
</g>
		<g transform="matrix(1 0 0 1 -36.6105 13.127)" id="Vector_58">
<path style="stroke: rgb(59,0,191); stroke-width: 3; stroke-dasharray: none; stroke-linecap: round; stroke-dashoffset: 0; stroke-linejoin: miter; stroke-miterlimit: 10; is-custom-font: none; font-file-url: none; fill: none; fill-rule: nonzero; opacity: 1;" transform=" translate(-251.8895, -301.627)" d="M 249.091 322.428 L 254.688 280.826" stroke-linecap="round"/>
</g>
		<g transform="matrix(1 0 0 1 -32.081 -0.058)" id="Vector_59">
<path style="stroke: rgb(59,0,191); stroke-width: 3; stroke-dasharray: none; stroke-linecap: round; stroke-dashoffset: 0; stroke-linejoin: miter; stroke-miterlimit: 10; is-custom-font: none; font-file-url: none; fill: none; fill-rule: nonzero; opacity: 1;" transform=" translate(-256.419, -288.442)" d="M 259.939 283.076 L 252.899 293.808" stroke-linecap="round"/>
</g>
		<g transform="matrix(1 0 0 1 15.667 9.0875)" id="Vector_60">
<path style="stroke: rgb(59,0,191); stroke-width: 3; stroke-dasharray: none; stroke-linecap: round; stroke-dashoffset: 0; stroke-linejoin: miter; stroke-miterlimit: 10; is-custom-font: none; font-file-url: none; fill: none; fill-rule: nonzero; opacity: 1;" transform=" translate(-304.167, -297.5875)" d="M 298.079 283.076 L 296.694 292.135 C 296.694 292.135 304.714 293.001 300.329 298.251 C 300.329 298.251 311.811 303.329 311.638 312.099" stroke-linecap="round"/>
</g>
		<g transform="matrix(1 0 0 1 127.142 183.255)" id="Vector_61">
<path style="stroke: none; stroke-width: 1; stroke-dasharray: none; stroke-linecap: butt; stroke-dashoffset: 0; stroke-linejoin: miter; stroke-miterlimit: 4; is-custom-font: none; font-file-url: none; fill: rgb(255,132,179); fill-rule: nonzero; opacity: 1;" transform=" translate(-415.642, -471.755)" d="M 428.307 473.89 L 421.095 484.276 C 421.095 484.276 418.268 481.737 413.363 478.16 C 412.959 477.871 412.555 477.583 412.151 477.294 C 409.497 475.39 406.381 473.14 402.977 470.717 C 403.843 468.005 405.516 463.85 408.228 459.234 C 414.979 464.658 421.845 469.678 428.307 473.89 Z" stroke-linecap="round"/>
</g>
		<g transform="matrix(1 0 0 1 131.614 172.523)" id="Vector_62">
<path style="stroke: none; stroke-width: 1; stroke-dasharray: none; stroke-linecap: butt; stroke-dashoffset: 0; stroke-linejoin: miter; stroke-miterlimit: 4; is-custom-font: none; font-file-url: none; fill: rgb(253,178,208); fill-rule: nonzero; opacity: 1;" transform=" translate(-420.114, -461.023)" d="M 432.116 468.351 L 428.307 473.832 C 421.903 469.678 415.036 464.6 408.112 459.119 C 410.132 455.599 412.844 451.791 416.248 448.214 C 419.71 452.772 421.845 455.599 421.845 455.599 L 424.788 455.195 C 421.672 463.216 432.116 468.351 432.116 468.351 Z" stroke-linecap="round"/>
</g>
		<g transform="matrix(1 0 0 1 -131.4249 145.058)" id="Vector_63">
<path style="stroke: none; stroke-width: 1; stroke-dasharray: none; stroke-linecap: butt; stroke-dashoffset: 0; stroke-linejoin: miter; stroke-miterlimit: 4; is-custom-font: none; font-file-url: none; fill: rgb(255,147,152); fill-rule: nonzero; opacity: 1;" transform=" translate(-157.0752, -433.558)" d="M 128.498 459.177 H 186.429 C 186.429 459.177 186.66 413.42 181.64 407.939 H 131.903 C 131.903 407.939 125.556 433.558 128.498 459.177 Z" stroke-linecap="round"/>
</g>
		<g transform="matrix(1 0 0 1 -126.8245 30.2925)" id="Vector_64">
<path style="stroke: rgb(0,0,0); stroke-width: 1.8226; stroke-dasharray: none; stroke-linecap: round; stroke-dashoffset: 0; stroke-linejoin: round; stroke-miterlimit: 10; is-custom-font: none; font-file-url: none; fill: none; fill-rule: nonzero; opacity: 1;" transform=" translate(-161.6755, -318.7925)" d="M 159.656 235.128 L 163.695 402.457" stroke-linecap="round"/>
</g>
		<g transform="matrix(1 0 0 1 -134.152 19.791)" id="Vector_65">
<path style="stroke: rgb(0,0,0); stroke-width: 1.8226; stroke-dasharray: none; stroke-linecap: round; stroke-dashoffset: 0; stroke-linejoin: round; stroke-miterlimit: 10; is-custom-font: none; font-file-url: none; fill: none; fill-rule: nonzero; opacity: 1;" transform=" translate(-154.348, -308.291)" d="M 149.501 214.125 L 159.195 402.457" stroke-linecap="round"/>
</g>
		<g transform="matrix(1 0 0 1 -147.9135 77.4045)" id="Vector_66">
<path style="stroke: rgb(0,0,0); stroke-width: 1.8226; stroke-dasharray: none; stroke-linecap: round; stroke-dashoffset: 0; stroke-linejoin: round; stroke-miterlimit: 10; is-custom-font: none; font-file-url: none; fill: none; fill-rule: nonzero; opacity: 1;" transform=" translate(-140.5865, -365.9045)" d="M 141.25 400.957 L 139.923 330.852" stroke-linecap="round"/>
</g>
		<g transform="matrix(1 0 0 1 -138.451 53.228)" id="Vector_67">
<path style="stroke: rgb(0,0,0); stroke-width: 1.8226; stroke-dasharray: none; stroke-linecap: round; stroke-dashoffset: 0; stroke-linejoin: round; stroke-miterlimit: 10; is-custom-font: none; font-file-url: none; fill: none; fill-rule: nonzero; opacity: 1;" transform=" translate(-150.049, -341.728)" d="M 149.501 280.999 L 150.597 402.457" stroke-linecap="round"/>
</g>
		<g transform="matrix(1 0 0 1 -149.4673 -10.2025)" id="Vector_68">
<path style="stroke: none; stroke-width: 1; stroke-dasharray: none; stroke-linecap: butt; stroke-dashoffset: 0; stroke-linejoin: miter; stroke-miterlimit: 4; is-custom-font: none; font-file-url: none; fill: rgb(48,61,115); fill-rule: nonzero; opacity: 1;" transform=" translate(-139.0327, -278.2975)" d="M 155.386 251.976 C 149.501 248.399 132.306 249.033 123.478 271.19 C 114.65 293.347 109.746 309.849 118.17 305.579 C 126.594 301.309 155.848 281.057 159.195 277.595 C 162.541 274.133 170.388 261.035 155.386 251.976 Z" stroke-linecap="round"/>
</g>
		<g transform="matrix(1 0 0 1 -146.1224 90.254)" id="Vector_69">
<path style="stroke: none; stroke-width: 1; stroke-dasharray: none; stroke-linecap: butt; stroke-dashoffset: 0; stroke-linejoin: miter; stroke-miterlimit: 4; is-custom-font: none; font-file-url: none; fill: rgb(48,61,115); fill-rule: nonzero; opacity: 1;" transform=" translate(-142.3776, -378.754)" d="M 154.348 354.278 C 138.365 342.853 116.496 349.2 118.17 391.841 C 119.843 434.481 195.718 383.878 154.348 354.278 Z" stroke-linecap="round"/>
</g>
		<g transform="matrix(1 0 0 1 -132.9115 118.4616)" id="Vector_70">
<path style="stroke: none; stroke-width: 1; stroke-dasharray: none; stroke-linecap: butt; stroke-dashoffset: 0; stroke-linejoin: miter; stroke-miterlimit: 4; is-custom-font: none; font-file-url: none; fill: rgb(255,177,178); fill-rule: nonzero; opacity: 1;" transform=" translate(-155.5885, -406.9616)" d="M 159.195 402.457 C 133.576 402.688 124.863 402.457 124.863 402.457 C 124.863 402.457 125.498 410.189 128.441 410.882 C 131.383 411.574 181.525 411.459 181.525 411.459 C 181.525 411.459 185.794 410.939 186.314 402.457 H 159.195 Z" stroke-linecap="round"/>
</g>
		<g transform="matrix(1 0 0 1 -162.6795 122.9275)" id="Vector_71">
<path style="stroke: none; stroke-width: 1; stroke-dasharray: none; stroke-linecap: butt; stroke-dashoffset: 0; stroke-linejoin: miter; stroke-miterlimit: 4; is-custom-font: none; font-file-url: none; fill: rgb(0,202,156); fill-rule: nonzero; opacity: 1;" transform=" translate(-125.8205, -411.4275)" d="M 143.154 380.185 C 131.672 375.8 116.67 378.512 107.553 400.323 C 98.4364 422.133 84.8769 456.234 110.323 440.366 C 135.768 424.499 148.001 419.594 152.674 409.208 C 157.348 398.822 159.194 386.359 143.154 380.185 Z" stroke-linecap="round"/>
</g>
		<g transform="matrix(1 0 0 1 -106.9094 79.8219)" id="Vector_72">
<path style="stroke: none; stroke-width: 1; stroke-dasharray: none; stroke-linecap: butt; stroke-dashoffset: 0; stroke-linejoin: miter; stroke-miterlimit: 4; is-custom-font: none; font-file-url: none; fill: rgb(0,202,156); fill-rule: nonzero; opacity: 1;" transform=" translate(-181.5906, -368.3219)" d="M 158.56 327.044 C 138.25 330.506 136.115 355.836 158.56 373.838 C 181.005 391.841 196.238 407.304 203.22 409.612 C 210.201 411.92 225.896 414.055 218.914 384.859 C 211.932 355.663 208.355 318.562 158.56 327.044 Z" stroke-linecap="round"/>
</g>
		<g transform="matrix(1 0 0 1 -165.039 39.3655)" id="Vector_73">
<path style="stroke: none; stroke-width: 1; stroke-dasharray: none; stroke-linecap: butt; stroke-dashoffset: 0; stroke-linejoin: miter; stroke-miterlimit: 4; is-custom-font: none; font-file-url: none; fill: rgb(0,202,156); fill-rule: nonzero; opacity: 1;" transform=" translate(-123.461, -327.8654)" d="M 142.519 296.347 C 129.191 285.038 109.4 300.386 102.649 320.927 C 95.8977 341.469 85.0501 377.07 109.63 357.567 C 134.211 338.064 170.331 319.831 142.519 296.347 Z" stroke-linecap="round"/>
</g>
		<g transform="matrix(1 0 0 1 -102.0692 -0.4432)" id="Vector_74">
<path style="stroke: none; stroke-width: 1; stroke-dasharray: none; stroke-linecap: butt; stroke-dashoffset: 0; stroke-linejoin: miter; stroke-miterlimit: 4; is-custom-font: none; font-file-url: none; fill: rgb(0,202,156); fill-rule: nonzero; opacity: 1;" transform=" translate(-186.4309, -288.0568)" d="M 163.234 261.785 C 143.904 271.421 150.943 291.673 167.907 298.828 C 184.871 306.041 226.473 328.255 220.703 310.888 C 214.933 293.578 194.392 246.379 163.234 261.785 Z" stroke-linecap="round"/>
</g>
		<g transform="matrix(1 0 0 1 -105.2635 -56.777)" id="Vector_75">
<path style="stroke: none; stroke-width: 1; stroke-dasharray: none; stroke-linecap: butt; stroke-dashoffset: 0; stroke-linejoin: miter; stroke-miterlimit: 4; is-custom-font: none; font-file-url: none; fill: rgb(0,202,156); fill-rule: nonzero; opacity: 1;" transform=" translate(-183.2365, -231.723)" d="M 157.117 232.993 C 156.54 218.798 171.023 216.49 181.64 218.568 C 192.257 220.702 212.394 226.184 208.99 231.262 C 205.585 236.339 186.89 241.878 181.64 243.782 C 176.389 245.744 157.752 249.322 157.117 232.993 Z" stroke-linecap="round"/>
</g>
		<g transform="matrix(1 0 0 1 -151.7241 -81.8259)" id="Vector_76">
<path style="stroke: none; stroke-width: 1; stroke-dasharray: none; stroke-linecap: butt; stroke-dashoffset: 0; stroke-linejoin: miter; stroke-miterlimit: 4; is-custom-font: none; font-file-url: none; fill: rgb(48,61,115); fill-rule: nonzero; opacity: 1;" transform=" translate(-136.7758, -206.6741)" d="M 119.612 199.988 C 132.422 191.679 155.617 195.545 155.386 207.201 C 155.155 218.856 151.059 219.722 142.519 215.452 C 134.037 211.182 112.4 204.604 119.612 199.988 Z" stroke-linecap="round"/>
</g>
		<g transform="matrix(1 0 0 1 118.4008 -126.7668)" id="Vector_77">
<path style="stroke: none; stroke-width: 1; stroke-dasharray: none; stroke-linecap: butt; stroke-dashoffset: 0; stroke-linejoin: miter; stroke-miterlimit: 4; is-custom-font: none; font-file-url: none; fill: rgb(65,15,186); fill-rule: nonzero; opacity: 1;" transform=" translate(-406.9009, -161.7332)" d="M 413.94 170.734 C 413.075 172.177 411.171 172.581 409.728 171.715 L 396.688 163.58 C 395.245 162.714 394.842 160.81 395.707 159.367 L 399.861 152.732 C 400.727 151.289 402.631 150.886 404.074 151.751 L 417.114 159.887 C 418.556 160.752 418.96 162.656 418.095 164.099 L 413.94 170.734 Z" stroke-linecap="round"/>
</g>
		<g transform="matrix(1 0 0 1 121.863 -130.95)" id="Vector_78">
<path style="stroke: rgb(255,255,255); stroke-width: 0.5675; stroke-dasharray: none; stroke-linecap: butt; stroke-dashoffset: 0; stroke-linejoin: miter; stroke-miterlimit: 10; is-custom-font: none; font-file-url: none; fill: none; fill-rule: nonzero; opacity: 1;" transform=" translate(-410.363, -157.55)" d="M 402.4 151.232 L 405.574 163.868 L 418.326 161.271" stroke-linecap="round"/>
</g>
		<g transform="matrix(1 0 0 1 129.941 -127.402)" id="Vector_79">
<path style="stroke: none; stroke-width: 1; stroke-dasharray: none; stroke-linecap: butt; stroke-dashoffset: 0; stroke-linejoin: miter; stroke-miterlimit: 4; is-custom-font: none; font-file-url: none; fill: rgb(247,158,41); fill-rule: nonzero; opacity: 1;" transform=" translate(-418.441, -161.098)" d="M 418.441 163.579 C 419.811 163.579 420.922 162.469 420.922 161.098 C 420.922 159.728 419.811 158.617 418.441 158.617 C 417.071 158.617 415.96 159.728 415.96 161.098 C 415.96 162.469 417.071 163.579 418.441 163.579 Z" stroke-linecap="round"/>
</g>
</g>
</g>
</svg>