<svg xmlns="http://www.w3.org/2000/svg" xmlns:xlink="http://www.w3.org/1999/xlink" version="1.1" width="1000" height="1000" viewBox="0 0 1000 1000" xml:space="preserve">
<desc>Created with Fabric.js 3.5.0</desc>
<defs>
</defs>
<rect x="0" y="0" width="100%" height="100%" fill="rgba(99,71,204,0)"/>
<g transform="matrix(1.771 0 0 1.771 626.7255 453.8268)" id="878534">
<g style="" vector-effect="non-scaling-stroke">
		<g transform="matrix(1 0 0 1 86.5361 13.6124)">
<linearGradient id="SVGID_64" gradientUnits="objectBoundingBox" gradientTransform="matrix(1 0 0 1 214.536 135.1125)" x1="-0.826367258" y1="-0.92819878" x2="1.03767353" y2="1.06041826">
<stop offset="0%" style="stop-color:rgb(249,160,60);stop-opacity: 1"/>
<stop offset="100%" style="stop-color:rgb(247,151,78);stop-opacity: 1"/>
</linearGradient>
<path style="stroke: none; stroke-width: 1; stroke-dasharray: none; stroke-linecap: butt; stroke-dashoffset: 0; stroke-linejoin: miter; stroke-miterlimit: 4; is-custom-font: none; font-file-url: none; fill: url(#SVGID_64); fill-rule: nonzero; opacity: 1;" transform=" translate(-214.536, -135.1125)" d="M 255.52 175.618667 C 255.634667 174.504 255.717333 173.378667 255.781333 172.248 C 255.858667 170.909333 175.218667 94.3973333 175.218667 94.3973333 L 173.290667 94.3973333 C 173.290667 94.3973333 255.026667 180.613333 255.52 175.618667 L 255.52 175.618667 L 255.52 175.618667 Z" stroke-linecap="round"/>
</g>
		<g transform="matrix(1 0 0 1 -25.2177 47.668)">
<linearGradient id="SVGID_65" gradientUnits="objectBoundingBox" gradientTransform="matrix(1 0 0 1 102.7823 169.168)" x1="-2.58923825" y1="-2.48970263" x2="0.976202479" y2="0.9876849369999999">
<stop offset="0%" style="stop-color:rgb(249,160,60);stop-opacity: 1"/>
<stop offset="100%" style="stop-color:rgb(247,151,78);stop-opacity: 1"/>
</linearGradient>
<path style="stroke: none; stroke-width: 1; stroke-dasharray: none; stroke-linecap: butt; stroke-dashoffset: 0; stroke-linejoin: miter; stroke-miterlimit: 4; is-custom-font: none; font-file-url: none; fill: url(#SVGID_65); fill-rule: nonzero; opacity: 1;" transform=" translate(-102.7823, -169.168)" d="M 83.472 149.077333 C 83.3653333 149.312 83.2586667 149.546667 83.1493333 149.781333 C 83.0346667 150.026667 82.9173333 150.272 82.8 150.514667 C 80.2293333 155.874667 118.786667 193.568 121.888 188.989333 C 122.029333 188.786667 122.170667 188.573333 122.312 188.370667 C 122.469333 188.130667 122.624 187.901333 122.778667 187.661333 C 125.258667 183.896 84.5733333 146.629333 83.472 149.077333 L 83.472 149.077333 L 83.472 149.077333 Z" stroke-linecap="round"/>
</g>
		<g transform="matrix(1 0 0 1 28.8825 100.5494)">
<linearGradient id="SVGID_66" gradientUnits="objectBoundingBox" gradientTransform="matrix(1 0 0 1 156.8825 222.0493)" x1="-2.2316262900000003" y1="-2.61967947" x2="0.940283377" y2="1.01690818">
<stop offset="0%" style="stop-color:rgb(249,160,60);stop-opacity: 1"/>
<stop offset="100%" style="stop-color:rgb(247,151,78);stop-opacity: 1"/>
</linearGradient>
<path style="stroke: none; stroke-width: 1; stroke-dasharray: none; stroke-linecap: butt; stroke-dashoffset: 0; stroke-linejoin: miter; stroke-miterlimit: 4; is-custom-font: none; font-file-url: none; fill: url(#SVGID_66); fill-rule: nonzero; opacity: 1;" transform=" translate(-156.8825, -222.0493)" d="M 137.957333 202.082667 C 137.848 202.322667 137.072 203.634667 136.362667 204.328 C 136.242667 204.568 174.002667 242.016 174.002667 242.016 L 177.402667 242.016 C 177.405333 242.016 141.957333 203.666667 137.957333 202.082667 L 137.957333 202.082667 L 137.957333 202.082667 Z" stroke-linecap="round"/>
</g>
		<g transform="matrix(1 0 0 1 -0.0827 -0.492)">
<linearGradient id="SVGID_67" gradientUnits="objectBoundingBox" gradientTransform="matrix(1 0 0 1 127.9173 121.008)" x1="0.11338712299999999" y1="-0.0182169774" x2="0.8249619300000001" y2="0.921067478">
<stop offset="0%" style="stop-color:rgb(242,109,88);stop-opacity: 1"/>
<stop offset="100%" style="stop-color:rgb(249,160,60);stop-opacity: 1"/>
</linearGradient>
<path style="stroke: none; stroke-width: 1; stroke-dasharray: none; stroke-linecap: butt; stroke-dashoffset: 0; stroke-linejoin: miter; stroke-miterlimit: 4; is-custom-font: none; font-file-url: none; fill: url(#SVGID_67); fill-rule: nonzero; opacity: 1;" transform=" translate(-127.9173, -121.008)" d="M 255.834667 171.568 C 254.069333 210.714667 221.682667 242.016 182.114667 242.016 L 176.765333 242.016 L 137.250667 203.088 C 140.501333 198.504 143.522667 193.754667 146.213333 188.802667 L 182.114667 188.802667 C 193.469333 188.802667 202.709333 179.568 202.709333 168.208 C 202.709333 156.853333 193.469333 147.613333 182.114667 147.613333 L 160.869333 147.613333 C 162.488 139.056 163.373333 130.232 163.373333 121.205333 C 163.373333 112.04 162.472 103.090667 160.794667 94.3973333 L 173.992 94.3973333 L 255.602667 174.810667 C 255.698667 173.733333 255.776 172.656 255.834667 171.568 L 255.834667 171.568 L 255.834667 171.568 Z M 21.4666667 0 L 0 0 L 0 53.2133333 L 21.4666667 53.2133333 C 58.96 53.2133333 89.4666667 83.712 89.4666667 121.205333 C 89.4666667 131.405333 87.192 141.088 83.1493333 149.781333 L 122.312 188.370667 C 135.170667 169.130667 142.688 146.032 142.688 121.205333 C 142.688 54.3733333 88.3066667 0 21.4666667 0 L 21.4666667 0 L 21.4666667 0 Z" stroke-linecap="round"/>
</g>
		<g transform="matrix(1 0 0 1 47.552 -34.0933)">
<linearGradient id="SVGID_68" gradientUnits="objectBoundingBox" gradientTransform="matrix(1 0 0 1 175.552 87.4067)" x1="0.15843647300000002" y1="0.038580311400000004" x2="1.20126091" y2="0.723802579">
<stop offset="0%" style="stop-color:rgb(184,78,81);stop-opacity: 1"/>
<stop offset="100%" style="stop-color:rgb(246,142,72);stop-opacity: 1"/>
</linearGradient>
<path style="stroke: none; stroke-width: 1; stroke-dasharray: none; stroke-linecap: butt; stroke-dashoffset: 0; stroke-linejoin: miter; stroke-miterlimit: 4; is-custom-font: none; font-file-url: none; fill: url(#SVGID_68); fill-rule: nonzero; opacity: 1;" transform=" translate(-175.552, -87.4067)" d="M 182.114667 0 L 95.1866667 0 C 116.418667 12.9626667 134 31.344 145.978667 53.2133333 L 182.114667 53.2133333 C 193.469333 53.2133333 202.709333 62.448 202.709333 73.808 C 202.709333 85.1653333 193.469333 94.4 182.114667 94.4 L 173.994667 94.4 L 255.605333 174.813333 C 255.797333 172.632 255.917333 170.437333 255.917333 168.208 C 255.917333 150.269333 249.48 133.813333 238.792 121.005333 C 249.48 108.202667 255.917333 91.744 255.917333 73.808 C 255.917333 33.112 222.813333 0 182.114667 0 L 182.114667 0 L 182.114667 0 Z" stroke-linecap="round"/>
</g>
		<g transform="matrix(1 0 0 1 -39.6173 74.596)">
<linearGradient id="SVGID_69" gradientUnits="objectBoundingBox" gradientTransform="matrix(1 0 0 1 88.3827 196.096)" x1="0.469841705" y1="0.234664325" x2="0.51881003" y2="1.47391179">
<stop offset="0%" style="stop-color:rgb(249,160,60);stop-opacity: 1"/>
<stop offset="100%" style="stop-color:rgb(247,151,78);stop-opacity: 1"/>
</linearGradient>
<path style="stroke: none; stroke-width: 1; stroke-dasharray: none; stroke-linecap: butt; stroke-dashoffset: 0; stroke-linejoin: miter; stroke-miterlimit: 4; is-custom-font: none; font-file-url: none; fill: url(#SVGID_69); fill-rule: nonzero; opacity: 1;" transform=" translate(-88.3827, -196.096)" d="M 176.765333 242.016 L 95.808 242.016 C 112.104 231.952 126.192 218.666667 137.250667 203.088 L 176.765333 242.016 L 176.765333 242.016 Z M 122.312 188.370667 L 83.152 149.781333 C 72.3333333 173.032 48.7573333 189.202667 21.4666667 189.202667 L 0 189.202667 L 0 242.410667 L 21.4666667 242.410667 C 63.4773333 242.410667 100.557333 220.922667 122.312 188.370667 L 122.312 188.370667 L 122.312 188.370667 Z" stroke-linecap="round"/>
</g>
</g>
</g>
<g transform="matrix(7.6061 0 0 7.6061 394.3023 446.2611)" id="200445">
<g style="" vector-effect="non-scaling-stroke">
		<g transform="matrix(1 0 0 1 0 4.308)">
<path style="stroke: none; stroke-width: 1; stroke-dasharray: none; stroke-linecap: butt; stroke-dashoffset: 0; stroke-linejoin: miter; stroke-miterlimit: 4; is-custom-font: none; font-file-url: none; fill: rgb(127,12,29); fill-rule: nonzero; opacity: 1;" transform=" translate(-16, -20.308)" d="M 7.384 19.231 v 2.154 c 0 0.363 7.833 0.971 12.937 2.154 c 2.465 -0.571 4.295 -1.277 4.295 -2.154 V 19.231 c 0 -0.877 -1.83 -1.582 -4.295 -2.154 c -5.1 1.183 -12.937 1.791 -12.937 2.154" stroke-linecap="round"/>
</g>
		<g transform="matrix(1 0 0 1 0 -4.308)">
<path style="stroke: none; stroke-width: 1; stroke-dasharray: none; stroke-linecap: butt; stroke-dashoffset: 0; stroke-linejoin: miter; stroke-miterlimit: 4; is-custom-font: none; font-file-url: none; fill: rgb(127,12,29); fill-rule: nonzero; opacity: 1;" transform=" translate(-16, -11.692)" d="M 7.384 10.615 v 2.154 c 0 0.363 7.833 0.971 12.937 2.154 c 2.465 -0.571 4.295 -1.277 4.295 -2.154 V 10.615 c 0 -0.877 -1.83 -1.582 -4.295 -2.154 c -5.1 1.183 -12.937 1.791 -12.937 2.154" stroke-linecap="round"/>
</g>
		<g transform="matrix(1 0 0 1 0 0)">
<linearGradient id="SVGID_70" gradientUnits="userSpaceOnUse" gradientTransform="matrix(1538 0 0 -961.25 207495 196661)" x1="-134.907" y1="204.572" x2="-134.896" y2="204.572">
<stop offset="0%" style="stop-color:rgb(230,45,42);stop-opacity: 1"/>
<stop offset="60%" style="stop-color:rgb(223,63,61);stop-opacity: 1"/>
<stop offset="80%" style="stop-color:rgb(223,63,61);stop-opacity: 1"/>
<stop offset="100%" style="stop-color:rgb(230,45,42);stop-opacity: 1"/>
</linearGradient>
<path style="stroke: none; stroke-width: 1; stroke-dasharray: none; stroke-linecap: butt; stroke-dashoffset: 0; stroke-linejoin: miter; stroke-miterlimit: 4; is-custom-font: none; font-file-url: none; fill: url(#SVGID_70); fill-rule: nonzero; opacity: 1;" transform=" translate(-16, -16)" d="M 7.384 14.923 v 6.462 c 0 -0.538 17.232 -1.615 17.232 -4.308 V 10.615 c 0 2.692 -17.232 3.769 -17.232 4.308" stroke-linecap="round"/>
</g>
		<g transform="matrix(1 0 0 1 0 -8.615)">
<linearGradient id="SVGID_71" gradientUnits="userSpaceOnUse" gradientTransform="matrix(1538 0 0 -961.25 207495 195892)" x1="-134.907" y1="203.781" x2="-134.896" y2="203.781">
<stop offset="0%" style="stop-color:rgb(230,45,42);stop-opacity: 1"/>
<stop offset="60%" style="stop-color:rgb(223,63,61);stop-opacity: 1"/>
<stop offset="80%" style="stop-color:rgb(223,63,61);stop-opacity: 1"/>
<stop offset="100%" style="stop-color:rgb(230,45,42);stop-opacity: 1"/>
</linearGradient>
<path style="stroke: none; stroke-width: 1; stroke-dasharray: none; stroke-linecap: butt; stroke-dashoffset: 0; stroke-linejoin: miter; stroke-miterlimit: 4; is-custom-font: none; font-file-url: none; fill: url(#SVGID_71); fill-rule: nonzero; opacity: 1;" transform=" translate(-16, -7.385)" d="M 7.384 6.308 V 12.77 c 0 -0.538 17.232 -1.615 17.232 -4.308 V 2 c 0 2.692 -17.232 3.769 -17.232 4.308" stroke-linecap="round"/>
</g>
		<g transform="matrix(1 0 0 1 0 8.6155)">
<linearGradient id="SVGID_72" gradientUnits="userSpaceOnUse" gradientTransform="matrix(1538 0 0 -961.25 207495 197430)" x1="-134.907" y1="205.363" x2="-134.896" y2="205.363">
<stop offset="0%" style="stop-color:rgb(230,45,42);stop-opacity: 1"/>
<stop offset="60%" style="stop-color:rgb(223,63,61);stop-opacity: 1"/>
<stop offset="80%" style="stop-color:rgb(223,63,61);stop-opacity: 1"/>
<stop offset="100%" style="stop-color:rgb(230,45,42);stop-opacity: 1"/>
</linearGradient>
<path style="stroke: none; stroke-width: 1; stroke-dasharray: none; stroke-linecap: butt; stroke-dashoffset: 0; stroke-linejoin: miter; stroke-miterlimit: 4; is-custom-font: none; font-file-url: none; fill: url(#SVGID_72); fill-rule: nonzero; opacity: 1;" transform=" translate(-16, -24.6155)" d="M 7.384 23.538 V 30 c 0 -0.538 17.232 -1.615 17.232 -4.308 V 19.231 c 0 2.692 -17.232 3.769 -17.232 4.308" stroke-linecap="round"/>
</g>
</g>
</g>
<g transform="matrix(6.4126 0 0 6.4126 459.4406 626.3043)" id="442098">
<path style="stroke: none; stroke-width: 1; stroke-dasharray: none; stroke-linecap: butt; stroke-dashoffset: 0; stroke-linejoin: miter; stroke-miterlimit: 4; is-custom-font: none; font-file-url: none; fill: rgb(21,126,251); fill-rule: evenodd; opacity: 1;" vector-effect="non-scaling-stroke" transform=" translate(-16.5, -16.5)" d="M 17.6756443 19.8827511 C 17.463169 19.9587282 17.2340236 20 16.9951185 20 L 16.0048815 20 C 14.8938998 20 14 19.1019194 14 17.9940809 L 14 15.0059191 C 14 13.8865548 14.897616 13 16.0048815 13 L 16.9951185 13 C 18.1061002 13 19 13.8980806 19 15.0059191 L 19 17.9940809 C 19 18.4993595 18.8171018 18.9572008 18.5145823 19.3074755 L 19.267767 20.0606602 L 18.5606602 20.767767 L 17.6756443 19.8827511 L 17.6756443 19.8827511 L 17.6756443 19.8827511 Z M 16.7928932 19 L 15.9989566 19 C 15.4426603 19 15 18.5523709 15 18.0001925 L 15 14.9998075 C 15 14.4437166 15.4472481 14 15.9989566 14 L 17.0010434 14 C 17.5573397 14 18 14.4476291 18 14.9998075 L 18 18.0001925 C 18 18.2246463 17.9271364 18.4307925 17.8039499 18.5968431 L 16.4393398 17.232233 L 15.732233 17.9393398 L 16.7928932 19 L 16.7928932 19 L 16.7928932 19 Z M 8.00684834 10 C 6.34621185 10 5 11.3422643 5 12.9987856 L 5 20.0012144 C 5 21.6573979 6.33599155 23 8.00684834 23 L 24.9931517 23 C 26.6537881 23 28 21.6577357 28 20.0012144 L 28 12.9987856 C 28 11.3426021 26.6640085 10 24.9931517 10 L 8.00684834 10 L 8.00684834 10 Z M 10.0048815 13 C 8.89761602 13 8 13.8877296 8 15 C 8 16.1045695 8.88772964 17 10 17 L 10.9906311 17 C 11.5480902 17 12 17.4438648 12 18 C 12 18.5522847 11.5573397 19 11.0010434 19 L 9.99895656 19 C 9.44724809 19 9 18.543716 9 18.0044713 L 9 17.9931641 L 8 17.9931641 L 8 17.998921 C 8 19.1040864 8.8938998 20 10.0048815 20 L 10.9951185 20 C 12.102384 20 13 19.1122704 13 18 C 13 16.8954305 12.1122704 16 11 16 L 10.0093689 16 C 9.45190985 16 9 15.5561352 9 15 C 9 14.4477153 9.44266033 14 9.99895656 14 L 11.0010434 14 C 11.5527519 14 12 14.453186 12 15 L 13 15 C 13 13.8954305 12.1061002 13 10.9951185 13 L 10.0048815 13 L 10.0048815 13 Z M 25 19 L 25 20 L 20 20 L 20 13 L 21 13 L 21 19 L 25 19 L 25 19 Z" stroke-linecap="round"/>
</g>
<g transform="matrix(0.6954 0 0 0.6954 578.0599 700.3361)" id="733915">
<g style="" vector-effect="non-scaling-stroke">
		<g transform="matrix(1 0 0 1 181.7914 14.8)" id="Layer_1">
<path style="stroke: none; stroke-width: 1; stroke-dasharray: none; stroke-linecap: butt; stroke-dashoffset: 0; stroke-linejoin: miter; stroke-miterlimit: 4; is-custom-font: none; font-file-url: none; fill: rgb(142,113,78); fill-rule: nonzero; opacity: 1;" transform=" translate(-437.7914, -87.8)" d="M 466.2 62 c -0.4 0.1 -0.9 1 -0.9 1.6 c -0.1 3.5 -0.2 12.7 -0.2 19 c 0 0.2 0.3 0.5 0.5 0.5 c 1.3 0.1 4.4 0.2 7.1 0.2 c 3.7 0 5.9 -0.5 7.1 -1 c 3.1 -1.6 4.6 -5 4.6 -8.7 c 0 -8.4 -5.9 -11.7 -14.7 -11.7 C 469.2 61.7 467.5 61.7 466.2 62 L 466.2 62 L 466.2 62 z M 488.6 100.9 c 0 -8.6 -6.3 -13.4 -17.8 -13.4 c -0.5 0 -4.2 -0.1 -5 0.1 c -0.3 0.1 -0.6 0.3 -0.6 0.5 c 0 6.2 -0.1 16 0.2 19.8 c 0.2 1.7 1.4 4 2.9 4.7 c 1.6 0.9 5.1 1 7.6 1 C 482.6 113.6 488.6 109.8 488.6 100.9 L 488.6 100.9 L 488.6 100.9 z M 448.4 57.2 c 0.9 0 3.5 0.3 10.2 0.3 c 6.3 0 11.4 -0.2 17.6 -0.2 c 7.6 0 18 2.7 18 14 c 0 5.6 -3.9 10 -9 12.2 c -0.3 0.1 -0.3 0.3 0 0.3 c 7.3 1.8 13.7 6.3 13.7 14.9 c 0 8.3 -5.2 13.7 -12.8 17 c -4.6 2 -10.3 2.7 -16.2 2.7 c -4.4 0 -16.3 -0.5 -23 -0.3 c -0.7 -0.3 0.6 -3.4 1.2 -3.9 c 1.6 -0.1 2.8 -0.2 4.4 -0.7 c 2.3 -0.6 2.6 -1.3 3 -4.9 c 0.2 -3 0.2 -13.8 0.2 -21.5 c 0 -10.5 0.1 -17.7 0 -21.1 c -0.1 -2.7 -1 -3.6 -3 -4.1 c -1.5 -0.3 -3.9 -0.6 -5.9 -0.9 C 446.4 60.5 447.9 57.5 448.4 57.2 L 448.4 57.2 L 448.4 57.2 z M 398.3 111.3 c 2.1 1.7 6.2 2.3 9.8 2.3 c 4.7 0 9.4 -0.9 13.9 -5 c 4.6 -4.2 7.8 -10.6 7.8 -20.9 c 0 -9.8 -3.7 -17.8 -11.4 -22.5 c -4.3 -2.7 -9.9 -3.8 -16.3 -3.8 c -1.9 0 -3.7 0.1 -4.9 0.6 c -0.3 0.2 -0.9 1 -0.9 1.4 c -0.2 1.7 -0.2 15.1 -0.2 23 c 0 8.1 0 19.4 0.2 20.7 C 396.4 108.4 397 110.4 398.3 111.3 L 398.3 111.3 L 398.3 111.3 z M 378.5 57.2 c 1.7 0 8 0.3 11 0.3 c 5.5 0 9.4 -0.3 19.7 -0.3 c 8.7 0 16 2.3 21.2 6.8 c 6.3 5.5 9.7 13 9.7 22.3 c 0 13.1 -6 20.7 -12 25 c -6 4.4 -13.8 7 -25 7 c -5.9 0 -16.1 -0.2 -24.5 -0.3 h -0.1 c -0.4 -0.8 0.7 -3.8 1.4 -3.9 c 2.3 -0.3 2.9 -0.3 4 -0.8 c 1.8 -0.7 2.2 -1.7 2.4 -4.9 c 0.3 -6 0.2 -13.2 0.2 -21.4 c 0 -5.8 0.1 -17.2 -0.1 -20.9 c -0.3 -3 -1.6 -3.8 -4.2 -4.3 c -1.3 -0.3 -3 -0.6 -5.5 -0.9 C 376.5 60.4 378.1 57.7 378.5 57.2 L 378.5 57.2 L 378.5 57.2 z" stroke-linecap="round"/>
</g>
		<g transform="matrix(1 0 0 1 -23.8064 36.9)" id="Layer_1">
<path style="stroke: none; stroke-width: 1; stroke-dasharray: none; stroke-linecap: butt; stroke-dashoffset: 0; stroke-linejoin: miter; stroke-miterlimit: 4; is-custom-font: none; font-file-url: none; fill: rgb(68,45,34); fill-rule: nonzero; opacity: 1;" transform=" translate(-232.1937, -109.9)" d="M 273.3 114.7 c -2.2 -0.3 -3.7 -0.6 -5.7 -1.5 c -0.3 -0.2 -0.7 -1 -0.7 -1.4 c -0.2 -3 -0.2 -11.7 -0.2 -17.6 c 0 -4.7 -0.8 -8.8 -2.8 -11.7 c -2.3 -3.3 -5.7 -5.2 -10.1 -5.2 c -3.8 0 -9 2.6 -13.2 6.3 c -0.1 0.1 -0.8 0.7 -0.7 -0.3 c 0 -1 0.2 -2.9 0.3 -4.2 c 0.1 -1.2 -0.6 -1.8 -0.6 -1.8 c -2.8 1.4 -10.6 3.2 -13.5 3.5 c -2.1 0.4 -2.6 2.4 -0.4 3.1 h 0.1 c 2.3 0.7 3.9 1.5 5.1 2.3 c 0.9 0.7 0.8 1.7 0.8 2.4 c 0.1 6.5 0.1 16.5 -0.2 22 c -0.1 2.2 -0.7 3 -2.3 3.3 l 0.2 -0.1 c -1.2 0.3 -2.2 0.5 -3.7 0.7 c -0.5 0.5 -0.5 3.3 0 3.9 c 1 0 6 -0.3 10.2 -0.3 c 5.7 0 8.7 0.3 10.2 0.3 c 0.6 -0.7 0.8 -3.3 0.4 -3.9 c -1.7 -0.1 -2.9 -0.3 -4 -0.6 c -1.6 -0.3 -2 -1.1 -2.1 -3 c -0.2 -4.6 -0.2 -14.3 -0.2 -21 c 0 -1.8 0.5 -2.7 1 -3.2 c 2 -1.7 5.2 -3 8.1 -3 c 2.8 0 4.6 0.9 6 2 c 1.9 1.6 2.5 3.8 2.8 5.5 c 0.4 3.7 0.3 11.1 0.3 17.6 c 0 3.5 -0.3 4.3 -1.6 4.8 c -0.6 0.3 -2.2 0.6 -4 0.8 c -0.6 0.6 -0.4 3.3 0 3.9 c 2.5 0 5.5 -0.3 9.8 -0.3 c 5.4 0 8.9 0.3 10.3 0.3 C 273.5 117.9 273.7 115.4 273.3 114.7 L 273.3 114.7 L 273.3 114.7 z M 297.4 81.5 c -4.6 0 -7.5 3.6 -7.5 9.1 c 0 5.7 2.5 12.2 9.7 12.2 c 1.2 0 3.5 -0.5 4.5 -1.7 c 1.7 -1.6 2.8 -4.7 2.8 -8 C 306.9 85.8 303.3 81.5 297.4 81.5 L 297.4 81.5 L 297.4 81.5 z M 296.8 119.9 c -1.7 0 -3 0.5 -3.7 1 c -3.7 2.3 -5.3 4.6 -5.3 7.3 c 0 2.5 1 4.5 3 6.3 c 2.5 2.2 6 3.2 10.4 3.2 c 8.9 0 12.8 -4.8 12.8 -9.5 c 0 -3.3 -1.7 -5.5 -5 -6.7 C 306.5 120.4 302.1 119.9 296.8 119.9 L 296.8 119.9 L 296.8 119.9 z M 297.4 142.5 c -5.3 0 -9.1 -1.1 -12.4 -3.7 c -3.2 -2.4 -4.6 -6.1 -4.6 -8.6 c 0 -0.7 0.2 -2.6 1.7 -4.3 c 1 -1 3 -3 8 -6.4 c 0.2 -0.1 0.3 -0.2 0.3 -0.3 c 0 -0.2 -0.2 -0.3 -0.3 -0.4 c -4.1 -1.6 -5.3 -4.1 -5.7 -5.5 V 113 c -0.1 -0.5 -0.3 -1 0.5 -1.6 c 0.6 -0.4 1.5 -1 2.4 -1.6 c 1.5 -0.9 3 -1.8 4 -2.6 c 0.2 -0.2 0.2 -0.3 0.2 -0.5 s -0.2 -0.3 -0.3 -0.4 c -6.1 -2 -9.1 -6.5 -9.1 -13.3 c 0 -4.4 2 -8.4 5.6 -11 c 2.4 -1.9 8.5 -4.3 12.5 -4.3 h 0.3 c 4.1 0.1 6.3 1 9.6 2.1 c 1.7 0.6 3.4 0.9 5.7 0.9 c 3.4 0 4.9 -1 6.1 -2.3 c 0.1 0.2 0.3 0.6 0.3 1.7 c 0.1 1.1 -0.3 2.8 -1.1 4 c -0.7 1 -2.3 1.7 -3.8 1.7 h -0.4 c -1.6 -0.2 -2.3 -0.3 -2.3 -0.3 l -0.3 0.2 c -0.1 0.2 0 0.3 0.1 0.6 l 0.1 0.2 c 0.2 0.8 0.5 3.1 0.5 3.7 c 0 7.1 -2.9 10.3 -5.9 12.6 c -3 2.2 -6.3 3.6 -10.2 3.9 c -0.1 0 -0.4 0 -1.2 0.1 c -0.4 0 -1 0.1 -1.1 0.1 h -0.1 c -0.7 0.2 -2.4 1 -2.4 2.5 c 0 1.3 0.8 2.9 4.5 3.1 c 0.8 0.1 1.6 0.1 2.4 0.2 c 5 0.3 11.1 0.8 14 1.7 c 4 1.5 6.5 5 6.5 9.3 c 0 6.4 -4.6 12.4 -12.3 16.2 C 305.2 141.6 301.5 142.5 297.4 142.5 L 297.4 142.5 L 297.4 142.5 z M 347 81.9 c -1.8 0 -3.5 0.4 -4.7 1.3 c -3.4 2.1 -5.1 6.3 -5.1 12.3 c 0 11.4 5.7 19.4 13.9 19.4 c 2.4 0 4.3 -0.7 6 -2.1 c 2.5 -2.1 3.8 -6.3 3.8 -12.1 C 360.9 89.5 355.2 81.9 347 81.9 L 347 81.9 L 347 81.9 z M 348.5 119.1 c -14.8 0 -20.1 -10.9 -20.1 -21 c 0 -7.1 2.9 -12.6 8.6 -16.5 c 4.1 -2.5 9 -3.9 13.3 -3.9 c 11.3 0 19.2 8.1 19.2 19.7 c 0 7.9 -3.1 14.2 -9.1 18 C 357.6 117.3 352.6 119.1 348.5 119.1 L 348.5 119.1 L 348.5 119.1 z M 193.6 81.9 c -1.8 0 -3.5 0.4 -4.7 1.3 c -3.4 2.1 -5.1 6.3 -5.1 12.3 c 0 11.4 5.7 19.4 13.9 19.4 c 2.4 0 4.3 -0.7 6 -2.1 c 2.5 -2.1 3.8 -6.3 3.8 -12.1 C 207.5 89.5 201.9 81.9 193.6 81.9 L 193.6 81.9 L 193.6 81.9 z M 195.2 119.1 c -14.8 0 -20.1 -10.9 -20.1 -21 c 0 -7.1 2.9 -12.6 8.6 -16.5 c 4.1 -2.5 9 -3.9 13.3 -3.9 c 11.3 0 19.2 8.1 19.2 19.7 c 0 7.9 -3.1 14.2 -9.1 18 C 204.3 117.3 199.3 119.1 195.2 119.1 L 195.2 119.1 L 195.2 119.1 z M 95.8 118.2 c -0.2 -0.3 -0.3 -1 -0.3 -2 c 0 -0.7 0.2 -1.1 0.3 -1.3 c 1.8 -0.3 2.8 -0.5 3.8 -0.8 c 1.7 -0.4 2.4 -1.4 2.5 -3.6 c 0.3 -5.2 0.3 -15.1 0.2 -22 v -0.2 c 0 -0.8 0 -1.7 -1 -2.4 c -1.4 -0.9 -3 -1.7 -5.2 -2.3 c -0.8 -0.3 -1.3 -0.7 -1.2 -1.2 c 0 -0.5 0.5 -1.1 1.7 -1.3 c 2.9 -0.3 10.3 -2.1 13.3 -3.4 c 0.2 0.2 0.4 0.7 0.4 1.4 l -0.1 1 c -0.1 1 -0.2 2.1 -0.2 3.2 c 0 0.3 0.3 0.6 0.7 0.6 c 0.2 0 0.3 -0.1 0.5 -0.2 c 5.6 -4.3 10.6 -5.9 13.2 -5.9 c 4.3 0 7.6 2 10.1 6.2 c 0.2 0.3 0.3 0.3 0.6 0.3 c 0.2 0 0.4 -0.1 0.5 -0.3 c 5.1 -3.9 10.3 -6.3 13.7 -6.3 c 8.1 0 12.9 6 12.9 16.2 c 0 2.9 0 6.6 -0.1 10 c 0 3 -0.1 5.8 -0.1 7.8 c 0 0.4 0.6 1.8 1.6 2.1 c 1.2 0.6 2.9 0.9 5 1.2 h 0.1 c 0.2 0.6 -0.2 2.9 -0.5 3.3 c -0.5 0 -1.3 0 -2.2 -0.1 c -1.7 -0.1 -4 -0.2 -6.6 -0.2 c -5.4 0 -8.2 0.1 -10.9 0.3 c -0.2 -0.7 -0.3 -2.8 0 -3.3 c 1.6 -0.3 2.3 -0.5 3.3 -0.8 c 1.7 -0.5 2.2 -1.3 2.3 -3.6 c 0 -1.7 0.3 -15.7 -0.2 -19.1 c -0.5 -3.5 -3.1 -7.6 -8.9 -7.6 c -2.2 0 -5.6 0.9 -8.9 3.4 c -0.2 0.2 -0.3 0.6 -0.3 0.9 v 0.1 c 0.3 1.8 0.3 3.9 0.3 7.1 v 5.7 c 0 3.9 -0.1 7.6 0 10.3 c 0 1.9 1.1 2.3 2.1 2.7 c 0.5 0.1 0.9 0.2 1.3 0.3 c 0.8 0.2 1.6 0.3 2.8 0.6 c 0.2 0.3 0.2 1.5 -0.1 2.4 c -0.1 0.5 -0.3 0.8 -0.3 0.9 c -3 -0.1 -6 -0.2 -10.4 -0.2 c -1.3 0 -3.6 0.1 -5.5 0.1 c -1.6 0 -3 0.1 -3.9 0.1 c -0.1 -0.2 -0.3 -0.8 -0.3 -1.7 c 0 -0.8 0.2 -1.4 0.3 -1.6 c 0.4 -0.1 0.8 -0.2 1.2 -0.2 c 1 -0.2 1.9 -0.3 2.8 -0.5 c 1.5 -0.4 2 -1.2 2.1 -3.1 c 0.3 -4.3 0.5 -16.8 -0.1 -19.9 c -1 -5 -3.9 -7.6 -8.5 -7.6 c -2.7 0 -6.1 1.3 -8.9 3.4 c -0.4 0.3 -0.8 1.2 -0.8 2 v 5.1 c 0 6.3 0 14.1 0.1 17.5 c 0.1 1 0.4 2.3 2.4 2.7 c 0.4 0.1 1.1 0.3 2 0.3 l 1.6 0.3 c 0.2 0.5 0.1 2.6 -0.3 3.3 c -0.9 0 -1.9 -0.1 -3.1 -0.1 c -1.8 -0.1 -4.2 -0.2 -6.8 -0.2 c -3 0 -5.2 0.1 -7 0.2 C 97.8 118.2 96.8 118.2 95.8 118.2 L 95.8 118.2 L 95.8 118.2 z" stroke-linecap="round"/>
</g>
		<g transform="matrix(1 0 0 1 -208.2877 7.5541)" id="Layer_1">
<path style="stroke: none; stroke-width: 1; stroke-dasharray: none; stroke-linecap: butt; stroke-dashoffset: 0; stroke-linejoin: miter; stroke-miterlimit: 4; is-custom-font: none; font-file-url: none; fill: rgb(255,255,255); fill-rule: nonzero; opacity: 1;" transform=" translate(-47.7123, -80.5542)" d="M 50 139.1 l -3.6 -1.2 c 0 0 0.4 -18.2 -6.1 -19.5 c -4.3 -5 0.7 -213.9 16.3 -0.7 c 0 0 -5.4 2.7 -6.3 7.3 C 49.3 129.5 50 139.1 50 139.1 L 50 139.1 L 50 139.1 z" stroke-linecap="round"/>
</g>
		<g transform="matrix(1 0 0 1 -208.2877 7.5541)" id="Layer_1">
<path style="stroke: none; stroke-width: 1; stroke-dasharray: none; stroke-linecap: butt; stroke-dashoffset: 0; stroke-linejoin: miter; stroke-miterlimit: 4; is-custom-font: none; font-file-url: none; fill: rgb(166,163,133); fill-rule: nonzero; opacity: 1;" transform=" translate(-47.7123, -80.5542)" d="M 50 139.1 l -3.6 -1.2 c 0 0 0.4 -18.2 -6.1 -19.5 c -4.3 -5 0.7 -213.9 16.3 -0.7 c 0 0 -5.4 2.7 -6.3 7.3 C 49.3 129.5 50 139.1 50 139.1 L 50 139.1 L 50 139.1 z" stroke-linecap="round"/>
</g>
		<g transform="matrix(1 0 0 1 -194.3466 -9.5)" id="Layer_1">
<path style="stroke: none; stroke-width: 1; stroke-dasharray: none; stroke-linecap: butt; stroke-dashoffset: 0; stroke-linejoin: miter; stroke-miterlimit: 4; is-custom-font: none; font-file-url: none; fill: rgb(255,255,255); fill-rule: nonzero; opacity: 1;" transform=" translate(-61.6534, -63.5)" d="M 51.9 121.5 c 0 0 31.2 -20.5 23.9 -63.2 c -7 -31 -23.7 -41.2 -25.5 -45.1 c -2 -2.8 -3.9 -7.7 -3.9 -7.7 l 1.3 86.3 C 47.8 92 45.1 118.3 51.9 121.5" stroke-linecap="round"/>
</g>
		<g transform="matrix(1 0 0 1 -194.3466 -9.5)" id="Layer_1">
<path style="stroke: none; stroke-width: 1; stroke-dasharray: none; stroke-linecap: butt; stroke-dashoffset: 0; stroke-linejoin: miter; stroke-miterlimit: 4; is-custom-font: none; font-file-url: none; fill: rgb(73,157,74); fill-rule: nonzero; opacity: 1;" transform=" translate(-61.6534, -63.5)" d="M 51.9 121.5 c 0 0 31.2 -20.5 23.9 -63.2 c -7 -31 -23.7 -41.2 -25.5 -45.1 c -2 -2.8 -3.9 -7.7 -3.9 -7.7 l 1.3 86.3 C 47.8 92 45.1 118.3 51.9 121.5" stroke-linecap="round"/>
</g>
		<g transform="matrix(1 0 0 1 -223.4513 -9.05)" id="Layer_1">
<path style="stroke: none; stroke-width: 1; stroke-dasharray: none; stroke-linecap: butt; stroke-dashoffset: 0; stroke-linejoin: miter; stroke-miterlimit: 4; is-custom-font: none; font-file-url: none; fill: rgb(255,255,255); fill-rule: nonzero; opacity: 1;" transform=" translate(-32.5487, -63.95)" d="M 44.6 122.7 c 0 0 -29.3 -20 -27.6 -55.2 c 1.7 -35.2 22.3 -52.5 26.3 -55.7 C 46 9 46.1 8 46.3 5.2 c 1.8 3.9 1.5 58.5 1.7 65 C 48.8 94.9 46.6 118 44.6 122.7 L 44.6 122.7 L 44.6 122.7 z" stroke-linecap="round"/>
</g>
		<g transform="matrix(1 0 0 1 -223.4513 -9.05)" id="Layer_1">
<path style="stroke: none; stroke-width: 1; stroke-dasharray: none; stroke-linecap: butt; stroke-dashoffset: 0; stroke-linejoin: miter; stroke-miterlimit: 4; is-custom-font: none; font-file-url: none; fill: rgb(88,170,80); fill-rule: nonzero; opacity: 1;" transform=" translate(-32.5487, -63.95)" d="M 44.6 122.7 c 0 0 -29.3 -20 -27.6 -55.2 c 1.7 -35.2 22.3 -52.5 26.3 -55.7 C 46 9 46.1 8 46.3 5.2 c 1.8 3.9 1.5 58.5 1.7 65 C 48.8 94.9 46.6 118 44.6 122.7 L 44.6 122.7 L 44.6 122.7 z" stroke-linecap="round"/>
</g>
</g>
</g>
</svg>