<svg id="eelD9Z6avTh1" xmlns="http://www.w3.org/2000/svg" xmlns:xlink="http://www.w3.org/1999/xlink" viewBox="0 0 500 500" shape-rendering="geometricPrecision" text-rendering="geometricPrecision"><g transform="translate(-.821632 0)"><rect width="50.47" height="132.43" rx="0" ry="0" transform="translate(93.88 233.97)" fill="#02a889"/><rect width="50.47" height="132.43" rx="0" ry="0" transform="translate(225.586632 233.97)" opacity="0.2" fill="#008f73"/><rect width="50.47" height="132.43" rx="0" ry="0" transform="translate(355.66 233.97)" fill="#00b290"/><rect width="50.47" height="132.43" rx="0" ry="0" transform="translate(355.66 233.97)" opacity="0.2" fill="#28e3bf"/><rect width="211.33" height="225.65" rx="0" ry="0" transform="translate(144.34 140.75)" fill="#28e3bf"/><g opacity="0.2"><rect width="1.2" height="132.42" rx="0" ry="0" transform="translate(355.69 233.97)"/><rect width="1.2" height="132.42" rx="0" ry="0" transform="translate(143.74 233.97)"/><path d="M356.91,328h-213.17v-41.11h213.17ZM145,326.73h210.67v-38.61h-210.67Z"/></g><g opacity="0.2"><path d="M157.5,213.16c-.42595.046684-.748485.406499-.748485.835s.322535.788316.748485.835c.42595-.046684.748485-.406499.748485-.835s-.322535-.788316-.748485-.835Z"/><path d="M158.93,315.41c-.42595.046684-.748485.406499-.748485.835s.322535.788316.748485.835c.42595-.046684.748485-.406499.748485-.835s-.322535-.788316-.748485-.835Z"/><path d="M216.05,299.44c0-.09-.09-.17-.13-.25-.068865-.11366-.192105-.183086-.325-.183086s-.256135.069426-.325.183086c-.049157.080173-.092598.163714-.13.25-.48.99,1.38.99.91,0Z"/><path d="M132.62,317.51c0-.08-.08-.17-.13-.25-.068865-.11366-.192105-.183086-.325-.183086s-.256135.069426-.325.183086c-.05.08-.09.17-.13.25-.47.99,1.39.99.91,0Z"/><path d="M164.69,218.26c-.353462,0-.64.286538-.64.64s.286538.64.64.64.64-.286538.64-.64-.286538-.64-.64-.64Z"/><path d="M120.2,283.07c-.32007.040245-.560156.31241-.560156.635s.240086.594755.560156.635c.32007-.040245.560156-.31241.560156-.635s-.240086-.594755-.560156-.635Z"/><path d="M204,182.64c-.346554-.341839-.903446-.341839-1.25,0-.308339.321132-.422609.782022-.3,1.21.15085.38168.519591.63244.93.63244s.77915-.25076.93-.63244c.122188-.429728.003765-.891963-.31-1.21Z"/><path d="M165.93,310.68c-.346554-.341839-.903446-.341839-1.25,0-.308483.316967-.42303.775155-.3,1.2.154089.375117.519468.620033.925.620033s.770911-.244916.925-.620033c.127455-.424753.012343-.885197-.3-1.2Z"/><path d="M341.51,319.3c.463919,0,.84-.376081.84-.84s-.376081-.84-.84-.84-.84.376081-.84.84.376081.84.84.84Z"/><path d="M290.77,207.74c.42595-.046684.748485-.406499.748485-.835s-.322535-.788316-.748485-.835c-.42595.046684-.748485.406499-.748485.835s.322535.788316.748485.835Z"/><path d="M368.58,311.41c0,.08.08.17.13.25.068865.11366.192105.183086.325.183086s.256135-.069426.325-.183086c.05-.08.09-.17.13-.25.51-.99-1.38-.99-.91,0Z"/><path d="M265.27,261.06c.346554.341839.903446.341839,1.25,0c.312126-.319031.426939-.78211.3-1.21-.154089-.375117-.519468-.620033-.925-.620033s-.770911.244916-.925.620033c-.120511.428014-.0065.887857.3,1.21Z"/></g><g opacity="0.2"><path d="M145,328c0,0,53.22,10.38,105.3,10.38s105.36-10.38,105.36-10.38Z"/></g><rect width="312.24" height="11.64" rx="0" ry="0" transform="translate(93.88 354.75)" fill="#5a23c8"/><polygon points="161.48,366.4 148.65,392.67 135.76,419.08 124.53,419.08 128.7,392.67 132.85,366.4 161.48,366.4" fill="#5a23c8"/><polygon points="132.85,366.4 161.49,366.4 153.7,382.33 130.34,382.33 132.85,366.4" fill="#5a23c8"/><polygon points="370.66,419.08 359.44,419.08 346.55,392.67 333.71,366.4 362.35,366.4 366.49,392.67 370.66,419.08" fill="#5a23c8"/><polygon points="364.86,382.33 341.5,382.33 333.71,366.4 362.34,366.4 364.86,382.33" fill="#5a23c8"/></g><g><path d="M373.3,309.63c-.92-2.77-49.95-67.56-53.3-68.8-.38-.17-22.3,15.43-22.3,15.43-.9,1.21-42.56-7.6-42.56-7.6l-.42,50.26l75.89-1.61c0,0,10.25,6,19.63,10.93v0c5.77,3,10.88,5.6,12.34,6c3.82.96,11.65-1.86,10.72-4.61Z" fill="#ffc4c0"/><path d="M362.61,314.23c-1.47-.38-6.57-2.94-12.33-6v0c-9.37-4.91-19.62-10.95-19.62-10.95l-16.89.37L287.28,255c5.81,1,10.14,1.64,10.43,1.26c0,0,21.9-15.6,22.29-15.43c3.35,1.24,52.38,66,53.3,68.79s-6.9,5.59-10.69,4.61Z" fill="#fff"/><path d="M373.74,309.71c-1-2.84-50.21-67.58-53.65-68.86-1.3-.5-12,6.13-22.39,15.41L329.51,298c0,0,29.34,15.55,33.26,16.55s11.94-2,10.97-4.84Z" fill="#00e77f"/><path d="M370.45,310.75c-8.52-10.65-41.89-54.41-49.51-65.58-.06-.1,0-.14.07-.06c8.68,10.38,41.69,54.41,49.62,65.51.16.23,0,.38-.18.13Z" fill="#263238"/><path d="M357.27,312.12c-1.91594-2.393572-2.745986-5.478154-2.29-8.51.390267-2.702362,1.804477-5.151272,3.95-6.84.07,0,.16.07.1.13-3.834132,4.114724-4.494026,10.265592-1.62,15.1.033137.03866.02866.096863-.01.13s-.096863.02866-.13-.01Z" fill="#263238"/><path d="M333.18,300.54c-3.36-4.3-5.66-10.5-4.16-15.9.06-.21.35-.13.39.05.894737,5.315335,2.359868,10.518729,4.37,15.52.047874.158225-.021483.328371-.16633.408037s-.325681.047125-.43367-.078037Z" fill="#263238"/><path d="M337,302.9c-3.36-4.3-5.66-10.5-4.16-15.9.06-.21.35-.13.38.05.90385,5.313287,2.36871,10.515721,4.37,15.52.067857.159741.004508.344949-.146964.429671s-.342441.041759-.443036-.099671Z" fill="#263238"/><path d="M340.9,305.26c-3.36-4.3-5.66-10.5-4.16-15.9.05-.21.35-.13.38.05.90385,5.313287,2.36871,10.515721,4.37,15.52.067857.159741.004508.344949-.146964.429671s-.342441.041759-.443036-.099671Z" fill="#263238"/><path d="M344.76,307.62c-3.37-4.3-5.66-10.5-4.16-15.91c0-.2.35-.12.38.06.899107,5.314354,2.364108,10.517286,4.37,15.52.067857.159741.004508.344949-.146964.429671s-.342441.041759-.443036-.099671Z" fill="#263238"/><path d="M312.74,255.77c-3.7-4.88,3.89-10.63,7.59-5.74s-3.89,10.63-7.59,5.74Z" fill="#263238"/><path d="M331.27,308.86c1.24-4.64.42-9.66.21-14.38-.028559-.20961-.154435-.39342-.339545-.495822s-.40771-.111365-.600455-.024178c-.0285-.034032-.07061-.053693-.115-.053693s-.0865.019661-.115.053693c-3.742777,3.351635-6.539439,7.627666-8.11,12.4-.86,2.8-.53,6.92,3,7.73c3.27.73,5.34-2.52,6.07-5.23Zm-3.45,2.94c-5.05,3.16-4.67-3.86-3.95-5.9.488988-1.306416,1.063567-2.579176,1.72-3.81c1.401984-2.525525,2.930597-4.978649,4.58-7.35c0,2.33.12,4.64.17,7c.06,2.73.27,8.32-2.52,10.06Z" fill="#263238"/><path d="M315.8,280.6c-2.57,2.5-.72,6.2,1.45,8.16c3.804711,3.279766,8.405373,5.500775,13.34,6.44.043784.009821.089623-.00194.123269-.031628s.051024-.073706.046731-.118372c.212347-.021055.401966-.142001.510589-.325673s.12326-.408103.039411-.604327c-2.25-4.15-4.14-8.88-7.6-12.22-2.02-1.9-5.47-3.66-7.91-1.3Zm10.81,7.92c1.16,2,2.21,4.08,3.44,6.05-2.636432-1.179065-5.209893-2.494168-7.71-3.94-1.202727-.709079-2.352413-1.504501-3.44-2.38-1.67-1.37-5.62-7.19.34-7.09c3.29.06,5.99,4.96,7.37,7.36Z" fill="#263238"/><path d="M252.84,233.25h-34.06c0,0-35.63-17.12-64.33-10.25-32.9,7.91-37.11,49.23-12.52,63.84c31.16,18.52,169.82,14.93,169.82,14.93l-30-50.8c0,0-46.11-9.71-87.92-8.3l59,8Z" fill="#263238"/><path d="M283.77,254.28c-.034061-.082809-.05433-.170639-.06-.26l-.06-.22c0-.16-.08-.32-.13-.49-.096928-.339917-.213798-.673829-.35-1-.12-.33-.27-.65-.42-1-.163883-.31359-.351075-.614436-.56-.9s-.05,0-.08,0c-.016398-.004234-.033602-.004234-.05,0s-.05,0-.08,0c-.023007-.005521-.046993-.005521-.07,0-5.07-1-39.53-5.88-44.65-6.46s-10.35-1.07-15.53-1.5c-10.337769-.898127-20.714403-1.271939-31.09-1.12-1,0-1.94.05-2.91.09-.21-.07-.43-.11-.64-.16-.5-.12-1-.24-1.5-.34-.93-.18-1.88-.32-2.82-.46-2-.3-3.93-.51-5.88-.87-.049706,0-.09.040294-.09.09s.040294.09.09.09c2,.43,3.9,1,5.86,1.43.57.12,1.13.25,1.7.36-3.8.2-7.6.49-11.39.84-.041037.013488-.068775.051803-.068775.095s.027738.081512.068775.095c5.16-.31,10.36-.35,15.54-.26s10.26.2,15.39.5c10.38.59,20.74,1.52,31.08,2.6c5.8.61,40.93,5.74,46.75,6h.07c.05.13.1.27.16.4.16.31.32.63.5.93.157714.302287.33129.596029.52.88.09.14.18.28.28.42l.15.21c.058965.066802.109355.140707.15.22-.01-.01.19-.09.12-.21Z" fill="#455a64"/><path d="M300.94,298.71c-1.86-3-3.44-6.13-5.14-9.19s-3.41-6.14-5.12-9.21c-3.41-6.12-15.65-26.7-16.86-28.14-.08-.09-.23,0-.2.12.58,1.59,8.22,15.22,10,18.25c3.52,6.08,7.21,12,10.86,18c1,1.71,2.11,3.4,3.17,5.11s2.18,3.37,3.14,5.12c.04.15.21.05.15-.06Z" fill="#455a64"/><path d="M273.47,257.29c-3.06-.74-6.19-1.21-9.28-1.8s-6.2-1.17-9.3-1.74q-9.3-1.73-18.64-3.31c-12.4-2.08-24.86-3.82-37.39-5-7.07-.68-14.15-1.12-21.24-1.64-.15,0-.14.22,0,.23c12.61.57,25.21,2.28,37.7,4.07s24.72,3.73,37,5.81q5.22.88,10.44,1.79c3.53.61,7.06,1.36,10.61,1.81.18,0,.24-.19.1-.22Z" fill="#455a64"/><path d="M308.71,474.94c-3-.3-77.26-33.68-79.29-36.75-.78-1.15,3.45-12.26,9-25.53c1.18-2.86,2.43-5.81,3.71-8.8c8.27-19.43,17.51-39.85,17.51-39.85l49.75,22.19-18.88,39.23-4.14,8.62c0,0,22.72,25.5,24.59,29.1s.74,12.09-2.25,11.79Z" fill="#ffc4c0"/><path d="M308.71,474.94c-3-.3-77.26-33.68-79.29-36.75-.94-1.41,5.5-17.51,12.66-34.33l48.38,21.57-4.14,8.62c0,0,22.72,25.5,24.59,29.1s.79,12.09-2.2,11.79Z" fill="#fff"/><path d="M308.71,474.94c-3-.3-77.26-33.68-79.29-36.75-.78-1.15,3.45-12.26,9-25.53l47.95,21.39c0,0,22.72,25.5,24.59,29.1s.74,12.09-2.25,11.79Z" fill="#28e3bf"/><path d="M309,471.49c-12.31-5.9-62.54-28.55-75.16-33.44-.1,0-.13,0,0,.07c12.08,6.12,62.48,28.36,75.1,33.58.22.1.3-.08.06-.21Z" fill="#263238"/><path d="M307.33,458.33c-2.76926-1.326665-5.966995-1.435432-8.82-.3-2.543466.990102-4.609181,2.919773-5.77,5.39c0,.08.11.14.15.07c3.148983-4.671808,9.001161-6.708057,14.37-5c.040731.0069.080929-.014815.097487-.052662s.005224-.082107-.027487-.107338Z" fill="#263238"/><path d="M290.59,437.46c-4.95-2.31-11.52-3.15-16.45-.46-.19.1,0,.37.15.36c5.381379-.325364,10.782126-.073933,16.11.75.172549.03383.342426-.069484.39176-.238255s-.038156-.347315-.20176-.411745Z" fill="#263238"/><path d="M293.77,440.69c-5-2.31-11.52-3.15-16.45-.46-.19.1,0,.37.14.36c5.384705-.32539,10.788769-.07396,16.12.75.172549.03383.342426-.069484.39176-.238255s-.038156-.347315-.20176-.411745Z" fill="#263238"/><path d="M296.94,443.92c-4.95-2.31-11.52-3.15-16.45-.47-.19.11,0,.38.14.37c5.384705-.32539,10.788769-.07396,16.12.75.172549.03383.342426-.069484.39176-.238255s-.038156-.347315-.20176-.411745Z" fill="#263238"/><path d="M300.11,447.15c-4.95-2.31-11.52-3.15-16.45-.47-.19.11,0,.38.15.37c5.381381-.325134,10.782103-.073704,16.11.75.172549.03383.342426-.069484.39176-.238255s-.038156-.347315-.20176-.411745Z" fill="#263238"/><path d="M242.31,427.65c-5.6-2.5-9.49,6.2-3.88,8.7s9.49-6.2,3.88-8.7Z" fill="#263238"/><path d="M302,426.58c-1.59-3.22-5.68-2.61-8.21-1.13-4.300088,2.604041-7.838712,6.294419-10.26,10.7-.023381.040246-.026754.089065-.009131.132144s.054246.075537.099131.087856c-.05.4.23.89.72.8c4.65-.86,9.73-1.2,14-3.46c2.42-1.32,5.11-4.08,3.66-7.13Zm-10.88,7.85c-2.28.47-4.56.84-6.82,1.4c1.937068-2.143737,3.983103-4.186435,6.13-6.12c1.050312-.925234,2.16293-1.777238,3.33-2.55c1.82-1.16,8.58-3.12,6.64,2.52-1.11,3.12-6.6,4.18-9.32,4.75Z" fill="#263238"/><path d="M270.28,432.44c4,2.61,9.07,3.39,13.63,4.64.47.13.8-.33.78-.74.045039-.005197.084772-.031883.106621-.071608s.023108-.087572.003379-.128392c-2.034285-4.598456-5.241413-8.581501-9.3-11.55-2.4-1.68-6.43-2.65-8.28.43-1.75,2.91.7,5.89,3.06,7.42Zm-1.74-4.19c-1.45-5.79,5.12-3.25,6.84-1.94c1.096624.867982,2.13239,1.810195,3.1,2.82c1.9728,2.109067,3.835284,4.31868,5.58,6.62-2.2-.75-4.45-1.31-6.68-2-2.65-.75-8.04-2.31-8.84-5.5Z" fill="#263238"/><path d="M243.21,399.3l56,25.3c0,0,66.61-127.84,68.35-167c1.48-33.3-21.7-46.15-96.65-24.61l-18.36.23v12.67c8.06,1.06,29.56,4.44,29.56,4.44c15.64,5.9,20.68,8.34,20.43,8.85C263.48,338,243.21,399.3,243.21,399.3Z" fill="#263238"/><path d="M311.66,245.16c-2.26,3-4.35,6.14-6.35,9.34-12-5.35-25.11-8.44-38.13-10.05q-5.52-.67-11.09-1c-.15,0-.14.23,0,.24c13.175686.922496,26.196078,3.399694,38.79,7.38c3.49,1.08,6.9,2.32,10.34,3.55-2.4,3.84-4.67,7.78-6.84,11.74-4.057498,7.409648-7.709544,15.034212-10.94,22.84-1.8,4.32-3.55,8.67-5.1,13.09c0,.13.17.21.22.09q10.26-22.87,22.39-44.76c2.28-4.12,4.66-8.18,6.89-12.33.08-.11-.1-.29-.18-.13Z" fill="#455a64"/><path d="M300.39,411.07c-3.27-1.27-6.43-2.86-9.62-4.3l-9.61-4.31c-6.4-2.86-28.52-12-30.35-12.46-.12,0-.18.15-.09.21c1.42.93,15.69,7.28,18.92,8.66c6.46,2.77,13,5.33,19.49,8c1.86.75,3.73,1.46,5.6,2.19s3.76,1.4,5.59,2.23c.11.01.18-.18.07-.22Z" fill="#455a64"/><path d="M311.38,250.93c-4.41,8.39-8.17,17.17-12,25.84s-7.53,17.31-11.14,26q-10.77,26.06-20.06,52.7c-3.52,10-6.81,20.16-10,30.3-.05.15.18.2.23.06c5.93-17.94,12.35-35.72,19.05-53.38s13.8-35.08,21.32-52.37q3.17-7.28,6.43-14.51c2.18-4.83,4.45-9.63,6.49-14.51.06-.16-.21-.33-.32-.13Z" fill="#455a64"/><path d="M217.08,232.19c1.23,1.3,79,3.08,79.4,2.59c1.06-1.34-9-50.7-17.11-69.57C269,141,263.09,138.85,259.6,137.41c-4.46-1.84-12.58-1.41-14.54-.59-2.23.91-11.88,11.74-14.78,20.49-5.81,17.59-14.28,73.74-13.2,74.88Z" fill="#455a64"/><path d="M265.94,141.72h-26.05c.48-.56,1-1.09,1.4-1.57h23c.51.44,1.06.96,1.65,1.57Zm3.28,4.1h-32.58l-1.11,1.56h34.74q-.54-.82-1.05-1.56Zm3.51,5.66h-39.73c-.3.52-.58,1-.85,1.56h41.47Zm2.95,5.67h-45.34l-.06.16c-.15.44-.29.91-.44,1.4h46.59c-.25-.54-.5-1.05-.75-1.56Zm2.64,5.66h-49.63c-.13.5-.27,1-.4,1.56h50.71Zm2.36,5.66h-53.38c-.11.52-.23,1-.35,1.57h54.31c-.19-.54-.39-1.04-.58-1.57Zm2,5.67h-56.6q-.18.78-.33,1.56h57.44Zm1.77,5.66h-59.54c-.1.52-.21,1-.31,1.56h60.31c-.16-.53-.31-1.05-.47-1.56Zm1.63,5.67h-62.26c-.1.52-.19,1-.29,1.56h63c-.17-.52-.31-1.03-.46-1.56Zm1.53,5.66h-64.82c-.1.52-.19,1-.28,1.56h65.49c-.13-.52-.26-1.04-.4-1.56Zm1.45,5.66h-67.26l-.27,1.57h67.9c-.13-.52-.26-1.05-.38-1.57Zm1.37,5.67h-69.58c-.08.52-.17,1-.25,1.56h70.18Zm1.3,5.66h-71.73l-.24,1.56h72.36c-.12-.52-.28-1.04-.4-1.56Zm1.25,5.66h-73.89c-.08.53-.15,1.06-.23,1.57h74.44Zm1.18,5.67h-75.87q-.12.81-.21,1.56h76.37c-.09-.51-.2-1.01-.3-1.56Zm1.09,5.66h-77.7c-.06.55-.12,1.08-.17,1.57h78.14c-.09-.5-.18-1.03-.28-1.57Zm1,5.67h-79.25c-.074106.469801-.050274.949849.07,1.41.144224.082838.304453.133975.47.15h78.86c-.05-.46-.12-.98-.2-1.56Z" fill="#263238"/><path d="M272.49,144c33.54,25.2,62.54,60.18,59.76,71.26-2.95,11.71-26.13,24.81-46.61,27.48-4.19.55-17.16-30.2-12.87-31.61c3.35-1.1,18.57-5.43,20.39-7.51c1.26-1.45-22.35-34.67-30-52-8.08-18.21.35-14.41,9.33-7.62Z" fill="#ffc4c0"/><path d="M281.42,210.16c0,0-12.8,1.28-21.13,2.52-4.65.69-12.51,2.58-15.69,4.65-4.76,3.09-22.7,19.07-18.92,23.5c3.42,4,8.59-2.34,8.59-2.34s-6.3,6.41-1.68,9.35s10.58-6,10.58-6-7.16,6.34-1.93,9c4.54,2.31,12.48-7.23,12.48-7.23s-8.25,5.84-3.83,8.66c4.88,3.12,18.58-9.68,18.58-9.68c10.95,1.22,17.7.47,25.42-1.69c1.41-.36-12.47-30.74-12.47-30.74Z" fill="#ffc4c0"/><path d="M241.25,244c.49-.68,1-1.35,1.5-2c.944642-1.338278,1.96637-2.620446,3.06-3.84c1.09-1.17,2.23-2.29,3.4-3.38s2.61-2.17,3.81-3.35c.021436-.037255.064281-.056645.106418-.04816s.074137.042948.079482.085596-.017161.083942-.0559.102564c-1.208612,1.150512-2.350474,2.369166-3.42,3.65-1.09,1.22-2.16,2.45-3.24,3.68s-2.17,2.33-3.26,3.5c-.54.59-1,1.2-1.57,1.8-.451371.610887-.953126,1.182887-1.5,1.71-.027458.011865-.059242.007421-.082392-.01152s-.033801-.049216-.027608-.07848c.333702-.64787.736008-1.258035,1.2-1.82Z" fill="#263238"/><path d="M233,239.85c1.67554-2.540164,3.523202-4.962506,5.53-7.25c2.039205-2.273038,4.300438-4.336623,6.75-6.16.09-.06.2.06.13.14-2,2.28-4.11,4.52-6.18,6.77-1,1.1-5.45,6.23-6,6.71-.13.12-.31-.06-.23-.21Z" fill="#263238"/><path d="M248.91,248.13c1.622159-2.358803,3.399415-4.607099,5.32-6.73c2.154947-1.965483,4.451102-3.770321,6.87-5.4.09,0,.21.06.13.14-2.15,2-4.32,3.92-6.36,6-1,1-4.74,5.3-5.78,6.19-.09.04-.24-.09-.18-.2Z" fill="#263238"/><path d="M309.78,175l-25.54,16.56c0,0-18.95-29.34-23.86-43.24s.81-13.93,14.22-3.86s35.18,30.54,35.18,30.54Z" fill="#455a64"/><path d="M270.72,141.72h-12c-.053492-.521966-.053492-1.048034,0-1.57h9.61c.67.46,1.53.99,2.39,1.57Zm5.62,4.1h-16.78c.14.5.3,1,.49,1.56h18.28Zm7,5.66h-21.73c.21.5.44,1,.68,1.56h22.9c-.62-.53-1.19-1.04-1.86-1.56Zm6.65,5.67h-25.75l.78,1.56h26.75Zm6.43,5.66h-29.27c.28.51.56,1,.85,1.56h30.14Zm6.27,5.66h-32.42l.89,1.57h33.23Zm6.15,5.67h-35.3c.31.53.61,1.05.92,1.56h34.29l1-.67Zm-31.92,5.66l.94,1.56h22.14l2.4-1.56Zm3.47,5.67l1,1.56h9.92l2.41-1.56Zm3.57,5.66l.29.46.71-.46Z" fill="#263238"/><path d="M304,171.37c-9.74,7.75-19.36,13-21.27,14.35-.09.06-.17-.09-.08-.15c1.94-1.18,12.35-8.84,21.25-14.36.1-.07.17.09.1.16Z" fill="#263238"/><path d="M285.88,190.46c-.534243.23114-1.05211.498426-1.55.8-2.84-4.9-5.9-9.86-8.79-14.74l-4.24-7.16c-1.46-2.49-2.8-5.09-4.4-7.49-.016569-.030376-.054624-.041569-.085-.025s-.041569.054624-.025.085c1.041323,2.370962,2.20283,4.687301,3.48,6.94-.26-.34-.51-.7-.79-1-.63-.75-1.25-1.5-1.81-2.3-.09-.12-.3,0-.21.12.54.76,1,1.55,1.51,2.35s1,1.56,1.55,2.33s1.09,1.44,1.66,2.13c.06104.090853.127844.177698.2.26.78,1.43,1.54,2.86,2.35,4.27c2.84,4.93,9.29,14.86,9.38,14.83.650183-.357205,1.269048-.768666,1.85-1.23.04-.09.04-.19-.08-.17Z" fill="#263238"/><path d="M230.47,143c-27.22,14.14-52.78,31.34-57.58,43.29-3,7.52.71,21.15,3.74,29.34c1.48,4,39.13-11.54,36-14.85-7.74-8.18-9-11.46-8.15-13.12.53-1.06,30.32-26.92,38.68-38.58c11.66-16.24-.78-12.27-12.69-6.08Z" fill="#ffc4c0"/><path d="M226.86,237.71c-3.56,2-7.74-7.19-7.74-7.19-.130483,1.754819-.873833,3.407887-2.1,4.67-2.26,2.12-6.57-.5-6.57-.5-.520151,1.789219-1.565214,3.381198-3,4.57-2.37,1.81-7.1-.2-7.1-.2-1.383781,1.380835-3.219762,2.215371-5.17,2.35-5.22.16-9.65-6.47-12.52-10.65s-7.06-18.75-8.14-21.44l26.71-18.61c0,0,18.18,15.12,20.85,20.52c2.24,4.55,10.21,23.43,4.78,26.48Z" fill="#ffc4c0"/><path d="M219.18,230.39C218,225,215.43,219.88,213,215c-.06-.11-.23,0-.17.08c2.53,4.85,3.82,10.49,6.16,15.42.039468.02058.086721.019537.125242-.002765s.062954-.062761.064758-.107235Z" fill="#263238"/><path d="M210.74,234.36c-.400794-1.199861-.955414-2.342714-1.65-3.4-.67-1.16-1.35-2.31-2.05-3.46-1.41-2.28-2.87-4.53-4.4-6.74-.07-.1-.23,0-.17.09c1.4,2.28,2.77,4.58,4.07,6.91.65,1.17,1.29,2.35,1.93,3.52.524702,1.151631,1.175335,2.241609,1.94,3.25.05691.068793.15404.088682.233409.047795s.119564-.13152.096591-.217795Z" fill="#263238"/><path d="M200.29,239c-.373452-1.085384-.927953-2.099714-1.64-3-.67-1-1.32-2.06-2-3.09-1.31-2.07-2.61-4.14-3.84-6.25-.030921-.032254-.079486-.040081-.118975-.019175s-.060317.065471-.051025.109175c1.24,2.15,2.45,4.32,3.71,6.46.62,1,1.24,2.1,1.87,3.15.47999,1.008778,1.137065,1.923264,1.94,2.7.08,0,.15-.06.13-.06Z" fill="#263238"/><path d="M191.15,164.19l19.93,19.55c0,0,26.21-23.21,33.8-35.85s2-13.82-13.17-6.62-40.56,22.92-40.56,22.92Z" fill="#00e77f"/><path d="M191.15,164.19l19.93,19.55c0,0,26.21-23.21,33.8-35.85s2-13.82-13.17-6.62-40.56,22.92-40.56,22.92Z" fill="#455a64"/><path d="M248.2,140.15c-.065931.533367-.18314,1.059133-.35,1.57h-17.07l.93-.45c.84-.4,1.65-.77,2.43-1.12Zm-25.41,5.67l-2.88,1.56h25.27c.32-.54.62-1.07.89-1.56Zm-10.2,5.66L209.86,153h31.41c.41-.53.8-1,1.18-1.56Zm-9.77,5.67l-2.61,1.56h36.29c.46-.52.92-1,1.36-1.56Zm-9.42,5.66l-2.25,1.38.18.18h39.92l1.48-1.56Zm2.11,5.66l1.6,1.57h28.55l1.57-1.57Zm5.78,5.67l1.59,1.56h16.92l1.65-1.56Zm5.77,5.66l1.59,1.56h5.07l1.7-1.56Z" fill="#263238"/><path d="M215.22,178.63c-9.2-7.82-16-15.95-17.58-17.51-.07-.08.06-.19.13-.11c1.48,1.62,10.71,10.09,17.6,17.5.08.09-.06.2-.15.12Z" fill="#263238"/><path d="M232.85,152.64c-1,2.14-2,4.27-2.85,6.47c0-.15,0-.29,0-.44.107735-1.346168.311588-2.68291.61-4c0-.15-.19-.22-.23-.07-.3,1.33-.57,2.68-.78,4-.11.65-.17,1.3-.22,1.95.004532.079936.004532.160064,0,.24-.005678.026364-.005678.053636,0,.08-1,2.93-1.58,5.93-2.41,8.89-.016569.060751.019249.123431.08.14s.123431-.019249.14-.08c.82-2.9,2-5.71,3-8.54s1.86-5.72,2.84-8.57c.03-.09-.14-.17-.18-.07Z" fill="#263238"/><path d="M246.87,150.31c4.38,1.2,12.21-5.26,15.4-10.62.22-.37-.21-4.34-.5-9.19-.17-3-.29-6.23-.18-9.23c0-.62-19,3.88-19,3.88.937294,3.79523,1.407443,7.69075,1.4,11.6-.026897.410867-.087094.818873-.18,1.22-.006241.069861-.006241.140139,0,.21-.5,2.32-1.17,10.96,3.06,12.13Z" fill="#ffc4c0"/><path d="M260.43,121.3c-1.06,5-4.67,17.2-14.73,17-.643904.003415-1.286713-.053501-1.92-.17-.007018-.069824-.007018-.140176,0-.21.092906-.401127.153103-.809133.18-1.22.006663-3.912501-.463469-7.811235-1.4-11.61s13.76-3.19,17.87-3.79Z" fill="#263238"/><path d="M241.44,110.75c.09,4.61-3.12,8.42-7.17,8.49s-7.4-3.59-7.49-8.21s3.12-8.42,7.17-8.5s7.4,3.6,7.49,8.22Z" fill="#00e77f"/><ellipse rx="8.16" ry="9.3" transform="matrix(.999816-.019197 0.019197 0.999816 235.660316 111.165363)" fill="#c7c7c7"/><path d="M260.62,96.33c3.11,6.26,2.81,25.88-1.17,30.91-5.77,7.29-16.8,9.73-23.4,2.44-6.39-7.08-5.54-32.64-.94-37.37c6.76-6.97,20.89-5.22,25.51,4.02Z" fill="#ffc4c0"/><path d="M245.16,113.38c0,0,.1.06.1.12-.06,1.32.1,2.84,1.29,3.29c0,0,0,.08,0,.08-1.46-.22-1.65-2.25-1.39-3.49Z" fill="#263238"/><path d="M246.36,112c2.12-.14,2.24,4.13.27,4.26s-2.06-4.13-.27-4.26Z" fill="#263238"/><path d="M237.77,113.63c0,0-.11.07-.1.12.08,1.32-.06,2.84-1.24,3.32c0,0,0,.08,0,.07c1.47-.25,1.62-2.27,1.34-3.51Z" fill="#263238"/><path d="M236.55,112.28c-2.13-.1-2.18,4.17-.21,4.26s1.99-4.17.21-4.26Z" fill="#263238"/><path d="M248.23,108.58c-.584102-.041559-1.165161-.118365-1.74-.23-.624525.000739-1.232127-.202966-1.73-.58-.272885-.302247-.305832-.751149-.08-1.09.541813-.604353,1.368165-.868326,2.16-.69.81703.05067,1.584847.407794,2.15,1c.217754.297152.254495.689963.095622,1.022341s-.487626.550489-.855622.567659Z" fill="#263238"/><path d="M234.5,109.23c.59-.12,1.11-.32,1.68-.49.616209-.092148,1.185244-.383691,1.62-.83.227439-.341971.194525-.794536-.08-1.1-.626317-.51788-1.485555-.652136-2.24-.35-.808123.168561-1.522588.636536-2,1.31-.176339.33168-.151925.734206.063209,1.042142s.584692.469333.956791.417858Z" fill="#263238"/><path d="M247.72,125.6c-.31.31-.62.75-1.09.8-.49169.004273-.97882-.094516-1.43-.29s-.09,0-.06.07c.401416.517528,1.053432.774499,1.7.67.544689-.161946.938931-.635036,1-1.2.02-.08-.08-.1-.12-.05Z" fill="#263238"/><path d="M246.21,121.68c-.645687,1.076153-1.711437,1.833778-2.94,2.09-.531792.115144-1.077047.155534-1.62.12-.103074.010359-.206926.010359-.31,0h-.29c-.146221-.022621-.257868-.142537-.27-.29v0c-.004963-.046535-.004963-.093465,0-.14v0-.12c-.05-1,0-2.56,0-2.56-.36.19-2.23,1.1-2.22.57.14-4.41.29-9.31,1.36-13.67c0-.066274.053726-.12.12-.12s.12.053726.12.12c0,4.24-.67,8.46-.71,12.72.665661-.334432,1.376439-.570235,2.11-.7.14,0-.16,3-.1,3.44c1.690833.123891,3.359132-.446653,4.62-1.58.1-.07.21.01.13.12Z" fill="#263238"/><path d="M242.24,123.35c.577356.711537,1.328094,1.262537,2.18,1.6.47496.15096.98504.15096,1.46,0c1.05-.31,1.05-1.28.83-2.1-.121722-.437963-.29282-.860675-.51-1.26-1.096348.997311-2.485061,1.614517-3.96,1.76Z" fill="#263238"/><path d="M244.42,125c.47496.15096.98504.15096,1.46,0c1.05-.31,1.05-1.28.83-2.1-1.160017.07947-2.110604.951187-2.29,2.1Z" fill="#ff98b9"/><path d="M262.71,110.25c-1.28-.24-4.24-4.67-5.51-6.43s-1.77-11.06-1.84-13.16c2.253727,1.35519,4.077462,3.321079,5.26,5.67c1.38,2.8,2.09,8.27,2.09,13.92Z" opacity="0.2" fill="#263238"/><path d="M239.21,97.89c1.50663,1.741284,3.805834,2.580796,6.08,2.22c2.327554-.373015,4.293512-1.929872,5.19-4.11c0-.06.12,0,.1,0-.751107,2.370182-2.752981,4.129521-5.2,4.57-2.420553.306621-4.821162-.699349-6.3-2.64-.08-.02.06-.12.13-.04Z" fill="#263238"/><path d="M246,81.45c3.85.07,7.39,2.18,8.82,4.79.78908,1.486064,1.05335,3.195004.75,4.85c0,.07-.15.06-.14,0c.141467-2.984098-1.353127-5.808497-3.9-7.37-2.772491-1.803783-6.231407-2.20004-9.34-1.07-1.493223.51817-2.756846,1.544642-3.57,2.9-.07.14-.36,0-.3-.1c1.02-2.45,4.18-4.05,7.68-4Z" fill="#263238"/><path d="M223.68,89.93c.614574-1.90727,1.886948-3.534066,3.59-4.59c2.35-1.47,5-1.27,7.67-1c.08,0,.07.12,0,.11-2.26-.21-4.56-.29-6.63.79-1.715228.872449-3.073009,2.315092-3.84,4.08-1.521997,3.745462-.06059,8.04021,3.43,10.08c1.993266,1.100768,4.352853,1.328765,6.52.63.08,0,.14.09.06.13-2.956817,1.085379-6.273218.403581-8.562056-1.760219s-3.155677-5.436713-2.237944-8.449781Z" fill="#263238"/><path d="M261.92,100.15c0,0,3.58-6.92.49-10.88-1.76-2.24-7.5-1.88-7.5-1.88-1.558038-2.269327-3.95368-3.826853-6.66-4.33-4.82-1-10.51,1.82-10.51,1.82s-4.59-2.57-8.84-.08c-5.93,3.47-5.09,12.55.94,15.41c4.24,2,9.93-1.79,9.93-1.79.55.07,6.22,3.41,10.43-1.66c0,0,3.49,3,6.58.85c1.00955,1.84245,3.063189,2.857283,5.14,2.54Z" fill="#263238"/><path d="M259.14,112.53c0,0,3.41-6.81,6.44-5.68s1.09,10.56-2,12.27c-.775589.499357-1.721573.660033-2.618543.44476s-1.666987-.787788-2.131457-1.58476Z" fill="#ffc4c0"/><path d="M265,109.54c.05,0,.07.06,0,.09-2.17,1.27-3.07,3.59-3.6,5.93.203698-.50651.618569-.898712,1.135714-1.073657s1.084919-.115162,1.554286.163657c.07,0,0,.14,0,.13-.858421-.152285-1.720725.246929-2.16,1-.346097.634461-.621096,1.30519-.82,2-.08.23-.47.17-.42-.08v0c-.53-2.95,1.15-7.4,4.31-8.16Z" fill="#263238"/><polygon points="251.71,126.18 257.93,123.69 263.04,117.66 262.11,116.87 257.2,122.67 251.26,125.05 251.71,126.18" fill="#c7c7c7"/><path d="M252.39,125.22c-.55-1.81-5.59-1.28-4.75,1.46s5.36.32,4.75-1.46Z" fill="#37474f"/><path d="M265.68,106.67c0,0,.93-10.06-1.87-15.69-3.13-6.27-16.59-12.51-26.07-6.1c0,0,15.24-2.32,22.07,6.44c2.88,3.69,2.5,15.53,2.5,15.53Z" fill="#c7c7c7"/><ellipse rx="9.3" ry="8.16" transform="matrix(.035946-.999354 0.999354 0.035946 264.276827 111.809903)" fill="#c7c7c7"/><path d="M258.5,111.31c-.17,4.61,3,8.47,7,8.61s7.47-3.47,7.63-8.08-3-8.47-7-8.62-7.47,3.48-7.63,8.09Z" fill="#28e3bf"/><path d="M264.55,141.08c-2.055154,2.557588-4.251927,4.998076-6.58,7.31-2.25,2.1-5,4-8,4.3s-6-.28-7.11-3.92c-.9-2.89-.78-5.87-.3-9.59c0-.039299-.020966-.075613-.055-.095263s-.075966-.019649-.11,0-.055.055964-.055.095263c-.64,4.78-1.28,12.19,3.07,13.8c4.88,1.81,9.62-.74,13-4.12c2.357679-2.322962,4.456605-4.89465,6.26-7.67c0-.09-.08-.19-.12-.11Z" fill="#263238"/></g><g><rect width="88.93" height="3.99" rx="0" ry="0" transform="translate(200.68 250.56)" fill="#c7c7c7"/><polygon points="270.57,250.56 273.62,254.55 200.68,254.55 200.68,250.56 270.57,250.56" fill="#a6a6a6"/><polygon points="266.77,254.55 180.1,254.55 172.89,195.69 259.56,195.69 266.77,254.55" fill="#c7c7c7"/><path d="M225.11,225.12c.026939,1.391888-.508597,2.735821-1.485438,3.727719s-2.312424,1.547927-3.704562,1.542281c-2.921079-.010249-5.300293-2.349514-5.36-5.27-.035212-1.393468.495932-2.741695,1.47211-3.736718s2.314004-1.551847,3.70789-1.543282c2.924428.015526,5.305053,2.356252,5.37,5.28Z" fill="#fff"/></g><g><rect width="92.72" height="11.88" rx="0" ry="0" transform="translate(373.51 262.33)" fill="#5a23c8"/><rect width="87.49" height="3.71" rx="0" ry="0" transform="translate(376.12 274.21)" fill="#5a23c8"/><rect width="62.5" height="3.71" rx="0" ry="0" transform="translate(388.62 364.54)" fill="#5a23c8"/><polygon points="386.59,419.08 381.96,419.08 381.96,277.92 394.59,277.92 386.59,419.08" fill="#5a23c8"/><polygon points="394.59,277.92 394.12,286.27 381.96,286.27 381.96,277.92 394.59,277.92" fill="#5a23c8"/><polygon points="453.14,419.08 457.78,419.08 457.78,277.92 445.14,277.92 453.14,419.08" fill="#5a23c8"/><polygon points="445.14,277.92 445.62,286.27 457.77,286.27 457.77,277.92 445.14,277.92" fill="#5a23c8"/></g></svg>
