<svg xmlns="http://www.w3.org/2000/svg" xmlns:xlink="http://www.w3.org/1999/xlink" version="1.1" width="1000" height="1000" viewBox="0 0 1000 1000" xml:space="preserve">
<desc>Created with Fabric.js 3.5.0</desc>
<defs>
</defs>
<rect x="0" y="0" width="100%" height="100%" fill="rgba(99,71,204,0)"/>
<g transform="matrix(1.1542 0 0 1.1542 530.6368 534.3687)" id="113135">
<path style="stroke: none; stroke-width: 1; stroke-dasharray: none; stroke-linecap: butt; stroke-dashoffset: 0; stroke-linejoin: miter; stroke-miterlimit: 4; is-custom-font: none; font-file-url: none; fill: rgb(255,255,255); fill-rule: nonzero; opacity: 1;" vector-effect="non-scaling-stroke" transform=" translate(-256.167, -256.075)" d="M 256.099 478.959 c -11.768 -0.006 -21.954 -4.228 -30.282 -12.548 c -8.231 -8.233 -12.411 -18.375 -12.411 -30.134 c 0.019 -5.898 1.096 -11.423 3.21 -16.499 L 133.96 372.19 c -1.136 1.438 -2.387 2.832 -3.733 4.162 c -8.196 8.289 -18.345 12.521 -30.116 12.523 c -11.745 -0.004 -21.912 -4.228 -30.218 -12.551 c -8.228 -8.203 -12.406 -18.32 -12.408 -30.062 c 0.002 -11.751 4.172 -21.928 12.387 -30.248 c 7.023 -6.953 15.324 -11.003 24.765 -12.12 V 208.25 c -9.45 -1.124 -17.758 -5.229 -24.742 -12.229 c -8.228 -8.203 -12.406 -18.32 -12.408 -30.06 c 0.002 -11.751 4.172 -21.928 12.387 -30.251 c 8.35 -8.263 18.505 -12.434 30.236 -12.436 c 11.762 0.002 21.9 4.18 30.141 12.408 c 1.369 1.384 2.63 2.821 3.771 4.307 l 82.589 -47.677 c -2.106 -5.045 -3.185 -10.544 -3.202 -16.422 c 0 -11.746 4.172 -21.901 12.393 -30.203 c 8.362 -8.276 18.536 -12.467 30.285 -12.496 c 11.788 0.029 21.929 4.229 30.159 12.48 c 8.301 8.304 12.499 18.468 12.479 30.208 c 0.019 5.862 -1.037 11.372 -3.141 16.43 l 82.663 47.684 c 1.139 -1.482 2.391 -2.912 3.744 -4.283 c 8.35 -8.263 18.505 -12.434 30.231 -12.436 c 11.765 0.002 21.907 4.18 30.144 12.408 c 8.304 8.336 12.502 18.52 12.483 30.272 c 0.019 11.751 -4.188 21.872 -12.505 30.091 c -6.914 6.995 -15.215 11.099 -24.714 12.211 v 95.632 c 9.51 1.112 17.798 5.168 24.734 12.099 c 8.31 8.337 12.505 18.521 12.483 30.283 c 0.021 11.735 -4.187 21.861 -12.505 30.08 c -8.194 8.289 -18.343 12.521 -30.116 12.522 c -11.746 -0.003 -21.909 -4.227 -30.22 -12.55 c -1.354 -1.356 -2.604 -2.772 -3.749 -4.248 l -82.688 47.701 c 2.111 5.09 3.169 10.621 3.149 16.516 c 0.021 11.745 -4.183 21.894 -12.498 30.134 C 278.021 474.727 267.874 478.953 256.099 478.959 z M 228.516 420.386 c -2.782 4.736 -4.144 9.938 -4.164 15.908 c 0 8.856 3.015 16.187 9.207 22.38 c 6.286 6.281 13.658 9.336 22.54 9.342 c 8.861 -0.006 16.183 -3.052 22.377 -9.32 c 6.286 -6.229 9.313 -13.546 9.298 -22.409 c 0.019 -5.977 -1.323 -11.171 -4.104 -15.904 l 0 0 c -1.353 -2.296 -3.084 -4.5 -5.154 -6.553 c -6.214 -6.207 -13.541 -9.218 -22.42 -9.221 c -8.895 0.003 -16.272 3.021 -22.563 9.229 c -1.965 1.987 -3.656 4.191 -4.984 6.494 C 228.537 420.354 228.526 420.369 228.516 420.386 z M 261.569 393.979 c 9.458 1.114 17.737 5.167 24.667 12.093 c 1.374 1.36 2.646 2.787 3.801 4.263 l 82.692 -47.698 c -2.105 -5.028 -3.181 -10.509 -3.198 -16.354 c 0.019 -5.93 1.101 -11.479 3.22 -16.585 l -21.017 -12.122 c -8.022 5.144 -17.125 7.74 -27.147 7.756 h -63.018 V 393.979 z M 139.545 362.774 l 82.567 47.538 c 1.12 -1.459 2.352 -2.869 3.683 -4.216 c 7.045 -6.952 15.367 -11.003 24.828 -12.117 v -68.654 l -62.034 -0.062 l -1.036 0.062 c -0.095 0.005 -0.188 0.005 -0.283 0.005 h -1.437 c -9.49 -0.229 -18.063 -2.771 -25.627 -7.556 l -20.669 11.965 c 2.145 5.087 3.239 10.618 3.261 16.501 C 142.776 352.163 141.686 357.698 139.545 362.774 z M 384.628 361.989 c 0.012 0.021 0.021 0.04 0.032 0.06 c 1.342 2.303 3.052 4.505 5.091 6.543 c 6.272 6.281 13.622 9.339 22.475 9.341 c 8.86 -0.002 16.182 -3.051 22.377 -9.316 c 6.288 -6.215 9.313 -13.509 9.298 -22.343 c 0.016 -8.896 -3.021 -16.267 -9.285 -22.551 c -6.187 -6.184 -13.518 -9.196 -22.396 -9.196 c -0.017 -0.003 -0.037 -0.003 -0.057 0 c -8.838 0.016 -16.177 3.032 -22.431 9.225 c -1.999 2.023 -3.727 4.241 -5.086 6.546 c -2.784 4.773 -4.147 10.004 -4.169 15.985 C 380.499 352.166 381.856 357.318 384.628 361.989 z M 100.106 314.525 c -8.864 0 -16.223 3.021 -22.488 9.224 c -6.166 6.244 -9.186 13.624 -9.188 22.517 c 0.003 8.847 3.012 16.15 9.2 22.321 c 6.275 6.286 13.625 9.344 22.479 9.346 c 8.859 -0.002 16.183 -3.051 22.377 -9.316 c 2.079 -2.055 3.79 -4.214 5.137 -6.466 c 0 -0.006 0.005 -0.011 0.008 -0.017 c 2.819 -4.725 4.198 -9.92 4.221 -15.894 c -0.021 -5.91 -1.4 -11.108 -4.224 -15.85 c -0.002 -0.008 -0.005 -0.013 -0.01 -0.02 c 0 -0.003 0 -0.003 0 -0.003 c -0.003 -0.005 -0.006 -0.008 -0.009 -0.01 c -0.002 -0.006 0 -0.003 -0.008 -0.014 c -0.005 -0.008 -0.012 -0.02 -0.017 -0.027 c 0 -0.002 0 -0.002 0 -0.002 c -1.331 -2.314 -3.047 -4.537 -5.094 -6.605 C 116.313 317.538 108.985 314.525 100.106 314.525 z M 105.58 303.896 c 9.455 1.111 17.735 5.167 24.667 12.093 c 1.369 1.379 2.625 2.816 3.77 4.302 l 17.051 -9.871 c -0.011 -0.012 -0.021 -0.021 -0.032 -0.032 c -9.869 -9.856 -14.875 -21.929 -14.872 -35.879 c -0.003 -13.969 5 -26.064 14.872 -35.944 c 8.079 -8.065 17.646 -12.879 28.494 -14.354 c 0.08 -1.956 0.246 -3.896 0.497 -5.81 l -46.063 -26.517 c -1.138 1.438 -2.386 2.83 -3.735 4.163 c -6.897 6.979 -15.181 11.078 -24.646 12.205 L 105.58 303.896 L 105.58 303.896 z M 360.773 310.154 l 17.499 10.094 c 1.134 -1.461 2.373 -2.875 3.715 -4.23 c 7.005 -6.935 15.281 -10.987 24.694 -12.112 v -95.661 c -9.425 -1.139 -17.703 -5.236 -24.677 -12.222 c -1.321 -1.31 -2.547 -2.688 -3.669 -4.12 l -41.224 23.731 c 0.36 2.01 0.537 4.088 0.534 6.218 c 0.003 1.142 -0.051 2.27 -0.152 3.38 c 8.622 2.187 16.354 6.653 23.04 13.327 c 9.878 9.886 14.884 21.981 14.878 35.953 C 375.419 288.346 370.493 300.338 360.773 310.154 z M 163.798 306.979 c 6.503 4.783 13.753 7.204 22.173 7.409 l 2.104 -0.057 c 0.12 -0.011 0.326 0 0.363 -0.014 l 136.144 0.067 c 8.979 -0.015 16.677 -2.496 23.51 -7.591 c 0.049 -0.038 0.098 -0.075 0.147 -0.11 c 1.523 -1.178 3.073 -2.549 4.554 -4.029 c 7.862 -7.85 11.68 -17.052 11.674 -28.146 c 0.006 -11.12 -3.813 -20.349 -11.671 -28.215 c -6.46 -6.445 -13.778 -10.144 -22.377 -11.303 c -1.573 -0.212 -2.978 -1.096 -3.849 -2.422 c -0.871 -1.329 -1.122 -2.968 -0.689 -4.493 c 0.552 -1.933 0.823 -4.026 0.82 -6.226 c 0.003 -2.564 -0.36 -4.97 -1.085 -7.166 c -1.034 -3.078 -2.771 -5.799 -5.311 -8.326 c -4.332 -4.354 -9.401 -6.466 -15.507 -6.477 c -5.231 0.016 -9.689 1.544 -13.603 4.682 c -1.257 1.002 -2.892 1.399 -4.464 1.102 c -1.576 -0.306 -2.939 -1.288 -3.729 -2.687 c -2.161 -3.837 -4.951 -7.497 -8.293 -10.88 c -5.942 -5.921 -12.741 -10.064 -20.183 -12.283 c -0.011 0 -0.021 -0.005 -0.032 -0.01 c -4.563 -1.385 -9.506 -2.085 -14.686 -2.085 c -0.029 0 -0.057 0 -0.083 0 c -13.736 0 -25.127 4.714 -34.842 14.407 c -7.159 7.155 -11.566 15.134 -13.462 24.384 c -0.014 0.075 -0.026 0.145 -0.043 0.219 c -0.642 3.267 -0.968 6.741 -0.968 10.307 c -0.011 0.756 -0.011 1.439 0 2.118 c 0.038 2.972 -2.298 5.431 -5.267 5.539 c -10.313 0.388 -18.94 4.185 -26.376 11.604 c -7.853 7.861 -11.668 17.09 -11.665 28.207 c -0.003 11.097 3.813 20.299 11.668 28.144 c 1.548 1.55 3.173 2.958 4.829 4.186 C 163.67 306.884 163.736 306.932 163.798 306.979 z M 139.545 182.47 l 43.078 24.8 c 2.897 -8.453 7.762 -16.122 14.528 -22.882 c 11.708 -11.687 26.03 -17.607 42.57 -17.607 c 3.74 0.103 7.379 0.297 10.9 0.897 v -49.5 c -9.472 -1.105 -17.791 -5.184 -24.799 -12.162 c -1.347 -1.356 -2.584 -2.772 -3.712 -4.24 l -82.572 47.667 c 2.145 5.084 3.236 10.609 3.258 16.496 C 142.776 171.862 141.686 177.393 139.545 182.47 z M 304.795 188.94 c 9.055 0.018 16.874 3.273 23.257 9.685 c 2.047 2.041 3.783 4.253 5.189 6.609 l 39.537 -22.763 c -2.139 -5.065 -3.229 -10.591 -3.247 -16.493 c 0.019 -5.91 1.098 -11.436 3.215 -16.522 l -82.709 -47.704 c -1.16 1.479 -2.438 2.913 -3.821 4.279 c -6.9 6.962 -15.181 11.041 -24.646 12.146 v 52.479 c 7.659 2.915 14.678 7.521 20.898 13.727 c 2.604 2.634 4.929 5.405 6.954 8.29 C 294.057 190.207 299.204 188.957 304.795 188.94 z M 100.106 134.22 c -8.864 0.003 -16.223 3.02 -22.488 9.224 c -6.166 6.247 -9.186 13.627 -9.188 22.52 c 0.003 8.845 3.012 16.148 9.2 22.317 c 6.275 6.29 13.625 9.345 22.477 9.348 c 8.862 -0.003 16.186 -3.051 22.38 -9.316 c 2.085 -2.063 3.801 -4.225 5.142 -6.478 c 0 -0.002 0 -0.002 0 -0.002 c 0 -0.003 0 -0.003 0.003 -0.003 c 2.819 -4.725 4.198 -9.921 4.221 -15.891 c -0.021 -5.913 -1.4 -11.111 -4.218 -15.848 c -0.016 -0.026 -0.031 -0.051 -0.048 -0.074 c -1.334 -2.319 -3.05 -4.545 -5.094 -6.61 C 116.313 137.234 108.982 134.223 100.106 134.22 z M 384.729 181.882 c 1.316 2.255 2.998 4.403 5.003 6.386 c 6.274 6.289 13.604 9.344 22.428 9.359 c 8.929 -0.003 16.249 -3.055 22.438 -9.316 c 6.291 -6.215 9.315 -13.507 9.301 -22.343 c 0 -0.006 0 -0.011 0 -0.019 c 0.016 -8.877 -3.021 -16.248 -9.285 -22.532 c -6.187 -6.184 -13.518 -9.194 -22.396 -9.197 c -8.861 0.003 -16.217 3.02 -22.485 9.224 c -1.999 2.022 -3.715 4.246 -5.058 6.565 c -0.008 0.013 -0.016 0.029 -0.025 0.045 c -2.785 4.751 -4.15 9.958 -4.172 15.925 c 0.021 5.947 1.399 11.143 4.215 15.839 C 384.705 181.839 384.719 181.86 384.729 181.882 z M 256.096 107.544 c 0.04 0.003 0.057 0 0.081 0 c 8.835 0 16.131 -3.03 22.305 -9.256 c 2.103 -2.078 3.832 -4.274 5.179 -6.567 c 0.006 -0.011 0.011 -0.019 0.018 -0.026 c 2.772 -4.687 4.114 -9.858 4.097 -15.805 c 0.016 -8.873 -3.019 -16.221 -9.276 -22.483 c -6.203 -6.215 -13.533 -9.247 -22.414 -9.27 c -8.867 0.021 -16.252 3.06 -22.543 9.291 c -6.168 6.23 -9.188 13.583 -9.188 22.449 c 0.021 5.943 1.38 11.125 4.159 15.812 c 0.002 0 0.002 0.003 0.005 0.006 l 0 0 c 0.014 0.024 0.025 0.049 0.04 0.069 c 1.322 2.303 3.012 4.499 5.021 6.524 c 6.243 6.221 13.593 9.256 22.438 9.256 C 256.043 107.544 256.069 107.547 256.096 107.544 L 256.096 107.544 z M 256.177 298.654 c -0.061 0 -0.121 0 -0.181 0 c -11.708 0 -21.863 -4.194 -30.173 -12.47 c -2.67 -2.723 -4.903 -5.646 -6.688 -8.729 c -3.765 -6.292 -5.703 -13.535 -5.73 -21.463 c 0.027 -7.869 1.94 -15.06 5.688 -21.404 c 1.75 -3.073 4.014 -6.047 6.681 -8.775 c 8.395 -8.282 18.574 -12.451 30.322 -12.453 l 0 0 c 11.765 0.002 21.903 4.18 30.141 12.411 c 2.759 2.754 5.092 5.747 6.94 8.897 c 3.704 6.357 5.566 13.526 5.543 21.32 c 0.023 7.854 -1.868 15.075 -5.614 21.438 c -1.854 3.113 -4.159 6.052 -6.874 8.756 C 278.035 294.451 267.914 298.654 256.177 298.654 z M 256.096 224.303 c -8.892 0.003 -16.271 3.022 -22.563 9.232 c -1.948 1.992 -3.646 4.216 -4.974 6.546 c -2.822 4.781 -4.187 9.966 -4.207 15.911 c 0.021 5.981 1.399 11.199 4.218 15.916 c 1.368 2.355 3.044 4.548 5.027 6.566 c 6.224 6.199 13.572 9.234 22.419 9.234 c 0.046 0 0.091 0 0.14 0 c 8.856 0 16.152 -3.027 22.326 -9.255 c 2.084 -2.079 3.829 -4.294 5.2 -6.605 c 2.769 -4.691 4.109 -9.886 4.092 -15.86 c 0.019 -5.937 -1.308 -11.094 -4.046 -15.799 c -1.369 -2.33 -3.13 -4.585 -5.23 -6.683 C 272.302 227.317 264.975 224.306 256.096 224.303 z" stroke-linecap="round"/>
</g>
</svg>