<svg xmlns="http://www.w3.org/2000/svg" xmlns:xlink="http://www.w3.org/1999/xlink" version="1.1" width="1000" height="1000" viewBox="0 0 1000 1000" xml:space="preserve">
<desc>Created with Fabric.js 3.5.0</desc>
<defs>
</defs>
<rect x="0" y="0" width="100%" height="100%" fill="rgba(99,71,204,0)"/>
<g transform="matrix(3.9455 0 0 3.9455 415.1461 307.6672)" id="882077">
<g style="" vector-effect="non-scaling-stroke">
		<g transform="matrix(1 0 0 1 0 0)" id="Lager_1">
<circle style="stroke: none; stroke-width: 1; stroke-dasharray: none; stroke-linecap: butt; stroke-dashoffset: 0; stroke-linejoin: miter; stroke-miterlimit: 4; is-custom-font: none; font-file-url: none; fill: rgb(227,227,227); fill-rule: nonzero; opacity: 1;" cx="0" cy="0" r="50"/>
</g>
		<g transform="matrix(1 0 0 1 -1.7 15.05)" id="Lager_1">
<path style="stroke: none; stroke-width: 1; stroke-dasharray: none; stroke-linecap: butt; stroke-dashoffset: 0; stroke-linejoin: miter; stroke-miterlimit: 4; is-custom-font: none; font-file-url: none; fill: rgb(57,105,178); fill-rule: nonzero; opacity: 1;" transform=" translate(-62.3, -79.05)" d="M 54.8 77 l 1.7 -1 l -1.9 0.5 c -2.8 0.8 -3.2 1.7 -3.2 2.4 c 0.2 1.8 4.8 3.2 10.1 3.2 c 2.8 0 6.9 -0.4 11.1 -2.2 l 0.6 -0.2 l -0.6 -0.2 c -1.9 -0.8 -3.4 -1.6 -3.4 -1.6 l -0.1 -0.1 H 69 c -3.4 0.6 -5.5 0.9 -7.7 0.9 c -1.4 0 -2.9 -0.1 -5 -0.3 c -1.9 -0.2 -2.1 -0.6 -2.1 -0.7 C 54.2 77.4 54.5 77.1 54.8 77 z" stroke-linecap="round"/>
</g>
		<g transform="matrix(1 0 0 1 -2.0108 8)" id="Lager_1">
<path style="stroke: none; stroke-width: 1; stroke-dasharray: none; stroke-linecap: butt; stroke-dashoffset: 0; stroke-linejoin: miter; stroke-miterlimit: 4; is-custom-font: none; font-file-url: none; fill: rgb(57,105,178); fill-rule: nonzero; opacity: 1;" transform=" translate(-61.9893, -72)" d="M 74.5 73.1 l -0.7 -0.3 c -1.5 -0.5 -2.4 -1.5 -2.5 -1.5 l -0.1 -0.1 h -0.1 c -4.1 0.8 -7.3 1.1 -10.5 1.1 c -1.8 0 -3.6 -0.1 -6 -0.4 c -1.6 -0.2 -2 -0.6 -2 -0.8 c -0.1 -0.4 0.5 -1 0.7 -1.2 l 1.2 -0.9 L 53 69.5 c -2.5 0.8 -3.7 1.7 -3.5 2.7 c 0.3 1.7 4.7 2.8 10.8 2.8 c 4.5 0 9.3 -0.7 13.4 -1.9 L 74.5 73.1 z" stroke-linecap="round"/>
</g>
		<g transform="matrix(1 0 0 1 6.6007 -10.45)" id="Lager_1">
<path style="stroke: none; stroke-width: 1; stroke-dasharray: none; stroke-linecap: butt; stroke-dashoffset: 0; stroke-linejoin: miter; stroke-miterlimit: 4; is-custom-font: none; font-file-url: none; fill: rgb(243,73,44); fill-rule: nonzero; opacity: 1;" transform=" translate(-70.6008, -53.55)" d="M 63 50.5 c -0.8 2.5 0 5.3 2.5 8.1 c 0.8 0.9 1.2 1.9 1.1 2.9 c -0.2 1.9 -1.8 3.3 -1.8 3.3 L 63 66.3 l 2.1 -1.1 c 0.2 -0.1 4.3 -2.2 5 -5.4 c 0.3 -1.3 0 -2.6 -0.8 -3.8 l -0.4 -0.6 c -1.3 -1.9 -2.4 -3.3 -2 -5 c 0.5 -2.3 3.6 -4.9 10.1 -8.7 l 1.5 -0.9 l -1.7 0.4 C 76.2 41.4 64.9 44.2 63 50.5 z" stroke-linecap="round"/>
</g>
		<g transform="matrix(1 0 0 1 -2.642 20.4)" id="Lager_1">
<path style="stroke: none; stroke-width: 1; stroke-dasharray: none; stroke-linecap: butt; stroke-dashoffset: 0; stroke-linejoin: miter; stroke-miterlimit: 4; is-custom-font: none; font-file-url: none; fill: rgb(57,105,178); fill-rule: nonzero; opacity: 1;" transform=" translate(-61.3581, -84.4)" d="M 59.9 88.1 c 13.3 0 22.7 -2.5 23.2 -4.9 c 0.1 -0.4 -0.1 -1.1 -1.3 -1.7 l -1.7 -0.8 l 1.4 1.2 c 0 0 0.4 0.3 0.3 0.7 c -0.1 0.3 -0.4 0.9 -2.2 1.4 c -3.5 1.2 -11.5 2 -19.4 2 c -7.4 0 -13.1 -0.6 -15.6 -1.7 c -0.3 -0.1 -0.5 -0.3 -0.5 -0.4 c 0.1 -0.5 2.2 -1.4 3.7 -1.7 c 1 -0.2 1.6 -0.2 1.9 -0.2 c 0.1 0 0.1 0 0.1 0 l 0.9 0.1 L 50 81.4 c -0.4 -0.3 -1 -0.4 -1.8 -0.4 c -2.9 0 -8.4 2 -8.6 3.8 c -0.1 0.9 1 1.6 3.3 1.9 C 48.6 87.6 54.3 88.1 59.9 88.1 L 59.9 88.1 z" stroke-linecap="round"/>
</g>
		<g transform="matrix(1 0 0 1 -2.5035 1.6)" id="Lager_1">
<path style="stroke: none; stroke-width: 1; stroke-dasharray: none; stroke-linecap: butt; stroke-dashoffset: 0; stroke-linejoin: miter; stroke-miterlimit: 4; is-custom-font: none; font-file-url: none; fill: rgb(57,105,178); fill-rule: nonzero; opacity: 1;" transform=" translate(-61.4965, -65.6)" d="M 57.4 68.6 c 6.1 0 11.8 -0.6 15.9 -1.7 h 0.1 c 1.2 -0.8 2.8 -1.5 2.8 -1.5 l 2 -0.9 L 76 65 c 0 0 -4.7 0.8 -9.3 1.2 c -3.2 0.3 -6.6 0.4 -9.5 0.4 c -2.2 0 -4.1 -0.1 -5.3 -0.3 c -2.2 -0.3 -2.2 -0.7 -2.2 -0.7 c 0 -0.6 3.2 -1.7 6.2 -2.5 l 1.6 -0.4 l -1.6 -0.1 c 0 0 -0.2 0 -0.4 0 c -1.4 0 -5.1 0.2 -9.4 2.3 c -0.4 0.2 -1.4 0.7 -1.3 1.4 C 45 68.1 51.7 68.6 57.4 68.6 z" stroke-linecap="round"/>
</g>
		<g transform="matrix(1 0 0 1 16.4203 4.5)" id="Lager_1">
<path style="stroke: none; stroke-width: 1; stroke-dasharray: none; stroke-linecap: butt; stroke-dashoffset: 0; stroke-linejoin: miter; stroke-miterlimit: 4; is-custom-font: none; font-file-url: none; fill: rgb(57,105,178); fill-rule: nonzero; opacity: 1;" transform=" translate(-80.4203, -68.5)" d="M 77 63.4 l -0.4 0.7 l 0.7 -0.3 c 0 0 0.4 -0.2 1.3 -0.3 c 0.2 0 0.4 -0.1 0.7 -0.1 c 1.4 0 3.1 0.9 3.5 2.6 c 0.3 1.2 0.2 4.4 -6.8 8 h -0.1 v 0.1 c 0 0.1 -0.1 0.2 -0.2 0.2 L 74.9 75 l 1 -0.3 c 7.9 -2.1 10.4 -5.8 10 -8.6 c -0.3 -2.4 -2.5 -4.1 -5.3 -4.1 c -0.8 0 -1.6 0.1 -2.4 0.4 C 77.4 62.8 77 63.4 77 63.4 z" stroke-linecap="round"/>
</g>
		<g transform="matrix(1 0 0 1 -1.4037 -18.1)" id="Lager_1">
<path style="stroke: none; stroke-width: 1; stroke-dasharray: none; stroke-linecap: butt; stroke-dashoffset: 0; stroke-linejoin: miter; stroke-miterlimit: 4; is-custom-font: none; font-file-url: none; fill: rgb(243,73,44); fill-rule: nonzero; opacity: 1;" transform=" translate(-62.5962, -45.9)" d="M 62.7 63 l 0.9 0.8 l -0.5 -1.1 c -0.5 -1.2 -1.4 -2.4 -2.2 -3.5 c -2.7 -3.9 -5.5 -7.8 2.1 -13.8 c 5 -3.9 7.6 -7.8 7.8 -11.5 c 0.2 -3.3 -1.6 -5.1 -1.7 -5.2 L 68.5 28 l 0.2 0.9 c 1.7 6.7 -2.9 10.3 -7.4 13.8 c -2.2 1.8 -4.5 3.6 -6 5.7 C 52.3 53 57.1 57.9 62.7 63 z" stroke-linecap="round"/>
</g>
		<g transform="matrix(1 0 0 1 2.75 23.15)" id="Lager_1">
<path style="stroke: none; stroke-width: 1; stroke-dasharray: none; stroke-linecap: butt; stroke-dashoffset: 0; stroke-linejoin: miter; stroke-miterlimit: 4; is-custom-font: none; font-file-url: none; fill: rgb(57,105,178); fill-rule: nonzero; opacity: 1;" transform=" translate(-66.75, -87.15)" d="M 85.4 84.8 c 0 0 -1 1.9 -9 3.4 c -4.6 0.9 -10 1.3 -15.6 1.3 c -4.6 0 -9.1 -0.3 -12.5 -0.9 l -0.9 -0.2 l 0.8 0.6 c 0.2 0.1 1.8 1.2 8.9 1.7 c 2 0.1 4.2 0.2 6.3 0.2 l 0 0 c 10.7 0 22.3 -1.6 22.6 -6.1 l 0.1 -1.4 L 85.4 84.8 z" stroke-linecap="round"/>
</g>
</g>
</g>
<g transform="matrix(1.6021 0 0 1.6021 672.8637 707.9112)" id="788246">
<g style="" vector-effect="non-scaling-stroke">
		<g transform="matrix(1 0 0 1 0.0016 -0.24)">
<path style="stroke: none; stroke-width: 1; stroke-dasharray: none; stroke-linecap: butt; stroke-dashoffset: 0; stroke-linejoin: miter; stroke-miterlimit: 4; is-custom-font: none; font-file-url: none; fill: rgb(109,179,63); fill-rule: nonzero; opacity: 1;" transform=" translate(-128.0016, -127.76)" d="M 38.9437824 35.879008 C 89.5234256 -13.1200214 170.398168 -11.8028432 219.397197 39.0402357 C 224.929346 31.6640377 229.671187 23.4975328 233.095851 15.0675923 C 249.165425 64.0666217 258.912543 105.162582 255.224444 137.038295 C 253.380395 163.90873 242.842969 189.725423 225.456217 210.273403 C 180.145286 264.014274 99.53398 270.863601 45.7931091 225.55267 L 45.7931091 225.55267 L 44.765 224.638 L 44.7103323 224.601984 C 44.5420247 224.484832 44.376007 224.362668 44.2124952 224.235492 C 43.7219599 223.853965 43.2765312 223.438607 42.8762093 222.995252 L 42.732 222.831 L 41.0512675 221.3377 C 39.4121124 219.93271 37.7729573 218.52772 36.3188215 216.93771 L 35.7825547 216.332423 C -13.2164747 165.752779 -11.6358609 84.8780374 38.9437824 35.879008 Z M 57.9111486 207.375611 C 53.169307 203.687512 46.3199803 204.214383 42.6318814 208.956225 C 39.3888978 213.125775 39.4048731 218.924805 42.6798072 222.771269 L 42.732 222.831 L 44.765 224.638 L 44.9644841 224.773953 C 49.5691585 227.80174 55.7644273 227.175885 59.2982065 222.896387 L 59.4917624 222.654878 C 63.1798614 217.913037 62.3895545 211.06371 57.9111486 207.375611 Z M 231.778672 28.2393744 C 218.60689 55.9001168 185.940871 76.9749681 157.753257 83.5608592 C 131.146257 89.8833146 107.963921 84.6146018 83.4644059 94.0982849 C 27.6160498 115.436572 28.6697923 181.822354 59.2283268 196.838185 L 59.2283268 196.838185 L 61.0723763 197.891928 C 61.0723763 197.891928 83.1456487 193.50309 104.973663 187.707242 L 106.843514 187.207079 C 115.561826 184.857554 124.138869 182.296538 131.146257 179.714869 C 167.500376 166.279651 207.542593 133.08676 220.714375 94.6251562 C 213.865049 134.667374 179.35498 173.392413 144.84491 191.042601 C 126.404416 200.526284 112.178891 202.633769 81.883792 213.171195 C 78.195693 214.488373 75.297901 215.805551 75.297901 215.805551 C 75.6675607 215.754564 76.0372203 215.70481 76.4060145 215.65629 L 77.1421925 215.560893 L 77.1421925 215.560893 L 77.8745239 215.468787 C 84.5652297 214.639554 90.5771682 214.224938 90.5771682 214.224938 C 133.517178 212.117452 200.956702 226.342977 232.305544 184.45671 C 264.444692 141.780136 246.531068 72.7599979 231.778672 28.2393744 Z" stroke-linecap="round"/>
</g>
		<g transform="matrix(1 0 0 1 16.3074 -0.5524)">
<path style="stroke: none; stroke-width: 1; stroke-dasharray: none; stroke-linecap: butt; stroke-dashoffset: 0; stroke-linejoin: miter; stroke-miterlimit: 4; is-custom-font: none; font-file-url: none; fill: rgb(255,255,255); fill-rule: nonzero; opacity: 1;" transform=" translate(-144.3074, -127.4476)" d="M 57.9111486 207.375611 C 62.3895545 211.06371 63.1798614 217.913037 59.4917624 222.654878 C 55.8036635 227.39672 48.9543368 227.923591 44.2124952 224.235492 C 39.4706537 220.547393 38.9437824 213.698066 42.6318814 208.956225 C 46.3199803 204.214383 53.169307 203.687512 57.9111486 207.375611 Z M 231.778672 28.2393744 C 246.531068 72.7599979 264.444692 141.780136 232.305544 184.45671 C 200.956702 226.342977 133.517178 212.117452 90.5771682 214.224938 C 90.5771682 214.224938 84.5652297 214.639554 77.8745239 215.468787 L 77.1421925 215.560893 C 76.5300999 215.63902 75.9140004 215.720572 75.297901 215.805551 C 75.297901 215.805551 78.195693 214.488373 81.883792 213.171195 C 112.178891 202.633769 126.404416 200.526284 144.84491 191.042601 C 179.35498 173.392413 213.865049 134.667374 220.714375 94.6251562 C 207.542593 133.08676 167.500376 166.279651 131.146257 179.714869 C 106.119871 188.935116 61.0723763 197.891928 61.0723763 197.891928 L 59.2283268 196.838185 C 28.6697923 181.822354 27.6160498 115.436572 83.4644059 94.0982849 C 107.963921 84.6146018 131.146257 89.8833146 157.753257 83.5608592 C 185.940871 76.9749681 218.60689 55.9001168 231.778672 28.2393744 Z" stroke-linecap="round"/>
</g>
</g>
</g>
</svg>