<svg xmlns="http://www.w3.org/2000/svg" xmlns:xlink="http://www.w3.org/1999/xlink" version="1.1" width="1000" height="1000" viewBox="0 0 1000 1000" xml:space="preserve">
<desc>Created with Fabric.js 3.5.0</desc>
<defs>
</defs>
<rect x="0" y="0" width="100%" height="100%" fill="rgba(99,71,204,0)"/>
<g transform="matrix(4.5078 0 0 4.5078 525.9 330.5557)" id="413492">
<g style="" vector-effect="non-scaling-stroke">
		<g transform="matrix(1 0 0 1 0 0)" id="Lager_1">
<circle style="stroke: none; stroke-width: 1; stroke-dasharray: none; stroke-linecap: butt; stroke-dashoffset: 0; stroke-linejoin: miter; stroke-miterlimit: 4; is-custom-font: none; font-file-url: none; fill: rgb(240,219,79); fill-rule: nonzero; opacity: 1;" cx="0" cy="0" r="50"/>
</g>
		<g transform="matrix(1 0 0 1 -16.95 0.3)" id="Layer_1_1_">
<path style="stroke: none; stroke-width: 1; stroke-dasharray: none; stroke-linecap: butt; stroke-dashoffset: 0; stroke-linejoin: miter; stroke-miterlimit: 4; is-custom-font: none; font-file-url: none; fill: rgb(50,51,48); fill-rule: nonzero; opacity: 1;" transform=" translate(-47.05, -64.3)" d="M 48.4 44.6 h 8.7 v 24.5 c 0 11 -5.3 14.9 -13.7 14.9 c -2.1 0 -4.7 -0.3 -6.4 -0.9 l 1 -7.1 c 1.2 0.4 2.8 0.7 4.5 0.7 c 3.7 0 6 -1.7 6 -7.6 L 48.4 44.6 L 48.4 44.6 z" stroke-linecap="round"/>
</g>
		<g transform="matrix(1 0 0 1 12.3 0)" id="Layer_1_1_">
<path style="stroke: none; stroke-width: 1; stroke-dasharray: none; stroke-linecap: butt; stroke-dashoffset: 0; stroke-linejoin: miter; stroke-miterlimit: 4; is-custom-font: none; font-file-url: none; fill: rgb(50,51,48); fill-rule: nonzero; opacity: 1;" transform=" translate(-76.3, -64)" d="M 64.8 74.4 c 2.3 1.2 6 2.4 9.7 2.4 c 4 0 6.1 -1.7 6.1 -4.3 c 0 -2.4 -1.8 -3.8 -6.5 -5.4 c -6.4 -2.3 -10.7 -5.9 -10.7 -11.6 C 63.4 49 69 44 78.1 44 c 4.4 0 7.6 0.9 9.9 2 l -2 7 c -1.5 -0.7 -4.3 -1.8 -8 -1.8 c -3.8 0 -5.6 1.8 -5.6 3.7 c 0 2.5 2.1 3.6 7.2 5.5 c 6.8 2.5 10 6.1 10 11.6 c 0 6.5 -4.9 12 -15.6 12 c -4.4 0 -8.8 -1.2 -11 -2.4 L 64.8 74.4 z" stroke-linecap="round"/>
</g>
</g>
</g>
<g transform="matrix(1.0656 0 0 1.0656 550.8385 651.6582)" id="771709">
<g style="" vector-effect="non-scaling-stroke">
		<g transform="matrix(1 0 0 1 -103.9225 3.0205)" id="Layer_1">
<path style="stroke: none; stroke-width: 1; stroke-dasharray: none; stroke-linecap: butt; stroke-dashoffset: 0; stroke-linejoin: miter; stroke-miterlimit: 4; is-custom-font: none; font-file-url: none; fill: rgb(203,203,203); fill-rule: nonzero; opacity: 1;" transform=" translate(-167.5775, -71.0165)" d="M 144.039 98.272 V 43.761 h 7.051 l 33.357 43.912 V 43.761 h 6.669 v 54.511 h -7.051 l -33.354 -44.298 v 44.298 L 144.039 98.272 L 144.039 98.272 z" stroke-linecap="round"/>
</g>
		<g transform="matrix(1 0 0 1 -48.1735 3.02)" id="Layer_1">
<path style="stroke: none; stroke-width: 1; stroke-dasharray: none; stroke-linecap: butt; stroke-dashoffset: 0; stroke-linejoin: miter; stroke-miterlimit: 4; is-custom-font: none; font-file-url: none; fill: rgb(203,203,203); fill-rule: nonzero; opacity: 1;" transform=" translate(-223.3265, -71.016)" d="M 245.245 96.138 c -4.395 1.68 -9.137 2.516 -14.219 2.516 c -19.743 0 -29.618 -9.465 -29.618 -28.4 c 0 -17.916 9.53 -26.876 28.587 -26.876 c 5.467 0 10.551 0.765 15.25 2.291 v 6.098 c -4.698 -1.779 -9.53 -2.67 -14.488 -2.67 c -14.864 0 -22.294 7.054 -22.294 21.156 c 0 15.12 7.314 22.683 21.956 22.683 c 2.335 0 4.927 -0.307 7.775 -0.918 V 73.493 h 7.051 L 245.245 96.138 L 245.245 96.138 z" stroke-linecap="round"/>
</g>
		<g transform="matrix(1 0 0 1 7.6705 3.2155)" id="Layer_1">
<path style="stroke: none; stroke-width: 1; stroke-dasharray: none; stroke-linecap: butt; stroke-dashoffset: 0; stroke-linejoin: miter; stroke-miterlimit: 4; is-custom-font: none; font-file-url: none; fill: rgb(203,203,203); fill-rule: nonzero; opacity: 1;" transform=" translate(-279.1705, -71.2115)" d="M 256.491 77.231 V 43.765 h 7.047 v 33.466 c 0 10.47 5.211 15.711 15.633 15.711 c 10.418 0 15.628 -5.241 15.628 -15.711 V 43.765 h 7.051 v 33.466 c 0 14.287 -7.561 21.427 -22.679 21.427 C 264.051 98.657 256.491 91.518 256.491 77.231 L 256.491 77.231 z" stroke-linecap="round"/>
</g>
		<g transform="matrix(1 0 0 1 60.716 3.0215)" id="Layer_1">
<path style="stroke: none; stroke-width: 1; stroke-dasharray: none; stroke-linecap: butt; stroke-dashoffset: 0; stroke-linejoin: miter; stroke-miterlimit: 4; is-custom-font: none; font-file-url: none; fill: rgb(203,203,203); fill-rule: nonzero; opacity: 1;" transform=" translate(-332.216, -71.0175)" d="M 321.48 43.762 v 48.795 H 350 v 5.716 h -35.568 V 43.762 L 321.48 43.762 L 321.48 43.762 z" stroke-linecap="round"/>
</g>
		<g transform="matrix(1 0 0 1 108.458 -0.573)" id="Layer_1">
<path style="stroke: none; stroke-width: 1; stroke-dasharray: none; stroke-linecap: butt; stroke-dashoffset: 0; stroke-linejoin: miter; stroke-miterlimit: 4; is-custom-font: none; font-file-url: none; fill: rgb(203,203,203); fill-rule: nonzero; opacity: 1;" transform=" translate(-379.958, -67.423)" d="M 360.175 98.274 h -7.319 l 27.102 -61.702 l 27.102 61.702 h -7.812 l -7.056 -17.155 h -18.025 l 1.943 -5.713 h 13.723 l -10.179 -24.705 L 360.175 98.274 z" stroke-linecap="round"/>
</g>
		<g transform="matrix(1 0 0 1 164.151 3.022)" id="Layer_1">
<path style="stroke: none; stroke-width: 1; stroke-dasharray: none; stroke-linecap: butt; stroke-dashoffset: 0; stroke-linejoin: miter; stroke-miterlimit: 4; is-custom-font: none; font-file-url: none; fill: rgb(203,203,203); fill-rule: nonzero; opacity: 1;" transform=" translate(-435.651, -71.018)" d="M 414.494 98.273 V 43.762 h 23.252 c 10.371 0 15.555 4.36 15.555 13.075 c 0 7.092 -5.068 12.34 -15.209 15.742 l 18.716 25.695 h -9.302 l -17.343 -24.51 v -4.61 c 10.418 -1.656 15.625 -5.658 15.625 -12.009 c 0 -5.03 -2.896 -7.55 -8.687 -7.55 h -15.556 v 48.679 h -7.051 V 98.273 z" stroke-linecap="round"/>
</g>
		<g transform="matrix(1 0 0 1 202.481 3.0215)" id="Layer_1">
<path style="stroke: none; stroke-width: 1; stroke-dasharray: none; stroke-linecap: butt; stroke-dashoffset: 0; stroke-linejoin: miter; stroke-miterlimit: 4; is-custom-font: none; font-file-url: none; fill: rgb(203,203,203); fill-rule: nonzero; opacity: 1;" transform=" translate(-473.981, -71.0175)" d="M 483.226 43.762 v 38.807 c 0 10.47 -6.162 15.704 -18.49 15.704 v -5.716 c 7.625 0 11.439 -3.332 11.439 -9.988 V 43.762 H 483.226 z" stroke-linecap="round"/>
</g>
		<g transform="matrix(1 0 0 1 243.1755 3.021)" id="Layer_1">
<path style="stroke: none; stroke-width: 1; stroke-dasharray: none; stroke-linecap: butt; stroke-dashoffset: 0; stroke-linejoin: miter; stroke-miterlimit: 4; is-custom-font: none; font-file-url: none; fill: rgb(203,203,203); fill-rule: nonzero; opacity: 1;" transform=" translate(-514.6755, -71.017)" d="M 495.805 96.366 v -6.481 c 5.72 2.031 11.893 3.053 18.528 3.053 c 9.377 0 14.069 -3.432 14.069 -10.298 c 0 -5.836 -3.459 -8.765 -10.37 -8.765 h -7.018 c -11.407 0 -17.117 -4.951 -17.117 -14.864 c 0 -10.418 7.311 -15.632 21.926 -15.632 c 6.35 0 12.257 0.768 17.725 2.291 v 6.481 c -5.468 -2.035 -11.374 -3.052 -17.725 -3.052 c -9.913 0 -14.867 3.305 -14.867 9.912 c 0 5.842 3.353 8.765 10.059 8.765 h 7.018 c 11.609 0 17.421 4.959 17.421 14.864 c 0 10.677 -7.037 16.015 -21.12 16.015 C 507.698 98.654 501.525 97.889 495.805 96.366 L 495.805 96.366 z" stroke-linecap="round"/>
</g>
		<g transform="matrix(1 0 0 1 -102.1385 1.2405)" id="Layer_1">
<path style="stroke: none; stroke-width: 1; stroke-dasharray: none; stroke-linecap: butt; stroke-dashoffset: 0; stroke-linejoin: miter; stroke-miterlimit: 4; is-custom-font: none; font-file-url: none; fill: rgb(0,0,0); fill-rule: nonzero; opacity: 1;" transform=" translate(-169.3615, -69.2365)" d="M 145.823 96.492 V 41.981 h 7.051 l 33.354 43.912 V 41.981 h 6.672 v 54.511 h -7.051 l -33.357 -44.298 v 44.298 H 145.823 z" stroke-linecap="round"/>
</g>
		<g transform="matrix(1 0 0 1 -46.39 1.239)" id="Layer_1">
<path style="stroke: none; stroke-width: 1; stroke-dasharray: none; stroke-linecap: butt; stroke-dashoffset: 0; stroke-linejoin: miter; stroke-miterlimit: 4; is-custom-font: none; font-file-url: none; fill: rgb(0,0,0); fill-rule: nonzero; opacity: 1;" transform=" translate(-225.11, -69.235)" d="M 247.028 94.356 c -4.395 1.68 -9.134 2.517 -14.218 2.517 c -19.743 0 -29.618 -9.465 -29.618 -28.4 c 0 -17.916 9.53 -26.876 28.59 -26.876 c 5.463 0 10.548 0.765 15.246 2.291 v 6.098 c -4.698 -1.779 -9.53 -2.67 -14.485 -2.67 c -14.864 0 -22.297 7.054 -22.297 21.156 c 0 15.12 7.318 22.684 21.956 22.684 c 2.336 0 4.931 -0.305 7.778 -0.919 V 71.712 h 7.048 L 247.028 94.356 L 247.028 94.356 z" stroke-linecap="round"/>
</g>
		<g transform="matrix(1 0 0 1 9.454 1.4295)" id="Layer_1">
<path style="stroke: none; stroke-width: 1; stroke-dasharray: none; stroke-linecap: butt; stroke-dashoffset: 0; stroke-linejoin: miter; stroke-miterlimit: 4; is-custom-font: none; font-file-url: none; fill: rgb(0,0,0); fill-rule: nonzero; opacity: 1;" transform=" translate(-280.954, -69.4255)" d="M 258.274 75.449 v -33.47 h 7.048 v 33.47 c 0 10.469 5.21 15.707 15.631 15.707 c 10.418 0 15.63 -5.238 15.63 -15.707 v -33.47 h 7.051 v 33.47 c 0 14.286 -7.561 21.423 -22.681 21.423 C 265.834 96.872 258.274 89.735 258.274 75.449 L 258.274 75.449 z" stroke-linecap="round"/>
</g>
		<g transform="matrix(1 0 0 1 62.4985 1.2375)" id="Layer_1">
<path style="stroke: none; stroke-width: 1; stroke-dasharray: none; stroke-linecap: butt; stroke-dashoffset: 0; stroke-linejoin: miter; stroke-miterlimit: 4; is-custom-font: none; font-file-url: none; fill: rgb(0,0,0); fill-rule: nonzero; opacity: 1;" transform=" translate(-333.9985, -69.2335)" d="M 323.265 41.978 v 48.795 h 28.515 v 5.716 h -35.563 V 41.978 L 323.265 41.978 L 323.265 41.978 z" stroke-linecap="round"/>
</g>
		<g transform="matrix(1 0 0 1 110.242 -2.358)" id="Layer_1">
<path style="stroke: none; stroke-width: 1; stroke-dasharray: none; stroke-linecap: butt; stroke-dashoffset: 0; stroke-linejoin: miter; stroke-miterlimit: 4; is-custom-font: none; font-file-url: none; fill: rgb(0,0,0); fill-rule: nonzero; opacity: 1;" transform=" translate(-381.742, -65.638)" d="M 361.958 96.491 h -7.317 l 27.102 -61.706 l 27.1 61.706 h -7.815 l -7.051 -17.155 h -18.03 l 1.946 -5.716 h 13.72 l -10.176 -24.705 L 361.958 96.491 z" stroke-linecap="round"/>
</g>
		<g transform="matrix(1 0 0 1 165.9345 1.241)" id="Layer_1">
<path style="stroke: none; stroke-width: 1; stroke-dasharray: none; stroke-linecap: butt; stroke-dashoffset: 0; stroke-linejoin: miter; stroke-miterlimit: 4; is-custom-font: none; font-file-url: none; fill: rgb(0,0,0); fill-rule: nonzero; opacity: 1;" transform=" translate(-437.4345, -69.237)" d="M 416.278 96.492 V 41.981 h 23.254 c 10.37 0 15.55 4.357 15.55 13.075 c 0 7.089 -5.065 12.34 -15.206 15.741 l 18.715 25.695 h -9.305 l -17.34 -24.51 v -4.613 c 10.418 -1.656 15.63 -5.654 15.63 -12.009 c 0 -5.03 -2.899 -7.546 -8.695 -7.546 h -15.553 v 48.679 h -7.05 V 96.492 z" stroke-linecap="round"/>
</g>
		<g transform="matrix(1 0 0 1 204.264 1.2375)" id="Layer_1">
<path style="stroke: none; stroke-width: 1; stroke-dasharray: none; stroke-linecap: butt; stroke-dashoffset: 0; stroke-linejoin: miter; stroke-miterlimit: 4; is-custom-font: none; font-file-url: none; fill: rgb(181,46,49); fill-rule: nonzero; opacity: 1;" transform=" translate(-475.764, -69.2335)" d="M 485.009 41.978 v 38.807 c 0 10.473 -6.164 15.704 -18.49 15.704 v -5.716 c 7.624 0 11.439 -3.333 11.439 -9.988 V 41.978 H 485.009 z" stroke-linecap="round"/>
</g>
		<g transform="matrix(1 0 0 1 244.956 1.2375)" id="Layer_1">
<path style="stroke: none; stroke-width: 1; stroke-dasharray: none; stroke-linecap: butt; stroke-dashoffset: 0; stroke-linejoin: miter; stroke-miterlimit: 4; is-custom-font: none; font-file-url: none; fill: rgb(181,46,49); fill-rule: nonzero; opacity: 1;" transform=" translate(-516.456, -69.2335)" d="M 497.587 94.583 v -6.481 c 5.719 2.031 11.893 3.053 18.528 3.053 c 9.376 0 14.068 -3.431 14.068 -10.295 c 0 -5.839 -3.459 -8.765 -10.37 -8.765 h -7.016 c -11.409 0 -17.119 -4.954 -17.119 -14.867 c 0 -10.418 7.308 -15.632 21.926 -15.632 c 6.352 0 12.259 0.768 17.725 2.291 v 6.481 c -5.466 -2.035 -11.373 -3.053 -17.725 -3.053 c -9.913 0 -14.867 3.305 -14.867 9.912 c 0 5.842 3.35 8.766 10.06 8.766 h 7.016 c 11.61 0 17.421 4.958 17.421 14.867 c 0 10.674 -7.037 16.011 -21.119 16.011 C 509.48 96.87 503.305 96.106 497.587 94.583 L 497.587 94.583 z" stroke-linecap="round"/>
</g>
		<g transform="matrix(1 0 0 1 156.6155 55.0985)" id="Layer_1">
<path style="stroke: none; stroke-width: 1; stroke-dasharray: none; stroke-linecap: butt; stroke-dashoffset: 0; stroke-linejoin: miter; stroke-miterlimit: 4; is-custom-font: none; font-file-url: none; fill: rgb(0,0,0); fill-rule: nonzero; opacity: 1;" transform=" translate(-428.1155, -123.0945)" d="M 418.991 127.765 h 1.498 v -1.236 c 0.344 0.463 0.668 0.8 0.97 1.01 c 0.507 0.355 1.129 0.532 1.866 0.532 c 1.316 0 2.346 -0.505 3.089 -1.516 c 0.741 -1.011 1.113 -2.28 1.113 -3.807 c 0 -1.612 -0.376 -2.832 -1.126 -3.659 c -0.752 -0.827 -1.732 -1.241 -2.94 -1.241 c -0.58 0 -1.117 0.122 -1.612 0.365 c -0.496 0.244 -0.922 0.597 -1.278 1.06 v -4.809 h -1.579 L 418.991 127.765 L 418.991 127.765 z M 423.224 126.637 c -1.171 0 -1.971 -0.532 -2.4 -1.597 c -0.229 -0.565 -0.344 -1.302 -0.344 -2.211 c 0 -1.257 0.28 -2.159 0.838 -2.707 c 0.559 -0.547 1.209 -0.821 1.952 -0.821 c 0.85 0 1.495 0.334 1.932 1.001 s 0.656 1.51 0.656 2.526 c 0 1.143 -0.218 2.063 -0.656 2.761 C 424.763 126.288 424.103 126.637 423.224 126.637 L 423.224 126.637 L 423.224 126.637 z M 432.836 125.972 l -2.589 -7.871 h -1.841 l 3.573 9.947 c -0.084 0.216 -0.218 0.546 -0.404 0.99 s -0.295 0.69 -0.325 0.738 c -0.096 0.144 -0.215 0.265 -0.355 0.365 c -0.141 0.099 -0.362 0.149 -0.663 0.149 c -0.096 0 -0.207 -0.009 -0.332 -0.027 c -0.126 -0.018 -0.331 -0.066 -0.614 -0.144 v 1.48 c 0.18 0.048 0.332 0.081 0.456 0.099 c 0.123 0.018 0.299 0.027 0.528 0.027 c 0.937 0 1.599 -0.271 1.983 -0.812 c 0.383 -0.541 1.045 -2.044 1.982 -4.507 c 0.397 -1.047 0.89 -2.401 1.48 -4.062 c 0.788 -2.208 1.296 -3.623 1.525 -4.242 h -1.796 L 432.836 125.972 L 432.836 125.972 z" stroke-linecap="round"/>
</g>
		<g transform="matrix(1 0 0 1 -199.6325 -0.3395)" id="Layer_1">
<path style="stroke: none; stroke-width: 1; stroke-dasharray: none; stroke-linecap: butt; stroke-dashoffset: 0; stroke-linejoin: miter; stroke-miterlimit: 4; is-custom-font: none; font-file-url: none; fill: rgb(178,178,178); fill-rule: nonzero; opacity: 1;" transform=" translate(-71.8675, -67.6565)" d="M 71.663 0 L 8 22.405 l 10.06 83.409 l 53.671 29.499 l 53.947 -29.899 l 10.057 -83.406 L 71.663 0 z" stroke-linecap="round"/>
</g>
		<g transform="matrix(1 0 0 1 -171.05 -0.317)" id="Layer_1">
<path style="stroke: none; stroke-width: 1; stroke-dasharray: none; stroke-linecap: butt; stroke-dashoffset: 0; stroke-linejoin: miter; stroke-miterlimit: 4; is-custom-font: none; font-file-url: none; fill: rgb(181,46,49); fill-rule: nonzero; opacity: 1;" transform=" translate(-100.45, -67.679)" d="M 129.385 26.828 L 71.515 7.094 v 121.17 l 48.498 -26.84 L 129.385 26.828 z" stroke-linecap="round"/>
</g>
		<g transform="matrix(1 0 0 1 -228.1715 -0.3175)" id="Layer_1">
<path style="stroke: none; stroke-width: 1; stroke-dasharray: none; stroke-linecap: butt; stroke-dashoffset: 0; stroke-linejoin: miter; stroke-miterlimit: 4; is-custom-font: none; font-file-url: none; fill: rgb(226,50,55); fill-rule: nonzero; opacity: 1;" transform=" translate(-43.3285, -67.6785)" d="M 15.144 27.184 l 8.62 74.597 l 47.749 26.484 V 7.092 L 15.144 27.184 z" stroke-linecap="round"/>
</g>
		<g transform="matrix(1 0 0 1 -199.299 -12.719)" id="Layer_1">
<path style="stroke: none; stroke-width: 1; stroke-dasharray: none; stroke-linecap: butt; stroke-dashoffset: 0; stroke-linejoin: miter; stroke-miterlimit: 4; is-custom-font: none; font-file-url: none; fill: rgb(242,242,242); fill-rule: nonzero; opacity: 1;" transform=" translate(-72.201, -55.277)" d="M 84.928 67.362 L 71.62 39.571 L 59.904 67.363 h 25.024 V 67.362 z M 90.002 79.049 H 54.725 l -7.892 19.74 l -14.68 0.271 l 39.362 -87.566 l 40.734 87.566 H 98.642 L 90.002 79.049 z" stroke-linecap="round"/>
</g>
		<g transform="matrix(1 0 0 1 -179.3975 -12.5865)" id="Layer_1">
<path style="stroke: none; stroke-width: 1; stroke-dasharray: none; stroke-linecap: butt; stroke-dashoffset: 0; stroke-linejoin: miter; stroke-miterlimit: 4; is-custom-font: none; font-file-url: none; fill: rgb(178,178,178); fill-rule: nonzero; opacity: 1;" transform=" translate(-92.1025, -55.4095)" d="M 71.515 11.494 L 71.62 39.57 l 13.295 27.814 h -13.37 l -0.03 11.647 l 18.487 0.018 l 8.641 20.015 l 14.047 0.261 L 71.515 11.494 z" stroke-linecap="round"/>
</g>
		<g transform="matrix(1 0 0 1 203.8085 52.0395)" id="Layer_1">
<path style="stroke: none; stroke-width: 1; stroke-dasharray: none; stroke-linecap: butt; stroke-dashoffset: 0; stroke-linejoin: miter; stroke-miterlimit: 4; is-custom-font: none; font-file-url: none; fill: rgb(0,0,0); fill-rule: nonzero; opacity: 1;" transform=" translate(-475.3085, -120.0355)" d="M 475.155 127.242 c -4.774 0 -7.32 -3.732 -7.32 -7.101 c 0 -3.941 3.209 -7.312 7.772 -7.312 c 4.414 0 7.175 3.46 7.175 7.101 C 482.782 123.48 480.052 127.242 475.155 127.242 z M 478.937 124.795 c 0.723 -0.95 0.9 -2.136 0.9 -3.31 c 0 -2.62 -1.261 -7.625 -4.978 -7.625 c -0.992 0 -1.979 0.385 -2.699 1.014 c -1.171 1.041 -1.382 2.35 -1.382 3.632 c 0 2.953 1.471 7.811 5.095 7.811 C 477.049 126.318 478.246 125.753 478.937 124.795 z" stroke-linecap="round"/>
</g>
		<g transform="matrix(1 0 0 1 203.8085 52.0395)" id="Layer_1">
<linearGradient id="SVGID_29" gradientUnits="userSpaceOnUse" gradientTransform="matrix(1 0 0 -1 0 175.89)" x1="475.3085" y1="65.4186" x2="475.3085" y2="55.9265">
<stop offset="0%" style="stop-color:rgb(255,255,255);stop-opacity: 0.15"/>
<stop offset="100%" style="stop-color:rgb(255,255,255);stop-opacity: 0"/>
</linearGradient>
<path style="stroke: none; stroke-width: 1; stroke-dasharray: none; stroke-linecap: butt; stroke-dashoffset: 0; stroke-linejoin: miter; stroke-miterlimit: 4; is-custom-font: none; font-file-url: none; fill: url(#SVGID_29); fill-rule: nonzero; opacity: 1;" transform=" translate(-475.3085, -120.0355)" d="M 475.155 127.242 c -4.774 0 -7.32 -3.732 -7.32 -7.101 c 0 -3.941 3.209 -7.312 7.772 -7.312 c 4.414 0 7.175 3.46 7.175 7.101 C 482.782 123.48 480.052 127.242 475.155 127.242 z M 478.937 124.795 c 0.723 -0.95 0.9 -2.136 0.9 -3.31 c 0 -2.62 -1.261 -7.625 -4.978 -7.625 c -0.992 0 -1.979 0.385 -2.699 1.014 c -1.171 1.041 -1.382 2.35 -1.382 3.632 c 0 2.953 1.471 7.811 5.095 7.811 C 477.049 126.318 478.246 125.753 478.937 124.795 z" stroke-linecap="round"/>
</g>
		<g transform="matrix(1 0 0 1 246.163 48.245)" id="Layer_1">
<path style="stroke: none; stroke-width: 1; stroke-dasharray: none; stroke-linecap: butt; stroke-dashoffset: 0; stroke-linejoin: miter; stroke-miterlimit: 4; is-custom-font: none; font-file-url: none; fill: rgb(0,0,0); fill-rule: nonzero; opacity: 1;" transform=" translate(-517.663, -116.241)" d="M 520.425 126.825 l 0.889 -0.887 l -1.656 -0.206 c -0.42 -0.051 -0.726 -0.401 -0.726 -0.83 v -17.589 c 0 -0.217 0.086 -0.419 0.229 -0.564 l 1.096 -1.093 h -4.962 l -1.283 1.282 h 1.923 v 18.231 c 0 0.22 -0.089 0.42 -0.231 0.565 l -1.094 1.092 h 5.815 V 126.825 z" stroke-linecap="round"/>
</g>
		<g transform="matrix(1 0 0 1 246.163 48.245)" id="Layer_1">
<linearGradient id="SVGID_30" gradientUnits="userSpaceOnUse" gradientTransform="matrix(1 0 0 -1 0 175.89)" x1="517.663" y1="73.8326" x2="517.663" y2="62.0832">
<stop offset="0%" style="stop-color:rgb(255,255,255);stop-opacity: 0.15"/>
<stop offset="100%" style="stop-color:rgb(255,255,255);stop-opacity: 0"/>
</linearGradient>
<path style="stroke: none; stroke-width: 1; stroke-dasharray: none; stroke-linecap: butt; stroke-dashoffset: 0; stroke-linejoin: miter; stroke-miterlimit: 4; is-custom-font: none; font-file-url: none; fill: url(#SVGID_30); fill-rule: nonzero; opacity: 0.5;" transform=" translate(-517.663, -116.241)" d="M 520.425 126.825 l 0.889 -0.887 l -1.656 -0.206 c -0.42 -0.051 -0.726 -0.401 -0.726 -0.83 v -17.589 c 0 -0.217 0.086 -0.419 0.229 -0.564 l 1.096 -1.093 h -4.962 l -1.283 1.282 h 1.923 v 18.231 c 0 0.22 -0.089 0.42 -0.231 0.565 l -1.094 1.092 h 5.815 V 126.825 z" stroke-linecap="round"/>
</g>
		<g transform="matrix(1 0 0 1 256.432 52.0405)" id="Layer_1">
<path style="stroke: none; stroke-width: 1; stroke-dasharray: none; stroke-linecap: butt; stroke-dashoffset: 0; stroke-linejoin: miter; stroke-miterlimit: 4; is-custom-font: none; font-file-url: none; fill: rgb(0,0,0); fill-rule: nonzero; opacity: 1;" transform=" translate(-527.932, -120.0365)" d="M 530.578 125.692 c -2.665 0 -5.119 -1.923 -5.998 -5.336 l 9.209 -3.722 c -0.496 -1.775 -1.892 -3.804 -5.524 -3.804 c -2.995 0 -6.652 2.278 -6.652 6.921 c 0 3.657 2.449 7.492 7.117 7.492 c 0.969 0 2.483 -0.061 4.027 -1.17 c 0.588 -0.408 1.081 -0.898 1.494 -1.44 C 533.22 125.142 532.124 125.692 530.578 125.692 z M 527.712 113.846 c 1.636 0 2.998 1.355 2.998 2.554 c 0 0.42 -0.3 0.601 -0.876 0.811 l -5.462 2.214 C 523.525 114.914 526.472 113.846 527.712 113.846 z" stroke-linecap="round"/>
</g>
		<g transform="matrix(1 0 0 1 256.432 52.0405)" id="Layer_1">
<linearGradient id="SVGID_31" gradientUnits="userSpaceOnUse" gradientTransform="matrix(1 0 0 -1 0 175.89)" x1="527.932" y1="65.4186" x2="527.932" y2="55.9265">
<stop offset="0%" style="stop-color:rgb(255,255,255);stop-opacity: 0.15"/>
<stop offset="100%" style="stop-color:rgb(255,255,255);stop-opacity: 0"/>
</linearGradient>
<path style="stroke: none; stroke-width: 1; stroke-dasharray: none; stroke-linecap: butt; stroke-dashoffset: 0; stroke-linejoin: miter; stroke-miterlimit: 4; is-custom-font: none; font-file-url: none; fill: url(#SVGID_31); fill-rule: nonzero; opacity: 1;" transform=" translate(-527.932, -120.0365)" d="M 530.578 125.692 c -2.665 0 -5.119 -1.923 -5.998 -5.336 l 9.209 -3.722 c -0.496 -1.775 -1.892 -3.804 -5.524 -3.804 c -2.995 0 -6.652 2.278 -6.652 6.921 c 0 3.657 2.449 7.492 7.117 7.492 c 0.969 0 2.483 -0.061 4.027 -1.17 c 0.588 -0.408 1.081 -0.898 1.494 -1.44 C 533.22 125.142 532.124 125.692 530.578 125.692 z M 527.712 113.846 c 1.636 0 2.998 1.355 2.998 2.554 c 0 0.42 -0.3 0.601 -0.876 0.811 l -5.462 2.214 C 523.525 114.914 526.472 113.846 527.712 113.846 z" stroke-linecap="round"/>
</g>
		<g transform="matrix(1 0 0 1 220.2745 52.0395)" id="Layer_1">
<path style="stroke: none; stroke-width: 1; stroke-dasharray: none; stroke-linecap: butt; stroke-dashoffset: 0; stroke-linejoin: miter; stroke-miterlimit: 4; is-custom-font: none; font-file-url: none; fill: rgb(0,0,0); fill-rule: nonzero; opacity: 1;" transform=" translate(-491.7745, -120.0355)" d="M 491.619 127.242 c -4.774 0 -7.318 -3.732 -7.318 -7.101 c 0 -3.941 3.206 -7.312 7.77 -7.312 c 4.415 0 7.177 3.46 7.177 7.101 C 499.247 123.48 496.517 127.242 491.619 127.242 z M 495.402 124.795 c 0.723 -0.95 0.901 -2.136 0.901 -3.31 c 0 -2.62 -1.26 -7.625 -4.979 -7.625 c -0.991 0 -1.977 0.385 -2.699 1.014 c -1.169 1.041 -1.382 2.35 -1.382 3.632 c 0 2.953 1.471 7.811 5.094 7.811 C 493.514 126.318 494.711 125.753 495.402 124.795 z" stroke-linecap="round"/>
</g>
		<g transform="matrix(1 0 0 1 220.2745 52.0395)" id="Layer_1">
<linearGradient id="SVGID_32" gradientUnits="userSpaceOnUse" gradientTransform="matrix(1 0 0 -1 0 175.89)" x1="491.7745" y1="65.3042" x2="491.7745" y2="53.3208">
<stop offset="0%" style="stop-color:rgb(255,255,255);stop-opacity: 0.15"/>
<stop offset="100%" style="stop-color:rgb(255,255,255);stop-opacity: 0"/>
</linearGradient>
<path style="stroke: none; stroke-width: 1; stroke-dasharray: none; stroke-linecap: butt; stroke-dashoffset: 0; stroke-linejoin: miter; stroke-miterlimit: 4; is-custom-font: none; font-file-url: none; fill: url(#SVGID_32); fill-rule: nonzero; opacity: 1;" transform=" translate(-491.7745, -120.0355)" d="M 491.619 127.242 c -4.774 0 -7.318 -3.732 -7.318 -7.101 c 0 -3.941 3.206 -7.312 7.77 -7.312 c 4.415 0 7.177 3.46 7.177 7.101 C 499.247 123.48 496.517 127.242 491.619 127.242 z M 495.402 124.795 c 0.723 -0.95 0.901 -2.136 0.901 -3.31 c 0 -2.62 -1.26 -7.625 -4.979 -7.625 c -0.991 0 -1.977 0.385 -2.699 1.014 c -1.169 1.041 -1.382 2.35 -1.382 3.632 c 0 2.953 1.471 7.811 5.094 7.811 C 493.514 126.318 494.711 125.753 495.402 124.795 z" stroke-linecap="round"/>
</g>
		<g transform="matrix(1 0 0 1 235.026 56.4145)" id="Layer_1">
<path style="stroke: none; stroke-width: 1; stroke-dasharray: none; stroke-linecap: butt; stroke-dashoffset: 0; stroke-linejoin: miter; stroke-miterlimit: 4; is-custom-font: none; font-file-url: none; fill: rgb(0,0,0); fill-rule: nonzero; opacity: 1;" transform=" translate(-506.526, -124.4105)" d="M 511.232 125.974 l -1.092 -0.846 c -0.333 -0.273 -0.801 -0.635 -0.801 -1.303 c 0 -0.672 0.433 -1.185 0.824 -1.487 c 1.306 -1.015 2.556 -2.097 2.556 -4.337 c 0 -2.039 -1.23 -3.229 -1.996 -3.901 h 1.695 l 1.274 -1.271 h -6.236 c -4.356 0 -6.574 2.714 -6.574 5.724 c 0 2.331 1.768 4.807 4.959 4.807 c 0.256 0 0.901 0 0.901 0 c -0.115 0.323 -0.236 0.689 -0.236 1.11 c 0 0.938 0.442 1.427 0.905 1.947 c -1.368 0.09 -3.92 0.351 -5.802 1.5 c -1.792 1.068 -2.331 2.611 -2.331 3.701 c 0 2.249 2.156 4.374 6.553 4.374 c 5.224 0 7.943 -2.913 7.943 -5.765 C 513.774 128.126 512.566 127.099 511.232 125.974 z M 507.368 122.468 c -2.494 0 -3.85 -3.1 -3.85 -5.455 c 0 -2.238 1.327 -3.232 2.716 -3.232 c 2.67 0 4.052 3.471 4.052 5.58 C 510.286 121.965 508.196 122.468 507.368 122.468 z M 507.329 134.663 c -3.246 0 -5.346 -1.553 -5.346 -3.71 c 0 -2.151 1.944 -2.883 2.612 -3.126 c 1.272 -0.429 2.914 -0.485 3.191 -0.485 c 0.298 0 0.449 0.002 0.691 0.029 c 2.312 1.65 3.311 2.462 3.311 4.01 C 511.788 133.11 510.237 134.663 507.329 134.663 z" stroke-linecap="round"/>
</g>
		<g transform="matrix(1 0 0 1 235.026 56.4145)" id="Layer_1">
<radialGradient id="SVGID_33" gradientUnits="userSpaceOnUse" gradientTransform="matrix(0.482 0 0 -0.482 78.2489 66.3183)" cx="879.7436" cy="-100.5522" r="44.9221" fx="879.7436" fy="-100.5522">
<stop offset="0%" style="stop-color:rgb(255,255,255);stop-opacity: 0.08"/>
<stop offset="100%" style="stop-color:rgb(255,255,255);stop-opacity: 0"/>
</radialGradient>
<path style="stroke: none; stroke-width: 1; stroke-dasharray: none; stroke-linecap: butt; stroke-dashoffset: 0; stroke-linejoin: miter; stroke-miterlimit: 4; is-custom-font: none; font-file-url: none; fill: url(#SVGID_33); fill-rule: nonzero; opacity: 1;" transform=" translate(-506.526, -124.4105)" d="M 511.232 125.974 l -1.092 -0.846 c -0.333 -0.273 -0.801 -0.635 -0.801 -1.303 c 0 -0.672 0.433 -1.185 0.824 -1.487 c 1.306 -1.015 2.556 -2.097 2.556 -4.337 c 0 -2.039 -1.23 -3.229 -1.996 -3.901 h 1.695 l 1.274 -1.271 h -6.236 c -4.356 0 -6.574 2.714 -6.574 5.724 c 0 2.331 1.768 4.807 4.959 4.807 c 0.256 0 0.901 0 0.901 0 c -0.115 0.323 -0.236 0.689 -0.236 1.11 c 0 0.938 0.442 1.427 0.905 1.947 c -1.368 0.09 -3.92 0.351 -5.802 1.5 c -1.792 1.068 -2.331 2.611 -2.331 3.701 c 0 2.249 2.156 4.374 6.553 4.374 c 5.224 0 7.943 -2.913 7.943 -5.765 C 513.774 128.126 512.566 127.099 511.232 125.974 z M 507.368 122.468 c -2.494 0 -3.85 -3.1 -3.85 -5.455 c 0 -2.238 1.327 -3.232 2.716 -3.232 c 2.67 0 4.052 3.471 4.052 5.58 C 510.286 121.965 508.196 122.468 507.368 122.468 z M 507.329 134.663 c -3.246 0 -5.346 -1.553 -5.346 -3.71 c 0 -2.151 1.944 -2.883 2.612 -3.126 c 1.272 -0.429 2.914 -0.485 3.191 -0.485 c 0.298 0 0.449 0.002 0.691 0.029 c 2.312 1.65 3.311 2.462 3.311 4.01 C 511.788 133.11 510.237 134.663 507.329 134.663 z" stroke-linecap="round"/>
</g>
		<g transform="matrix(1 0 0 1 184.0605 48.404)" id="Layer_1">
<path style="stroke: none; stroke-width: 1; stroke-dasharray: none; stroke-linecap: butt; stroke-dashoffset: 0; stroke-linejoin: miter; stroke-miterlimit: 4; is-custom-font: none; font-file-url: none; fill: rgb(0,0,0); fill-rule: nonzero; opacity: 1;" transform=" translate(-455.5605, -116.4)" d="M 459.698 118.912 l -1.283 1.284 h 3.85 v 5.414 c -0.884 0.288 -2.305 0.6 -4.458 0.6 c -5.804 0 -10.009 -5.118 -10.009 -10.863 c 0 -5.238 3.447 -8.912 8.178 -8.912 c 2.746 0 4.663 0.891 6.289 2.434 v 1.77 l 2.929 -2.93 c -0.672 -0.461 -1.859 -1.238 -3.959 -1.855 c -1.355 -0.397 -2.955 -0.601 -4.596 -0.601 c -7.94 0 -12.103 5.831 -12.103 10.951 c 0 7.358 5.381 11.343 11.606 11.343 c 4.309 0 7.692 -0.975 9.117 -1.368 v -5.608 c 0 -0.218 0.086 -0.423 0.228 -0.563 l 1.098 -1.096 L 459.698 118.912 L 459.698 118.912 z" stroke-linecap="round"/>
</g>
		<g transform="matrix(1 0 0 1 184.0605 48.404)" id="Layer_1">
<radialGradient id="SVGID_34" gradientUnits="userSpaceOnUse" gradientTransform="matrix(0.482 0 0 -0.482 78.2489 66.3183)" cx="769.4207" cy="-84.682" r="50.0413" fx="769.4207" fy="-84.682">
<stop offset="0%" style="stop-color:rgb(255,255,255);stop-opacity: 0.08"/>
<stop offset="100%" style="stop-color:rgb(255,255,255);stop-opacity: 0"/>
</radialGradient>
<path style="stroke: none; stroke-width: 1; stroke-dasharray: none; stroke-linecap: butt; stroke-dashoffset: 0; stroke-linejoin: miter; stroke-miterlimit: 4; is-custom-font: none; font-file-url: none; fill: url(#SVGID_34); fill-rule: nonzero; opacity: 1;" transform=" translate(-455.5605, -116.4)" d="M 459.698 118.912 l -1.283 1.284 h 3.85 v 5.414 c -0.884 0.288 -2.305 0.6 -4.458 0.6 c -5.804 0 -10.009 -5.118 -10.009 -10.863 c 0 -5.238 3.447 -8.912 8.178 -8.912 c 2.746 0 4.663 0.891 6.289 2.434 v 1.77 l 2.929 -2.93 c -0.672 -0.461 -1.859 -1.238 -3.959 -1.855 c -1.355 -0.397 -2.955 -0.601 -4.596 -0.601 c -7.94 0 -12.103 5.831 -12.103 10.951 c 0 7.358 5.381 11.343 11.606 11.343 c 4.309 0 7.692 -0.975 9.117 -1.368 v -5.608 c 0 -0.218 0.086 -0.423 0.228 -0.563 l 1.098 -1.096 L 459.698 118.912 L 459.698 118.912 z" stroke-linecap="round"/>
</g>
		<g transform="matrix(1 0 0 1 264.643 45.7855)" id="Layer_1">
<path style="stroke: none; stroke-width: 1; stroke-dasharray: none; stroke-linecap: butt; stroke-dashoffset: 0; stroke-linejoin: miter; stroke-miterlimit: 4; is-custom-font: none; font-file-url: none; fill: rgb(0,0,0); fill-rule: nonzero; opacity: 1;" transform=" translate(-536.143, -113.7815)" d="M 534.326 113.034 h 0.641 v 1.71 h 0.214 v -1.71 h 0.64 v -0.215 h -1.494 L 534.326 113.034 L 534.326 113.034 z M 537.662 112.819 l -0.665 1.627 l -0.662 -1.627 h -0.3 v 1.925 h 0.214 v -1.605 l 0.668 1.605 h 0.161 l 0.667 -1.605 v 1.605 h 0.215 v -1.925 H 537.662 z" stroke-linecap="round"/>
</g>
		<g transform="matrix(1 0 0 1 217.921 51.5585)" id="Layer_1">
<rect style="stroke: none; stroke-width: 1; stroke-dasharray: none; stroke-linecap: butt; stroke-dashoffset: 0; stroke-linejoin: miter; stroke-miterlimit: 4; is-custom-font: none; font-file-url: none; fill: none; fill-rule: nonzero; opacity: 1;" x="-58.804" y="-28.3335" rx="0" ry="0" width="117.608" height="56.667"/>
</g>
</g>
</g>
</svg>