<svg xmlns="http://www.w3.org/2000/svg" xmlns:xlink="http://www.w3.org/1999/xlink" version="1.1" width="1000" height="1000" viewBox="0 0 1000 1000" xml:space="preserve">
<desc>Created with Fabric.js 3.5.0</desc>
<defs>
</defs>
<rect x="0" y="0" width="100%" height="100%" fill="rgba(99,71,204,0)"/>
<g transform="matrix(0.9278 0 0 0.9278 499.9878 320.3003)" id="527957">
<g style="" vector-effect="non-scaling-stroke">
		<g transform="matrix(1 0 0 1 -65.733 -65.3752)" id="_x32_67-python">
<path style="stroke: none; stroke-width: 1; stroke-dasharray: none; stroke-linecap: butt; stroke-dashoffset: 0; stroke-linejoin: miter; stroke-miterlimit: 4; is-custom-font: none; font-file-url: none; fill: rgb(52,122,180); fill-rule: nonzero; opacity: 1;" transform=" translate(-190.2669, -190.6247)" d="M 194.005 240.252 h 105.054 c 29.216 0 52.529 -24.101 52.529 -53.414 V 86.603 c 0 -28.525 -24.002 -49.871 -52.529 -54.691 c -35.214 -5.804 -73.478 -5.509 -105.054 0.097 c -44.462 7.87 -52.527 24.298 -52.527 54.693 v 21.453 H 246.63 v 31.959 H 102.033 c -30.591 0 -57.349 18.394 -65.709 53.315 c -9.64 40.035 -10.033 65.02 0 106.826 c 7.476 31.085 25.28 53.314 55.872 53.314 h 36.101 v -48.001 C 128.296 270.845 158.298 240.252 194.005 240.252 L 194.005 240.252 z" stroke-linecap="round"/>
</g>
		<g transform="matrix(1 0 0 1 65.3833 64.1885)" id="_x32_67-python">
<path style="stroke: none; stroke-width: 1; stroke-dasharray: none; stroke-linecap: butt; stroke-dashoffset: 0; stroke-linejoin: miter; stroke-miterlimit: 4; is-custom-font: none; font-file-url: none; fill: rgb(255,202,29); fill-rule: nonzero; opacity: 1;" transform=" translate(-321.3833, -320.1885)" d="M 474.975 209.372 c -7.575 -30.395 -21.935 -53.315 -52.527 -53.315 h -39.443 v 46.626 c 0 36.199 -30.692 66.691 -65.71 66.691 H 212.24 c -28.724 0 -52.528 24.594 -52.528 53.414 v 100.138 c 0 28.524 24.788 45.246 52.528 53.413 c 33.247 9.737 65.215 11.509 105.054 0 c 26.462 -7.675 52.529 -23.116 52.529 -53.413 v -20.997 H 264.867 v -32.417 h 157.58 c 30.593 0 41.904 -21.346 52.527 -53.314 C 485.992 283.244 485.501 251.57 474.975 209.372 L 474.975 209.372 z" stroke-linecap="round"/>
</g>
		<g transform="matrix(1 0 0 1 -68.5845 -185.6175)" id="_x32_67-python">
<path style="stroke: none; stroke-width: 1; stroke-dasharray: none; stroke-linecap: butt; stroke-dashoffset: 0; stroke-linejoin: miter; stroke-miterlimit: 4; is-custom-font: none; font-file-url: none; fill: rgb(255,255,255); fill-rule: nonzero; opacity: 1;" transform=" translate(-187.4155, -70.3825)" d="M 187.415 89.594 c -10.479 0 -18.975 -8.591 -18.975 -19.164 c 0.094 -10.668 8.496 -19.259 18.975 -19.259 c 10.385 0 18.976 8.685 18.976 19.259 C 206.39 81.003 197.894 89.594 187.415 89.594 z" stroke-linecap="round"/>
</g>
		<g transform="matrix(1 0 0 1 58.908 184.8645)" id="_x32_67-python">
<path style="stroke: none; stroke-width: 1; stroke-dasharray: none; stroke-linecap: butt; stroke-dashoffset: 0; stroke-linejoin: miter; stroke-miterlimit: 4; is-custom-font: none; font-file-url: none; fill: rgb(255,255,255); fill-rule: nonzero; opacity: 1;" transform=" translate(-314.908, -440.8645)" d="M 314.908 460.076 c -10.479 0 -18.976 -8.591 -18.976 -19.164 c 0.095 -10.668 8.496 -19.259 18.976 -19.259 c 10.385 0 18.976 8.685 18.976 19.259 C 333.884 451.485 325.388 460.076 314.908 460.076 z" stroke-linecap="round"/>
</g>
</g>
</g>
<g transform="matrix(1 0 0 1 518.971 682.2447)" id="716702">
<path style="stroke: none; stroke-width: 1; stroke-dasharray: none; stroke-linecap: butt; stroke-dashoffset: 0; stroke-linejoin: miter; stroke-miterlimit: 4; is-custom-font: none; font-file-url: none; fill: rgb(9,46,32); fill-rule: nonzero; opacity: 1;" vector-effect="non-scaling-stroke" transform=" translate(-256, -89.44)" d="M 386.891623 41.4228474 C 398.893282 41.4228474 409.984729 42.6943288 423.439677 45.4214453 L 413.851956 65.618529 C 406.396664 64.1640668 413.254923 65.4238187 407.621228 64.8783954 L 407.621228 67.7884927 L 407.98367 79.6048247 L 408.164305 94.8790231 C 408.346113 98.6958133 408.346113 102.514949 408.529094 106.332913 L 408.529094 113.970012 L 408.529094 113.970012 C 408.529094 137.970983 406.529208 149.243065 400.529552 158.515261 C 391.801606 172.15319 376.710388 178.880077 355.255899 178.880077 C 344.346259 178.880077 334.893428 177.243807 325.073463 173.424671 L 325.073463 147.606795 L 325.074636 147.606795 C 334.894601 152.697412 344.712221 155.05974 355.075264 155.05974 C 373.437848 155.05974 381.256755 147.606795 381.256755 129.787288 L 381.256755 129.241864 L 381.256755 129.241864 C 375.802522 131.967808 370.347116 133.059827 363.075979 133.059827 C 338.529584 133.059827 322.890597 116.877763 322.890597 91.2416948 C 322.890597 59.4206435 345.983702 41.4228474 386.891623 41.4228474 Z M 132.909689 43.2409251 L 132.909689 108.149817 C 132.909689 130.514519 131.27342 141.241177 126.36461 150.514546 C 121.818243 159.425473 115.817413 165.060341 103.454485 171.242978 L 77.4536283 158.878877 C 89.8177295 153.061028 95.8173858 147.971583 99.635349 140.15033 C 103.636293 132.150789 104.91012 122.87742 104.91012 98.5140056 L 104.91012 43.2409251 L 132.909689 43.2409251 Z M 466.908155 40.8774241 C 494.907724 40.8774241 512 58.5151235 512 87.0601161 C 512 116.334686 494.182839 134.698443 465.817308 134.698443 C 437.815393 134.698443 420.542482 117.060744 420.542482 88.697559 C 420.543655 59.2400087 438.363162 40.8774241 466.908155 40.8774241 Z M 186.914807 41.2422126 C 201.278794 41.2422126 210.732798 45.0590028 214.91555 52.5142942 C 217.277878 56.6958729 218.005109 62.150106 218.005109 73.788149 L 218.005109 130.696327 C 205.458027 132.514404 189.640751 133.788232 178.005054 133.788232 C 154.550679 133.788232 144.003482 125.603363 144.003482 107.422586 C 144.003482 87.7850013 158.003853 78.6946129 192.36904 75.7845156 L 192.36904 69.6030515 C 192.36904 64.512434 189.823732 62.6955293 182.732056 62.6955293 C 172.369013 62.6955293 160.732143 65.6044536 149.821331 71.2416673 L 149.821331 49.604197 L 149.822504 49.604197 C 162.187778 43.7875213 174.005283 41.2422126 186.914807 41.2422126 Z M 88.3656132 0 L 88.3656132 129.606653 C 74.0016266 132.333769 63.455603 133.424616 52.0017136 133.424616 C 17.8183343 133.424616 0 117.970956 0 88.3327705 C 0 59.786605 18.9103538 41.2422126 48.1825775 41.2422126 C 52.7277717 41.2422126 56.1821193 41.6046552 60.364871 42.6955018 L 60.364871 0 L 88.3656132 0 Z M 275.642863 41.2422126 C 290.00685 41.2422126 300.371066 44.5135795 306.554876 50.8780243 C 312.372724 56.8765077 314.189629 63.4215874 314.189629 77.4243044 L 314.189629 132.332596 L 286.188887 132.332596 L 286.188887 78.515151 C 286.188887 67.7884927 282.552731 63.7863759 272.553304 63.7863759 C 268.735341 63.7863759 265.280993 64.1499914 259.642607 65.7862613 L 259.642607 132.332596 L 231.643037 132.332596 L 231.643037 47.6043115 C 248.187544 43.2409251 261.8243 41.2422126 275.642863 41.2422126 Z M 193.641695 94.1506191 C 175.094957 95.9686968 169.0953 98.8787941 169.0953 106.151105 C 169.0953 111.605338 172.550821 114.150647 180.186747 114.150647 C 184.369499 114.150647 188.186289 113.788204 193.641695 112.879165 L 193.641695 94.1506191 Z M 466.545712 63.4227603 C 455.453092 63.4227603 449.087474 72.3336869 449.087474 87.7861743 C 449.088647 103.242181 455.453092 112.150761 466.360385 112.150761 C 477.08939 112.150761 483.453834 103.241008 483.453834 87.7861743 C 483.453834 72.5143217 477.271197 63.4227603 466.545712 63.4227603 Z M 50.910867 63.7863759 C 36.7286881 63.7863759 28.5461656 72.5143217 28.5461656 87.7861743 C 28.5461656 102.696757 36.3650726 110.878107 50.7290592 110.878107 C 53.8186183 110.878107 56.3651001 110.696299 60.364871 110.152049 L 60.364871 65.2396651 C 57.0923311 64.1499914 54.3652146 63.7863759 50.910867 63.7863759 Z M 361.621516 67.9667816 C 354.895802 71.7859177 351.439108 78.6957858 351.439108 88.5134053 C 351.439108 102.514949 358.350149 110.514491 370.713078 110.514491 C 374.531041 110.514491 377.622946 109.786087 381.257928 108.696414 L 381.257928 99.0606018 C 381.257928 95.788062 381.077294 92.1495607 381.077294 88.3327705 L 380.896659 75.424419 L 380.713678 66.1510498 L 380.713678 63.9681836 L 377.803581 63.9681836 C 372.350521 63.7863759 365.987249 65.2396651 361.621516 67.9667816 Z M 132.909689 0.148965075 L 132.909689 28.8769384 L 104.91012 28.8769384 L 104.91012 0.148965075 L 132.909689 0.148965075 Z" stroke-linecap="round"/>
</g>
</svg>